<svg id="golang-gopher" xmlns="http://www.w3.org/2000/svg" width="68.486" height="92.985" viewBox="0 0 68.486 92.985">
  <path id="Trazado_1042283" data-name="Trazado 1042283" d="M6.047,35.986c-.131,2.748-2.907,1.454-4.114.611S.479,36.465.3,34.852a26.357,26.357,0,0,1-.131-3.169,7.778,7.778,0,0,1,5.19,1.323c.756.552,2.166,2.3.7,2.907" transform="translate(61.523 14.287)" fill="#f6d2a2"/>
  <path id="Trazado_1042284" data-name="Trazado 1042284" d="M4.7,38.042a1.744,1.744,0,0,0,.785-.174,1.8,1.8,0,0,0,.9-1.6,1.192,1.192,0,0,0,.654-.945A3.344,3.344,0,0,0,5.585,32.91,8,8,0,0,0,.221,31.544H0v.218a18.9,18.9,0,0,0,.073,2.486v.727c.073,1.134.291,1.308.872,1.454a3.242,3.242,0,0,1,.872.422A5.946,5.946,0,0,0,4.7,38.042Zm-3.693-6A7.269,7.269,0,0,1,5.28,33.346,2.908,2.908,0,0,1,6.5,35.294a.727.727,0,0,1-.494.6H5.861v.16a1.454,1.454,0,0,1-.611,1.308,3.809,3.809,0,0,1-3.1-.9,3.751,3.751,0,0,0-.989-.494C.788,35.832.7,35.8.642,34.9v-.727a20.352,20.352,0,0,1-.087-2.181h.451Z" transform="translate(61.447 14.223)" fill="#010101"/>
  <path id="Trazado_1042285" data-name="Trazado 1042285" d="M1.71,34.821A2.166,2.166,0,0,1,.62,34.21" transform="translate(65.86 15.452)" fill="#c7b199"/>
  <path id="Trazado_1042286" data-name="Trazado 1042286" d="M1.671,35.147a.267.267,0,1,0,.16-.509H1.656a1.57,1.57,0,0,1-.8-.465.265.265,0,0,0-.422.32,2.035,2.035,0,0,0,1.047.64h.189Z" transform="translate(65.899 15.388)" fill="#010101"/>
  <path id="Trazado_1042287" data-name="Trazado 1042287" d="M7.316,15.929C17.827,13.021,10.006-.4,1.5,5.1Z" transform="translate(53.916 1.65)" fill="#74cddd"/>
  <path id="Trazado_1042288" data-name="Trazado 1042288" d="M7.3,16.3h.2c2.995-.843,4.841-2.617,5.19-4.986A6.963,6.963,0,0,0,9.45,4.74,7.036,7.036,0,0,0,1.542,5l-.2.131ZM5.845,4.115a6.149,6.149,0,0,1,3.358,1,6.426,6.426,0,0,1,3.009,6.062c-.32,2.108-1.948,3.707-4.608,4.507L2.079,5.264A7.269,7.269,0,0,1,5.8,4.159Z" transform="translate(53.803 1.586)" fill="#010101"/>
  <path id="Trazado_1042289" data-name="Trazado 1042289" d="M47.81,4.459c-8.315-5.815-15.831,7.269-6.164,10.656Z" transform="translate(-33.273 1.286)" fill="#74cddd"/>
  <path id="Trazado_1042290" data-name="Trazado 1042290" d="M41.772,15.51l6.4-11.048-.189-.131a6.862,6.862,0,0,0-7.632-.64A7.051,7.051,0,0,0,36.873,10.2c.145,1.454.93,3.94,4.7,5.233Zm5.7-10.9L41.54,14.87A5.684,5.684,0,0,1,37.4,10.16a6.513,6.513,0,0,1,3.213-6.033,6.178,6.178,0,0,1,6.862.48Z" transform="translate(-33.282 1.211)" fill="#010101"/>
  <path id="Trazado_1042291" data-name="Trazado 1042291" d="M39.157,57.87c-2.108,1.308-5.975,5.263-2.806,7.181,3.038,2.791,4.754-3.067,7.429-3.867a7.4,7.4,0,0,0-4.623-3.315Z" transform="translate(-26.408 26.188)" fill="#f6d2a2"/>
  <path id="Trazado_1042292" data-name="Trazado 1042292" d="M37.942,66.154h.116c1.207-.073,2.2-1.25,3.155-2.37a6.775,6.775,0,0,1,2.617-2.253l.349-.1-.218-.363a7.719,7.719,0,0,0-4.783-3.416h-.189c-1.352.843-4.143,3.285-4.129,5.5a2.428,2.428,0,0,0,1.308,2.108,2.631,2.631,0,0,0,1.774.9Zm5.408-5a8.33,8.33,0,0,0-2.515,2.282,5.074,5.074,0,0,1-2.791,2.2,2.079,2.079,0,0,1-1.454-.683,1.919,1.919,0,0,1-1.076-1.686c0-1.774,2.239-4,3.794-5a6.833,6.833,0,0,1,4.027,2.893Z" transform="translate(-26.385 26.088)" fill="#010101"/>
  <path id="Trazado_1042293" data-name="Trazado 1042293" d="M39.364,64.048A.262.262,0,0,0,39.6,63.9,9.694,9.694,0,0,0,40,62.914a4.361,4.361,0,0,1,.959-1.774.262.262,0,1,0-.363-.378,4.812,4.812,0,0,0-1.076,1.919,9.318,9.318,0,0,1-.393.93.262.262,0,0,0,.116.349Z" transform="translate(-29.421 27.467)" fill="#010101"/>
  <path id="Trazado_1042294" data-name="Trazado 1042294" d="M5.417,62.1c2.486.378,3.882,2.617,5.946,3.751a1.8,1.8,0,0,0,2.907-.683.945.945,0,0,0,.756-.349c1.8-2.907-1.875-4.928-3.809-6.353-2.719-.523-4.39,1.788-5.8,3.634Z" transform="translate(45.086 26.423)" fill="#f6d2a2"/>
  <path id="Trazado_1042295" data-name="Trazado 1042295" d="M13.031,66.576a1.774,1.774,0,0,0,.465,0,2.152,2.152,0,0,0,1.265-1.09.872.872,0,0,0,.712-.378c1.745-2.748-1.221-4.826-3.184-6.208l-.683-.494c-2.748-.552-4.492,1.715-5.888,3.547l-.393.523h.436A7.516,7.516,0,0,1,9.44,64.585a13.359,13.359,0,0,0,2.181,1.628A2.907,2.907,0,0,0,13.031,66.576Zm1.744-1.686a.712.712,0,0,0-.305,0H14.4l-.116.233a1.686,1.686,0,0,1-.974.887,1.992,1.992,0,0,1-1.454-.349,12.983,12.983,0,0,1-2.108-1.57,8.722,8.722,0,0,0-3.5-2.137c1.337-1.744,2.907-3.634,5.19-3.2l.654.465c2.006,1.454,4.492,3.169,3.053,5.481a.422.422,0,0,1-.305.2Z" transform="translate(44.726 26.393)" fill="#010101"/>
  <path id="Trazado_1042296" data-name="Trazado 1042296" d="M54.609,89.42a.262.262,0,0,0,.262-.349,3.983,3.983,0,0,0-.843-1.9,6.134,6.134,0,0,1-.552-.916.263.263,0,1,0-.48.218,6.629,6.629,0,0,0,.6,1,3.533,3.533,0,0,1,.712,1.7.262.262,0,0,0,.305.247Zm1.483-77.979c1.454-.727,2.4-1.73,1.556-3.329s-2.239-1.323-3.634-.6Zm-50.227-1.4c-1.454-.727-2.4-1.73-1.556-3.329s2.239-1.323,3.634-.6Z" transform="translate(4.704 2.445)" fill="#010101"/>
  <path id="Trazado_1042297" data-name="Trazado 1042297" d="M43.012,35.746c.131,2.748,2.908,1.454,4.114.611s1.454-.131,1.628-1.744a26.358,26.358,0,0,0,.131-3.169,7.778,7.778,0,0,0-5.19,1.323c-.756.552-2.166,2.3-.7,2.907" transform="translate(-41.995 14.178)" fill="#f6d2a2"/>
  <path id="Trazado_1042298" data-name="Trazado 1042298" d="M44.694,37.757a5.946,5.946,0,0,0,2.777-1.047,3.242,3.242,0,0,1,.872-.422c.581-.2.8-.378.872-1.454v-.727a18.9,18.9,0,0,0,.073-2.486v-.349h-.218a8,8,0,0,0-5.364,1.367,3.344,3.344,0,0,0-1.454,2.413,1.192,1.192,0,0,0,.654.945,1.8,1.8,0,0,0,.9,1.6,1.759,1.759,0,0,0,.887.16Zm4.23-5.989a20.424,20.424,0,0,1-.087,2.181v.727c0,.887-.131.916-.523,1.061a3.75,3.75,0,0,0-.989.494,3.794,3.794,0,0,1-3.1.9,1.454,1.454,0,0,1-.611-1.308v-.174h-.145a.727.727,0,0,1-.494-.6A2.907,2.907,0,0,1,44.2,33.105a7.414,7.414,0,0,1,4.725-1.337Z" transform="translate(-42.251 14.1)" fill="#010101"/>
  <path id="Trazado_1042299" data-name="Trazado 1042299" d="M45.65,34.567A2.166,2.166,0,0,0,46.74,34" transform="translate(-44.632 15.357)" fill="#c7b199"/>
  <path id="Trazado_1042300" data-name="Trazado 1042300" d="M45.819,34.929H46.1a2.035,2.035,0,0,0,1.018-.727.265.265,0,0,0-.422-.32,1.57,1.57,0,0,1-.8.465h-.174a.3.3,0,0,0,.1.582Z" transform="translate(-44.801 15.256)" fill="#010101"/>
  <path id="Trazado_1042301" data-name="Trazado 1042301" d="M33.7.18C23.179.18,13.352,1.634,8.176,11.81,3.568,23.135,5.269,35.361,4.5,47.325,3.888,57.6,2.55,69.48,7.319,79.017c4.986,10,17.576,12.488,27.9,12.153,8.112-.291,17.91-2.907,22.489-10.351,5.379-8.722,2.835-21.632,2.442-31.3-.465-11.456,3.111-22.955-.654-34.178C55.583,3.713,45.058,1.081,33.719.18" transform="translate(1.636 0.011)" fill="#74cddd"/>
  <path id="Trazado_1042302" data-name="Trazado 1042302" d="M33.49,91.564h1.8a38.364,38.364,0,0,0,12.662-2.53A20.251,20.251,0,0,0,58,81.083c4.361-7.036,3.576-16.747,2.908-25.324-.174-2.152-.334-4.2-.407-6.12a98.612,98.612,0,0,1,.523-12.182c.611-7.269,1.25-14.785-1.192-22.068A19.306,19.306,0,0,0,49.656,3.627C45.731,1.708,40.933.6,33.883.051,23.5-.022,13.268,1.432,8.006,11.739,4.633,20.025,4.59,28.922,4.531,37.528c0,3.227,0,6.556-.233,9.813,0,.989-.116,1.992-.189,2.995C3.5,59.771,2.8,70.485,7.148,79.149,12.585,89.994,26.25,91.564,33.49,91.564ZM33.766.5c10.947.93,21.617,3.285,25.542,14.988,2.413,7.182,1.774,14.639,1.178,21.806a98.985,98.985,0,0,0-.523,12.241c.073,1.933.247,3.983.407,6.149.669,8.49,1.454,18.128-2.806,25-1.788,2.907-7.545,9.7-22.286,10.176C28.9,91.1,13.472,90.372,7.657,78.829c-4.274-8.548-3.591-19.175-2.98-28.552,0-1.018.131-2.021.189-2.995.16-3.169.233-6.513.233-9.74,0-8.548.087-17.445,3.431-25.586a18.71,18.71,0,0,1,10.6-9.464A43.467,43.467,0,0,1,33.766.5Z" transform="translate(1.574 -0.048)" fill="#010101"/>
  <path id="Trazado_1042303" data-name="Trazado 1042303" d="M41.555,12.758C39.666,23.734,21.726,20.841,24.3,9.763,26.611-.166,42.18,2.582,41.555,12.758" transform="translate(-8.061 1.549)" fill="#fff"/>
  <path id="Trazado_1042304" data-name="Trazado 1042304" d="M33.132,20a10.045,10.045,0,0,0,3.285-.538,8.126,8.126,0,0,0,5.5-6.585,8.374,8.374,0,0,0-2.268-6.455A9.9,9.9,0,0,0,33.83,3.516a9.3,9.3,0,0,0-5.9,1.018,7.923,7.923,0,0,0-3.765,5.248A7.676,7.676,0,0,0,26.4,17.573,10.176,10.176,0,0,0,33.132,20Zm8.272-7.2a7.632,7.632,0,0,1-5.161,6.178,9.929,9.929,0,0,1-9.522-1.8,7.269,7.269,0,0,1-2.079-7.269,7.763,7.763,0,0,1,9.1-5.9A8.388,8.388,0,0,1,41.4,12.805Z" transform="translate(-8.171 1.473)" fill="#010101"/>
  <path id="Trazado_1042305" data-name="Trazado 1042305" d="M26.356,14.261C23.913,23.812,8.62,21.355,9.187,11.775,9.87.29,28.7,2.456,26.356,14.261" transform="translate(28.582 1.835)" fill="#fff"/>
  <path id="Trazado_1042306" data-name="Trazado 1042306" d="M18.241,20.625a9.391,9.391,0,0,0,4.463-1.09,7.923,7.923,0,0,0,3.94-5.161A8.01,8.01,0,0,0,23.911,6.16,10.322,10.322,0,0,0,13.647,4.852,7.763,7.763,0,0,0,9,11.83c-.305,5.088,3.736,8.054,7.6,8.722a10.627,10.627,0,0,0,1.643.073Zm7.879-6.353a7.937,7.937,0,0,1-9.493,5.815c-3.663-.581-7.487-3.373-7.2-8.156a7.269,7.269,0,0,1,4.361-6.571,9.813,9.813,0,0,1,9.755,1.25,7.545,7.545,0,0,1,2.573,7.661Z" transform="translate(28.526 1.765)" fill="#010101"/>
  <path id="Trazado_1042307" data-name="Trazado 1042307" d="M23.1,19.313a24.713,24.713,0,0,0,0,4.55,2.907,2.907,0,0,0,1.7,1.047,2.5,2.5,0,0,0,1.9-1.454,32.3,32.3,0,0,0-.131-5.146Z" transform="translate(8.284 8.238)" fill="#fff"/>
  <path id="Trazado_1042308" data-name="Trazado 1042308" d="M24.905,25.269h.073a2.748,2.748,0,0,0,2.108-1.643,17.27,17.27,0,0,0,0-3.533c0-.538-.087-1.1-.1-1.657V18l-3.925,1.207v.247a9.937,9.937,0,0,1-.073,1.454,12.458,12.458,0,0,0,0,3.126v.073a2.181,2.181,0,0,0,1.381.989l.451.174Zm1.686-1.832a2.224,2.224,0,0,1-1.628,1.294l-.407-.16a1.744,1.744,0,0,1-1.061-.756,12.255,12.255,0,0,1,0-2.907,7.988,7.988,0,0,1,.073-1.323l2.907-.887a6.822,6.822,0,0,0,.087,1.337,16.776,16.776,0,0,1,.044,3.387Z" transform="translate(8.022 8.097)" fill="#010101"/>
  <ellipse id="Elipse_12485" data-name="Elipse 12485" cx="2.588" cy="2.806" rx="2.588" ry="2.806" transform="translate(48.134 11.72)" fill="#010101"/>
  <ellipse id="Elipse_12486" data-name="Elipse 12486" cx="0.611" cy="0.712" rx="0.611" ry="0.712" transform="translate(48.933 14.453)" fill="#fff"/>
  <ellipse id="Elipse_12487" data-name="Elipse 12487" cx="2.544" cy="2.806" rx="2.544" ry="2.806" transform="translate(26.516 11.022)" fill="#010101"/>
  <ellipse id="Elipse_12488" data-name="Elipse 12488" cx="0.596" cy="0.712" rx="0.596" ry="0.712" transform="translate(27.316 13.755)" fill="#fff"/>
  <path id="Trazado_1042309" data-name="Trazado 1042309" d="M24.1,19.154c1.134,2.733-.625,8.2-3.693,4.172a32.3,32.3,0,0,0-.131-5.146Z" transform="translate(14.56 8.179)" fill="#fff"/>
  <path id="Trazado_1042310" data-name="Trazado 1042310" d="M22.515,25.15a1.454,1.454,0,0,0,.756-.2c1.236-.712,2.006-3.634,1.134-5.815v-.116l-4.361-1.1v.349a9.067,9.067,0,0,0,.1,1.672,16.617,16.617,0,0,1,0,3.431v.189a3.067,3.067,0,0,0,2.37,1.6Zm1.439-5.655c.625,1.7.131,4.361-.959,4.986-.785.451-1.657-.334-2.268-1.119a17.779,17.779,0,0,0,0-3.431,6.674,6.674,0,0,0-.087-1.308Z" transform="translate(14.556 8.056)" fill="#010101"/>
  <path id="Trazado_1042311" data-name="Trazado 1042311" d="M29.4,15.325a3.329,3.329,0,0,1,2.733,4.652c-1.454,2.617-4.681-.233-6.687,0-2.311,0-4.216,2.442-6.077.436-2.064-2.239.887-4.361,3.2-5.393Z" transform="translate(8.925 6.745)" fill="#f6d2a2"/>
  <path id="Trazado_1042312" data-name="Trazado 1042312" d="M21.011,21.591a5.815,5.815,0,0,0,2.122-.6,6.411,6.411,0,0,1,2.3-.64,5.815,5.815,0,0,1,2.413.523c1.628.567,3.474,1.207,4.521-.669a3.14,3.14,0,0,0,0-3.053,3.722,3.722,0,0,0-2.907-1.992l-6.993-.305c-1.715.727-3.678,2.05-4.012,3.591a2.777,2.777,0,0,0,2.559,3.14Zm4.361-1.759a6.833,6.833,0,0,0-2.471.683c-1.308.552-2.341.974-3.387-.16a1.933,1.933,0,0,1-.6-1.759c.291-1.337,2.137-2.559,3.649-3.2l6.76.276A3.227,3.227,0,0,1,31.8,17.39a2.631,2.631,0,0,1,0,2.544c-.829,1.454-2.311.974-3.9.436a6.164,6.164,0,0,0-2.53-.538Z" transform="translate(8.922 6.672)" fill="#231f20"/>
  <path id="Trazado_1042313" data-name="Trazado 1042313" d="M28.169,16.116c.16-3.634-6.789-4.1-7.6-1.047S27.834,18.82,28.169,16.116Z" transform="translate(10.486 5.853)" fill="#010101"/>
</svg>
