<svg xmlns="http://www.w3.org/2000/svg" xmlns:xlink="http://www.w3.org/1999/xlink" width="118" height="118" viewBox="0 0 118 118">
  <defs>
    <filter id="Trazado_982547" x="0" y="0" width="118" height="118" filterUnits="userSpaceOnUse">
      <feOffset dy="3" input="SourceAlpha"/>
      <feGaussianBlur stdDeviation="3" result="blur"/>
      <feFlood flood-opacity="0.161"/>
      <feComposite operator="in" in2="blur"/>
      <feComposite in="SourceGraphic"/>
    </filter>
  </defs>
  <g id="Grupo_1180876" data-name="Grupo 1180876" transform="translate(-321 -1256)">
    <g id="Grupo_1179138" data-name="Grupo 1179138" transform="translate(-2.5 571)">
      <g id="Grupo_1177984" data-name="Grupo 1177984" transform="translate(332.5 691)">
        <g id="Grupo_1177679" data-name="Grupo 1177679">
          <g id="Grupo_1172010" data-name="Grupo 1172010">
            <g id="Grupo_1171046" data-name="Grupo 1171046">
              <g id="Grupo_1148525" data-name="Grupo 1148525">
                <g transform="matrix(1, 0, 0, 1, -9, -6)" filter="url(#Trazado_982547)">
                  <g id="Trazado_982547-2" data-name="Trazado 982547" transform="translate(9 6)" fill="#fdf4ce">
                    <path d="M 50 98.5 C 43.45188522338867 98.5 37.10042953491211 97.21787261962891 31.12207221984863 94.68923950195312 C 25.34691429138184 92.24655914306641 20.15997123718262 88.74931335449219 15.70532894134521 84.29468536376953 C 11.2506856918335 79.84004211425781 7.753442764282227 74.65309906005859 5.310757160186768 68.8779296875 C 2.782128572463989 62.89957046508789 1.5 56.54811477661133 1.5 50 C 1.5 43.45188522338867 2.782128572463989 37.10042953491211 5.310757160186768 31.12207221984863 C 7.753442764282227 25.34691429138184 11.2506856918335 20.15997123718262 15.70532894134521 15.70532894134521 C 20.15997123718262 11.2506856918335 25.34691429138184 7.753442764282227 31.12207221984863 5.310757160186768 C 37.10042953491211 2.782128572463989 43.45188522338867 1.5 50 1.5 C 56.54811477661133 1.5 62.89957046508789 2.782128572463989 68.8779296875 5.310757160186768 C 74.65309906005859 7.753442764282227 79.84004211425781 11.2506856918335 84.29468536376953 15.70532894134521 C 88.74931335449219 20.15997123718262 92.24655914306641 25.34691429138184 94.68923950195312 31.12207221984863 C 97.21787261962891 37.10042953491211 98.5 43.45188522338867 98.5 50 C 98.5 56.54811477661133 97.21787261962891 62.89957046508789 94.68923950195312 68.8779296875 C 92.24655914306641 74.65309906005859 88.74931335449219 79.84004211425781 84.29468536376953 84.29468536376953 C 79.84004211425781 88.74931335449219 74.65309906005859 92.24655914306641 68.8779296875 94.68923950195312 C 62.89957046508789 97.21787261962891 56.54811477661133 98.5 50 98.5 Z" stroke="none"/>
                    <path d="M 50 3 C 43.65372467041016 3 37.49886322021484 4.242263793945312 31.70639801025391 6.6922607421875 C 26.11003112792969 9.059326171875 21.08335113525391 12.44861602783203 16.76598358154297 16.76598358154297 C 12.44861602783203 21.08335113525391 9.059326171875 26.11003112792969 6.6922607421875 31.70639801025391 C 4.242263793945312 37.49886322021484 3 43.65372467041016 3 50 C 3 56.34627532958984 4.242263793945312 62.50113677978516 6.6922607421875 68.29360198974609 C 9.059326171875 73.88996887207031 12.44861602783203 78.91666412353516 16.76598358154297 83.23401641845703 C 21.08335113525391 87.55138397216797 26.11003112792969 90.940673828125 31.70639801025391 93.3077392578125 C 37.49886322021484 95.75773620605469 43.65372467041016 97 50 97 C 56.34627532958984 97 62.50113677978516 95.75773620605469 68.29360198974609 93.3077392578125 C 73.88996887207031 90.940673828125 78.91666412353516 87.55138397216797 83.23401641845703 83.23401641845703 C 87.55138397216797 78.91666412353516 90.940673828125 73.88996887207031 93.3077392578125 68.29360198974609 C 95.75773620605469 62.50113677978516 97 56.34627532958984 97 50 C 97 43.65372467041016 95.75773620605469 37.49886322021484 93.3077392578125 31.70639801025391 C 90.940673828125 26.11003112792969 87.55138397216797 21.08335113525391 83.23401641845703 16.76598358154297 C 78.91666412353516 12.44861602783203 73.88996887207031 9.059326171875 68.29360198974609 6.6922607421875 C 62.50113677978516 4.242263793945312 56.34627532958984 3 50 3 M 50 0 C 77.61424255371094 0 100 22.38577270507812 100 50 C 100 77.61424255371094 77.61424255371094 100 50 100 C 22.38577270507812 100 0 77.61424255371094 0 50 C 0 22.38577270507812 22.38577270507812 0 50 0 Z" stroke="none" fill="#866d08"/>
                  </g>
                </g>
              </g>
            </g>
          </g>
        </g>
      </g>
    </g>
    <g id="python_3098090_1_" data-name="python_3098090 (1)" transform="translate(345.08 1277.093)">
      <path id="Trazado_1042123" data-name="Trazado 1042123" d="M120.607,80.948a35.823,35.823,0,0,1-.034,16.571,7.049,7.049,0,0,1-6.866,5.438H102.94v10.769a7.051,7.051,0,0,1-5.59,6.9,35.816,35.816,0,0,1-16.4,0,7.053,7.053,0,0,1-5.6-6.9V96.216a7.054,7.054,0,0,1,7.054-7.054H95.886a7.054,7.054,0,0,0,7.054-7.053v-6.74h10.768a7.049,7.049,0,0,1,6.9,5.58Z" transform="translate(-54.232 -54.257)" fill="#f0c020"/>
      <path id="Trazado_1042124" data-name="Trazado 1042124" d="M50.518,12.181V29.689a7.054,7.054,0,0,1-7.054,7.054H29.983A7.054,7.054,0,0,0,22.929,43.8v6.74H12.16A7.049,7.049,0,0,1,5.3,45.1a35.831,35.831,0,0,1,0-16.721,7.049,7.049,0,0,1,6.866-5.434H22.929V12.18a7.051,7.051,0,0,1,5.58-6.9A35.819,35.819,0,0,1,44.9,5.273a7.054,7.054,0,0,1,5.614,6.908Z" transform="translate(-1.81 -1.837)" fill="#72c1e8"/>
      <circle id="Elipse_12479" data-name="Elipse 12479" cx="2.205" cy="2.205" r="2.205" transform="translate(26.305 11.198) rotate(-22.514)" fill="#fff"/>
      <circle id="Elipse_12480" data-name="Elipse 12480" cx="2.205" cy="2.205" r="2.205" transform="translate(38.443 55.208)" fill="#fff"/>
      <path id="Trazado_1042125" data-name="Trazado 1042125" d="M168.13,123.015a.655.655,0,0,1-.655-.655v-1.272a.655.655,0,1,1,1.311,0v1.272A.655.655,0,0,1,168.13,123.015Zm0-3.894a.655.655,0,0,1-.655-.655V107.773a.655.655,0,0,1,.655-.655h13.552a2.714,2.714,0,0,0,2.656-2.1,31.687,31.687,0,0,0,0-14.742,2.71,2.71,0,0,0-2.654-2.094.655.655,0,1,1,0-1.311,4.02,4.02,0,0,1,3.962,3.243,33,33,0,0,1-.031,15.2,4.019,4.019,0,0,1-3.932,3.113h-12.9v10.038a.655.655,0,0,1-.657.656Z" transform="translate(-122.208 -62.742)" fill="#f9e5af"/>
      <path id="Trazado_1042126" data-name="Trazado 1042126" d="M59.506,58.4a.655.655,0,0,1-.655-.655V56.568a.655.655,0,0,1,1.311,0v1.175A.655.655,0,0,1,59.506,58.4Zm-.019-3.8a.655.655,0,0,1-.61-.7A11.405,11.405,0,0,1,70.23,43.293H83.711a2.732,2.732,0,0,0,2.729-2.729V23.057a2.713,2.713,0,0,0-2.1-2.656l-.176-.042a.655.655,0,1,1,.3-1.276l.176.041a4.019,4.019,0,0,1,3.112,3.932V40.563a4.044,4.044,0,0,1-4.04,4.04H70.23a10.092,10.092,0,0,0-10.046,9.388.655.655,0,0,1-.7.611Z" transform="translate(-42.057 -12.713)" fill="#c5e5ff"/>
      <path id="Trazado_1042127" data-name="Trazado 1042127" d="M67.456,68.528a7.716,7.716,0,0,0-7.5-5.937H49.839V59.558a.655.655,0,0,0-1.308-.005.009.009,0,0,0,0,.005v10.43a6.422,6.422,0,0,1-6.4,6.4H28.651A7.7,7.7,0,0,0,20.941,84.1V90.18H10.829A6.365,6.365,0,0,1,4.6,85.252a35.478,35.478,0,0,1-.792-4.658.656.656,0,1,0-1.305.134,36.746,36.746,0,0,0,.82,4.826,7.708,7.708,0,0,0,7.5,5.937H20.942V101.6a7.709,7.709,0,0,0,6.087,7.539,36.172,36.172,0,0,0,16.774-.01,7.714,7.714,0,0,0,6.039-7.528V91.491H52.99a.655.655,0,1,0,0-1.311h-17.6a.655.655,0,0,0,0,1.311h13.14V101.6a6.368,6.368,0,0,1-5.085,6.265,35.309,35.309,0,0,1-16.1,0,6.372,6.372,0,0,1-5.093-6.268V84.1a6.419,6.419,0,0,1,6.4-6.4H42.132a7.712,7.712,0,0,0,7.709-7.709V63.9H59.954a6.367,6.367,0,0,1,6.239,4.988.885.885,0,0,1,.021.089,35.306,35.306,0,0,1-.034,16.27,6.364,6.364,0,0,1-6.228,4.931h-1.72a.655.655,0,0,0,0,1.311h1.72a7.707,7.707,0,0,0,7.5-5.942c1.63-6.868,1.024-11.446,0-17.02Z" transform="translate(-0.478 -42.136)"/>
      <circle id="Elipse_12481" data-name="Elipse 12481" cx="0.655" cy="0.655" r="0.655" transform="translate(54.478 48.044)"/>
      <path id="Trazado_1042128" data-name="Trazado 1042128" d="M178.748,48.794a.655.655,0,1,0,.653.655.655.655,0,0,0-.653-.655Z" transform="translate(-130.04 -34.649)"/>
      <path id="Trazado_1042129" data-name="Trazado 1042129" d="M2.6,33.944a.655.655,0,0,0,.655-.621v-.005A35.193,35.193,0,0,1,4.189,26.7a6.364,6.364,0,0,1,6.228-4.931H34.978a.655.655,0,1,0,0-1.311H21.84V10.344a6.365,6.365,0,0,1,5.075-6.263,35.269,35.269,0,0,1,16.147.005,6.37,6.37,0,0,1,5.054,6.257v1.835a.657.657,0,0,0,1.313,0l0-1.835A7.707,7.707,0,0,0,43.309,2.8a36.612,36.612,0,0,0-16.7.008,7.714,7.714,0,0,0-6.084,7.539v10.11H10.417a7.717,7.717,0,0,0-7.544,6.1,36.78,36.78,0,0,0-.931,6.7.655.655,0,0,0,.655.685Z" transform="translate(-0.065)"/>
      <path id="Trazado_1042130" data-name="Trazado 1042130" d="M2.527,130.633a.657.657,0,0,0,.637-.674.648.648,0,0,0-.674-.637.656.656,0,0,0,.037,1.311Z" transform="translate(0 -94.068)"/>
      <path id="Trazado_1042131" data-name="Trazado 1042131" d="M95.192,34.08a2.86,2.86,0,1,0,2.86-2.86A2.86,2.86,0,0,0,95.192,34.08Zm4.409,0a1.549,1.549,0,1,1-1.549-1.549A1.549,1.549,0,0,1,99.6,34.08Z" transform="translate(-68.872 -21.681)"/>
      <path id="Trazado_1042132" data-name="Trazado 1042132" d="M144.659,205.805a2.86,2.86,0,1,0-2.86,2.86A2.86,2.86,0,0,0,144.659,205.805Zm-4.409,0a1.549,1.549,0,1,1,1.549,1.549A1.549,1.549,0,0,1,140.25,205.805Z" transform="translate(-101.152 -148.392)"/>
    </g>
  </g>
</svg>
