<svg xmlns="http://www.w3.org/2000/svg" xmlns:xlink="http://www.w3.org/1999/xlink" width="118" height="118" viewBox="0 0 118 118">
  <defs>
    <filter id="Trazado_982547" x="0" y="0" width="118" height="118" filterUnits="userSpaceOnUse">
      <feOffset dy="3" input="SourceAlpha"/>
      <feGaussianBlur stdDeviation="3" result="blur"/>
      <feFlood flood-opacity="0.161"/>
      <feComposite operator="in" in2="blur"/>
      <feComposite in="SourceGraphic"/>
    </filter>
  </defs>
  <g id="Grupo_1180877" data-name="Grupo 1180877" transform="translate(-741 -1256)">
    <g id="Grupo_1179137" data-name="Grupo 1179137" transform="translate(-2.25 571)">
      <g id="Grupo_1177987" data-name="Grupo 1177987" transform="translate(752.25 691)">
        <g id="Grupo_1177681" data-name="Grupo 1177681">
          <g id="Grupo_1172010" data-name="Grupo 1172010">
            <g id="Grupo_1171046" data-name="Grupo 1171046">
              <g id="Grupo_1148525" data-name="Grupo 1148525">
                <g transform="matrix(1, 0, 0, 1, -9, -6)" filter="url(#Trazado_982547)">
                  <g id="Trazado_982547-2" data-name="Trazado 982547" transform="translate(9 6)" fill="#fdf4ce">
                    <path d="M 50 98.5 C 43.45188522338867 98.5 37.10042953491211 97.21787261962891 31.12207221984863 94.68923950195312 C 25.34690093994141 92.24655914306641 20.15995788574219 88.74931335449219 15.70531463623047 84.29468536376953 C 11.2506856918335 79.84004211425781 7.753442764282227 74.65309906005859 5.310757160186768 68.8779296875 C 2.782128572463989 62.89957046508789 1.5 56.54811477661133 1.5 50 C 1.5 43.45188522338867 2.782128572463989 37.10042953491211 5.310757160186768 31.12207221984863 C 7.753442764282227 25.34691429138184 11.2506856918335 20.15997123718262 15.70531463623047 15.70532894134521 C 20.15995788574219 11.2506856918335 25.34690093994141 7.753442764282227 31.12207221984863 5.310757160186768 C 37.10042953491211 2.782128572463989 43.45188522338867 1.5 50 1.5 C 56.54811477661133 1.5 62.89957046508789 2.782128572463989 68.8779296875 5.310757160186768 C 74.65309906005859 7.753442764282227 79.84004211425781 11.2506856918335 84.29468536376953 15.70532894134521 C 88.74931335449219 20.15997123718262 92.24655914306641 25.34691429138184 94.68923950195312 31.12207221984863 C 97.21787261962891 37.10042953491211 98.5 43.45188522338867 98.5 50 C 98.5 56.54811477661133 97.21787261962891 62.89957046508789 94.68923950195312 68.8779296875 C 92.24655914306641 74.65309906005859 88.74931335449219 79.84004211425781 84.29468536376953 84.29468536376953 C 79.84004211425781 88.74931335449219 74.65309906005859 92.24655914306641 68.8779296875 94.68923950195312 C 62.89957046508789 97.21787261962891 56.54811477661133 98.5 50 98.5 Z" stroke="none"/>
                    <path d="M 50 3 C 43.65372467041016 3 37.49886322021484 4.242263793945312 31.70639801025391 6.6922607421875 C 26.11003112792969 9.059326171875 21.08333587646484 12.44861602783203 16.76598358154297 16.76598358154297 C 12.44861602783203 21.08335113525391 9.059326171875 26.11003112792969 6.6922607421875 31.70639801025391 C 4.242263793945312 37.49886322021484 3 43.65372467041016 3 50 C 3 56.34627532958984 4.242263793945312 62.50113677978516 6.6922607421875 68.29360198974609 C 9.059326171875 73.88996887207031 12.44861602783203 78.91666412353516 16.76598358154297 83.23401641845703 C 21.08333587646484 87.55138397216797 26.11003112792969 90.940673828125 31.70639801025391 93.3077392578125 C 37.49886322021484 95.75773620605469 43.65372467041016 97 50 97 C 56.34627532958984 97 62.50113677978516 95.75773620605469 68.29360198974609 93.3077392578125 C 73.88996887207031 90.940673828125 78.91664886474609 87.55138397216797 83.23401641845703 83.23401641845703 C 87.55138397216797 78.91666412353516 90.940673828125 73.88996887207031 93.3077392578125 68.29360198974609 C 95.75773620605469 62.50113677978516 97 56.34627532958984 97 50 C 97 43.65372467041016 95.75773620605469 37.49886322021484 93.3077392578125 31.70639801025391 C 90.940673828125 26.11003112792969 87.55138397216797 21.08335113525391 83.23401641845703 16.76598358154297 C 78.91664886474609 12.44861602783203 73.88996887207031 9.059326171875 68.29360198974609 6.6922607421875 C 62.50113677978516 4.242263793945312 56.34627532958984 3 50 3 M 50 0 C 77.61422729492188 0 100 22.38577270507812 100 50 C 100 77.61424255371094 77.61422729492188 100 50 100 C 22.38575744628906 100 0 77.61424255371094 0 50 C 0 22.38577270507812 22.38575744628906 0 50 0 Z" stroke="none" fill="#866d08"/>
                  </g>
                </g>
              </g>
            </g>
          </g>
        </g>
      </g>
    </g>
    <g id="Layer_x0020_1" transform="translate(764.675 1272.365)">
      <path id="Trazado_1042133" data-name="Trazado 1042133" d="M34.5,49.57,25.114,44.05a.811.811,0,0,1-.276-.69V36.6H12.557a3.188,3.188,0,0,0-3.312,3.312v4.968A8.234,8.234,0,0,1,16.7,52.192H34.5ZM62.232,61.3a8.376,8.376,0,0,1-8.279-7.589h-17.8v5.106h8.279a2.3,2.3,0,0,1,2.346,2.208V72.062a2.394,2.394,0,0,1-2.346,2.208H26.218a2.3,2.3,0,0,1-2.346-2.208V61.023a2.3,2.3,0,0,1,2.346-2.208H34.5V53.709H16.834a8.541,8.541,0,0,1-8.417,7.865,8.366,8.366,0,0,1-.828-16.7V39.911a4.947,4.947,0,0,1,4.968-4.968H24.838v-2.76a1.054,1.054,0,0,1,.276-.69L34.5,26.112V20.593H26.218a2.418,2.418,0,0,1-2.346-2.346V7.208A2.3,2.3,0,0,1,26.218,5H44.432a2.3,2.3,0,0,1,2.346,2.208V18.247a2.522,2.522,0,0,1-2.346,2.346H36.153v5.519L45.4,31.493c.276.276.414.414.414.69v2.76H58.092a4.947,4.947,0,0,1,4.968,4.968V44.6a8.366,8.366,0,0,1-.828,16.7Zm-8.279-9.107A8.26,8.26,0,0,1,61.4,44.6V39.911A3.188,3.188,0,0,0,58.092,36.6H45.812V43.36c0,.414-.138.69-.414.69L36.153,49.57v2.622Zm8.279-6.071a6.761,6.761,0,1,0,0,13.523,6.745,6.745,0,0,0,6.761-6.623A6.892,6.892,0,0,0,62.232,46.12Zm3.174,10.349H59.2a.8.8,0,0,1-.828-.828.732.732,0,0,1,.828-.828h6.209a.8.8,0,0,1,.828.828A.89.89,0,0,1,65.406,56.469Zm-1.1-2.76h-4.14c-.552,0-.828-.276-.828-.69a.732.732,0,0,1,.828-.828H64.3a.732.732,0,0,1,.828.828C65.13,53.433,64.854,53.709,64.3,53.709Zm1.1-2.484H59.2a.828.828,0,1,1,0-1.656h6.209a.828.828,0,0,1,0,1.656ZM8.417,46.534a6.693,6.693,0,1,0,0,13.385,6.863,6.863,0,0,0,6.761-6.761A6.745,6.745,0,0,0,8.417,46.534Zm3.036,10.073H5.244a.8.8,0,0,1-.828-.828.773.773,0,0,1,.828-.69h6.209c.552,0,.828.276.828.69A.732.732,0,0,1,11.453,56.607Zm-.966-2.484H6.347a.8.8,0,0,1-.828-.828.732.732,0,0,1,.828-.828h4.14a.732.732,0,0,1,.828.828A.89.89,0,0,1,10.487,54.123Zm.966-2.76H5.244a.773.773,0,0,1-.828-.69.8.8,0,0,1,.828-.828h6.209a.732.732,0,0,1,.828.828C12.281,51.088,12,51.364,11.453,51.364Zm24.838,19.87H32.427a.8.8,0,0,1-.828-.828V66.68c-.138,0-.138-.138-.138-.276V62.817a.89.89,0,0,1,.828-.828h3.588a2.743,2.743,0,0,1,2.76,2.622,2.893,2.893,0,0,1-.552,1.518,2.881,2.881,0,0,1,1.1,2.208A2.83,2.83,0,0,1,36.291,71.234Zm-3.174-5.657h3.174a1.162,1.162,0,0,0,.552-.966.943.943,0,0,0-.966-.966h-2.76Zm0,4h3.174a1.237,1.237,0,0,0,1.242-1.242,1.217,1.217,0,0,0-1.242-1.1H33.117Zm-6.9-9.107a.631.631,0,0,0-.69.552V72.062a.739.739,0,0,0,.69.69H44.432a.739.739,0,0,0,.69-.69V61.023a.631.631,0,0,0-.69-.552Zm9.107-41.534h9.107a.652.652,0,0,0,.69-.69V7.208a.631.631,0,0,0-.69-.552H26.218a.652.652,0,0,0-.69.69v10.9a.652.652,0,0,0,.69.69Zm1.518-4.416h-2.9l-1.1,2.622a.834.834,0,0,1-.828.414h-.276a.869.869,0,0,1-.414-1.1l3.312-8a.917.917,0,0,1,.69-.552.932.932,0,0,1,.828.552l3.174,8a.763.763,0,0,1-.414,1.1.869.869,0,0,1-1.1-.414Zm-2.208-1.656h1.518l-.828-1.932Zm6.071,25.8H35.739a.828.828,0,1,1,0-1.656h4.968a.828.828,0,1,1,0,1.656Zm-8.417,0H29.943a.828.828,0,1,1,0-1.656h2.346a.828.828,0,0,1,0,1.656Zm8.417,3.726H38.222a.773.773,0,0,1-.69-.828c0-.552.276-.828.69-.828h2.484a.8.8,0,0,1,.828.828A.89.89,0,0,1,40.706,42.394Zm-5.933,0h-4.83a.8.8,0,0,1-.828-.828.732.732,0,0,1,.828-.828h4.83a.732.732,0,0,1,.828.828A.8.8,0,0,1,34.773,42.394Zm5.933-7.451H37.532a.732.732,0,0,1-.828-.828c0-.414.276-.69.828-.69h3.174a.773.773,0,0,1,.828.69A.8.8,0,0,1,40.706,34.943Zm-6.623,0h-4.14a.732.732,0,0,1-.828-.828c0-.414.276-.69.828-.69h4.14a.652.652,0,0,1,.69.69C34.773,34.667,34.5,34.943,34.083,34.943Zm-15.868-6.9H13.109a.828.828,0,1,1,0-1.656h5.106a.828.828,0,0,1,0,1.656Zm-1.656-3.588h-3.45a.732.732,0,0,1-.828-.828.8.8,0,0,1,.828-.828h3.45a.89.89,0,0,1,.828.828A.8.8,0,0,1,16.558,24.456Zm1.656-3.588H13.109a.732.732,0,0,1-.828-.828c0-.414.276-.69.828-.69h5.106a.773.773,0,0,1,.828.69A.8.8,0,0,1,18.214,20.868Zm37.256,3.588h-3.45a.732.732,0,0,1-.828-.828.8.8,0,0,1,.828-.828h3.45a.89.89,0,0,1,.828.828A.8.8,0,0,1,55.471,24.456Zm1.656-3.588H52.021a.732.732,0,0,1-.828-.828c0-.414.276-.69.828-.69h5.106a.773.773,0,0,1,.828.69A.8.8,0,0,1,57.127,20.868Zm0,7.175H52.021a.828.828,0,1,1,0-1.656h5.106a.828.828,0,1,1,0,1.656Zm-30.633,14.9,8.831,5.106,8.969-5.106V32.735L35.325,27.63l-8.831,5.106Z" transform="translate(0 0)" fill-rule="evenodd"/>
      <path id="Trazado_1042134" data-name="Trazado 1042134" d="M203.729,182.109h2.484a.8.8,0,0,1,.828.828.89.89,0,0,1-.828.828h-2.484a.773.773,0,0,1-.69-.828C203.039,182.385,203.315,182.109,203.729,182.109ZM192,184.317l8.831,5.106,8.969-5.106V174.106L200.831,169,192,174.106Zm14.213-4.278h-4.968a.828.828,0,0,1,0-1.656h4.968a.828.828,0,0,1,0,1.656Zm-8.417,0H195.45a.828.828,0,0,1,0-1.656H197.8a.828.828,0,0,1,0,1.656Zm2.484,2.07a.732.732,0,0,1,.828.828.8.8,0,0,1-.828.828h-4.83a.8.8,0,0,1-.828-.828.732.732,0,0,1,.828-.828Zm5.933-5.8h-3.174a.732.732,0,0,1-.828-.828c0-.414.276-.69.828-.69h3.174a.773.773,0,0,1,.828.69A.8.8,0,0,1,206.213,176.313Zm-6.623,0h-4.14a.732.732,0,0,1-.828-.828c0-.414.276-.69.828-.69h4.14a.652.652,0,0,1,.69.69C200.279,176.037,200,176.313,199.589,176.313Z" transform="translate(-165.507 -141.37)" fill="#74abca" fill-rule="evenodd"/>
      <path id="Trazado_1042135" data-name="Trazado 1042135" d="M194.8,29.281H203.9a.652.652,0,0,0,.69-.69V17.552A.631.631,0,0,0,203.9,17H185.69a.652.652,0,0,0-.69.69v10.9a.652.652,0,0,0,.69.69Zm.828-10.487,3.174,8a.763.763,0,0,1-.414,1.1.869.869,0,0,1-1.1-.414l-.966-2.622h-2.9l-1.1,2.622a.834.834,0,0,1-.828.414h-.276a.869.869,0,0,1-.414-1.1l3.312-8a.917.917,0,0,1,.69-.552A.932.932,0,0,1,195.625,18.794Z" transform="translate(-159.472 -10.344)" fill="#df8ece" fill-rule="evenodd"/>
      <path id="Trazado_1042136" data-name="Trazado 1042136" d="M251,49.932h1.518L251.69,48Z" transform="translate(-216.365 -37.067)" fill="#df8ece" fill-rule="evenodd"/>
      <path id="Trazado_1042137" data-name="Trazado 1042137" d="M25.523,312.623a6.761,6.761,0,1,0-6.761,6.761A6.863,6.863,0,0,0,25.523,312.623Zm-9.935,1.932H21.8c.552,0,.828.276.828.69a.732.732,0,0,1-.828.828H15.588a.8.8,0,0,1-.828-.828A.773.773,0,0,1,15.588,314.555Zm6.071-1.794a.89.89,0,0,1-.828.828h-4.14a.8.8,0,0,1-.828-.828.732.732,0,0,1,.828-.828h4.14A.732.732,0,0,1,21.659,312.761Zm.138-1.932H15.588a.773.773,0,0,1-.828-.69.8.8,0,0,1,.828-.828H21.8a.732.732,0,0,1,.828.828C22.625,310.554,22.349,310.83,21.8,310.83Z" transform="translate(-10.344 -259.466)" fill="#ab7edb" fill-rule="evenodd"/>
      <g id="Grupo_1180390" data-name="Grupo 1180390" transform="translate(25.528 60.471)">
        <path id="Trazado_1042138" data-name="Trazado 1042138" d="M185,407.552v11.039a.739.739,0,0,0,.69.69H203.9a.739.739,0,0,0,.69-.69V407.552a.631.631,0,0,0-.69-.552H185.69A.631.631,0,0,0,185,407.552Zm6.071,9.383v-3.726c-.138,0-.138-.138-.138-.276v-3.588a.89.89,0,0,1,.828-.828h3.588a2.743,2.743,0,0,1,2.76,2.622,2.594,2.594,0,0,0,.552,3.726,2.83,2.83,0,0,1-2.9,2.9H191.9A.8.8,0,0,1,191.071,416.935Z" transform="translate(-185 -407)" fill="#74abca" fill-rule="evenodd"/>
        <path id="Trazado_1042139" data-name="Trazado 1042139" d="M240,456v2.346h3.174a1.237,1.237,0,0,0,1.242-1.242,1.217,1.217,0,0,0-1.242-1.1H240Z" transform="translate(-232.411 -449.239)" fill="#74abca" fill-rule="evenodd"/>
        <path id="Trazado_1042140" data-name="Trazado 1042140" d="M240,431.932h3.174a1.162,1.162,0,0,0,.552-.966.943.943,0,0,0-.966-.966H240Z" transform="translate(-232.411 -426.826)" fill="#74abca" fill-rule="evenodd"/>
      </g>
      <path id="Trazado_1042141" data-name="Trazado 1042141" d="M402,309.761a6.863,6.863,0,0,0,6.761,6.761,6.745,6.745,0,0,0,6.761-6.623A6.762,6.762,0,1,0,402,309.761Zm9.935,3.588h-6.209a.8.8,0,0,1-.828-.828.732.732,0,0,1,.828-.828h6.209a.8.8,0,0,1,.828.828A.89.89,0,0,1,411.935,313.349Zm-1.1-2.76h-4.14c-.552,0-.828-.276-.828-.69a.732.732,0,0,1,.828-.828h4.14a.732.732,0,0,1,.828.828C411.659,310.313,411.383,310.589,410.831,310.589Zm1.1-2.484h-6.209a.828.828,0,1,1,0-1.656h6.209a.828.828,0,1,1,0,1.656Z" transform="translate(-346.529 -256.88)" fill="#ab7edb" fill-rule="evenodd"/>
    </g>
  </g>
</svg>
