<svg xmlns="http://www.w3.org/2000/svg" xmlns:xlink="http://www.w3.org/1999/xlink" width="118" height="118" viewBox="0 0 118 118">
  <defs>
    <filter id="Trazado_982547" x="0" y="0" width="118" height="118" filterUnits="userSpaceOnUse">
      <feOffset dy="3" input="SourceAlpha"/>
      <feGaussianBlur stdDeviation="3" result="blur"/>
      <feFlood flood-opacity="0.161"/>
      <feComposite operator="in" in2="blur"/>
      <feComposite in="SourceGraphic"/>
    </filter>
  </defs>
  <g id="Grupo_1180878" data-name="Grupo 1180878" transform="translate(-1161 -1256)">
    <g id="Grupo_1179136" data-name="Grupo 1179136" transform="translate(1170 1262)">
      <g id="Grupo_1177985" data-name="Grupo 1177985">
        <g id="Grupo_1177680" data-name="Grupo 1177680">
          <g id="Grupo_1172010" data-name="Grupo 1172010">
            <g id="Grupo_1171046" data-name="Grupo 1171046">
              <g id="Grupo_1148525" data-name="Grupo 1148525">
                <g transform="matrix(1, 0, 0, 1, -9, -6)" filter="url(#Trazado_982547)">
                  <g id="Trazado_982547-2" data-name="Trazado 982547" transform="translate(9 6)" fill="#fdf4ce">
                    <path d="M 50 98.5 C 43.45188522338867 98.5 37.10042953491211 97.21787261962891 31.12207221984863 94.68923950195312 C 25.34690093994141 92.24655914306641 20.15995788574219 88.74931335449219 15.70531463623047 84.29468536376953 C 11.2506856918335 79.84004211425781 7.753442764282227 74.65309906005859 5.310757160186768 68.8779296875 C 2.782128572463989 62.89957046508789 1.5 56.54811477661133 1.5 50 C 1.5 43.45188522338867 2.782128572463989 37.10042953491211 5.310757160186768 31.12207221984863 C 7.753442764282227 25.34691429138184 11.2506856918335 20.15997123718262 15.70531463623047 15.70532894134521 C 20.15995788574219 11.2506856918335 25.34690093994141 7.753442764282227 31.12207221984863 5.310757160186768 C 37.10042953491211 2.782128572463989 43.45188522338867 1.5 50 1.5 C 56.54811477661133 1.5 62.89957046508789 2.782128572463989 68.8779296875 5.310757160186768 C 74.65309906005859 7.753442764282227 79.84004211425781 11.2506856918335 84.29468536376953 15.70532894134521 C 88.74931335449219 20.15997123718262 92.24655914306641 25.34691429138184 94.68923950195312 31.12207221984863 C 97.21787261962891 37.10042953491211 98.5 43.45188522338867 98.5 50 C 98.5 56.54811477661133 97.21787261962891 62.89957046508789 94.68923950195312 68.8779296875 C 92.24655914306641 74.65309906005859 88.74931335449219 79.84004211425781 84.29468536376953 84.29468536376953 C 79.84004211425781 88.74931335449219 74.65309906005859 92.24655914306641 68.8779296875 94.68923950195312 C 62.89957046508789 97.21787261962891 56.54811477661133 98.5 50 98.5 Z" stroke="none"/>
                    <path d="M 50 3 C 43.65372467041016 3 37.49886322021484 4.242263793945312 31.70639801025391 6.6922607421875 C 26.11003112792969 9.059326171875 21.08333587646484 12.44861602783203 16.76598358154297 16.76598358154297 C 12.44861602783203 21.08335113525391 9.059326171875 26.11003112792969 6.6922607421875 31.70639801025391 C 4.242263793945312 37.49886322021484 3 43.65372467041016 3 50 C 3 56.34627532958984 4.242263793945312 62.50113677978516 6.6922607421875 68.29360198974609 C 9.059326171875 73.88996887207031 12.44861602783203 78.91666412353516 16.76598358154297 83.23401641845703 C 21.08333587646484 87.55138397216797 26.11003112792969 90.940673828125 31.70639801025391 93.3077392578125 C 37.49886322021484 95.75773620605469 43.65372467041016 97 50 97 C 56.34627532958984 97 62.50113677978516 95.75773620605469 68.29360198974609 93.3077392578125 C 73.88996887207031 90.940673828125 78.91664886474609 87.55138397216797 83.23401641845703 83.23401641845703 C 87.55138397216797 78.91666412353516 90.940673828125 73.88996887207031 93.3077392578125 68.29360198974609 C 95.75773620605469 62.50113677978516 97 56.34627532958984 97 50 C 97 43.65372467041016 95.75773620605469 37.49886322021484 93.3077392578125 31.70639801025391 C 90.940673828125 26.11003112792969 87.55138397216797 21.08335113525391 83.23401641845703 16.76598358154297 C 78.91664886474609 12.44861602783203 73.88996887207031 9.059326171875 68.29360198974609 6.6922607421875 C 62.50113677978516 4.242263793945312 56.34627532958984 3 50 3 M 50 0 C 77.61422729492188 0 100 22.38577270507812 100 50 C 100 77.61424255371094 77.61422729492188 100 50 100 C 22.38575744628906 100 0 77.61424255371094 0 50 C 0 22.38577270507812 22.38575744628906 0 50 0 Z" stroke="none" fill="#866d08"/>
                  </g>
                </g>
              </g>
            </g>
          </g>
        </g>
      </g>
    </g>
    <g id="software_5432836" transform="translate(1184.753 1252.708)">
      <g id="Layer_1" transform="translate(3.478 32.38)">
        <path id="Trazado_1042142" data-name="Trazado 1042142" d="M77.319,76.44v32.676H22.86V76.44a2.591,2.591,0,0,1,2.59-2.59h5.688V96.081a1.3,1.3,0,0,0,1.295,1.295H67.745a1.3,1.3,0,0,0,1.295-1.295V73.85h5.689A2.591,2.591,0,0,1,77.319,76.44Z" transform="translate(-18.321 -63.11)" fill="#aeaeae"/>
        <path id="Trazado_1042143" data-name="Trazado 1042143" d="M89.351,73.85V96.081a3.11,3.11,0,0,1-3.108,3.108H50.931a3.11,3.11,0,0,1-3.108-3.108V73.85h1.813V96.081a1.3,1.3,0,0,0,1.295,1.295H86.243a1.3,1.3,0,0,0,1.295-1.295V73.85Z" transform="translate(-36.819 -63.11)" fill="#878787"/>
        <path id="Trazado_1042144" data-name="Trazado 1042144" d="M22.86,203.016H77.319v1.813H22.86Z" transform="translate(-18.321 -158.824)" fill="#868686"/>
        <path id="Trazado_1042145" data-name="Trazado 1042145" d="M63.69,217.191H10.513a5.18,5.18,0,0,1-5.18-5.18v-1.473a.518.518,0,0,1,.518-.518h62.5a.518.518,0,0,1,.518.518v1.473A5.179,5.179,0,0,1,63.69,217.191Z" transform="translate(-5.333 -164.015)" fill="#aeaeae"/>
        <path id="Trazado_1042146" data-name="Trazado 1042146" d="M83.908,88.038V115.19a.519.519,0,0,1-.518.518H37.048a.519.519,0,0,1-.518-.518V88.038a.519.519,0,0,1,.518-.518h4.22v18.691a1.3,1.3,0,0,0,1.295,1.295H77.875a1.3,1.3,0,0,0,1.295-1.295V87.52H83.39a.519.519,0,0,1,.518.518Z" transform="translate(-28.451 -73.24)" fill="#f0c020"/>
        <path id="Trazado_1042147" data-name="Trazado 1042147" d="M89.351,87.52v18.691a3.11,3.11,0,0,1-3.108,3.108H50.931a3.11,3.11,0,0,1-3.108-3.108V87.52h1.813v18.691a1.3,1.3,0,0,0,1.295,1.295H86.243a1.3,1.3,0,0,0,1.295-1.295V87.52Z" transform="translate(-36.819 -73.24)" fill="#e8a61e"/>
        <path id="Trazado_1042148" data-name="Trazado 1042148" d="M92.722,64V88.782a1.3,1.3,0,0,1-1.295,1.295H56.115a1.3,1.3,0,0,1-1.295-1.295V64Z" transform="translate(-42.004 -55.811)" fill="#efefef"/>
        <path id="Trazado_1042149" data-name="Trazado 1042149" d="M92.722,41.875v4.77H54.82v-4.77a1.3,1.3,0,0,1,1.295-1.295H91.427A1.3,1.3,0,0,1,92.722,41.875Z" transform="translate(-42.004 -38.456)" fill="#72c2e9"/>
        <path id="Trazado_1042150" data-name="Trazado 1042150" d="M220.7,36.6c1.61.532,1.793,1.319,2.069,2.51a.641.641,0,0,0,1.248,0c.459-1.978,1.134-2.2,2.069-2.51a.641.641,0,0,0,0-1.216c-.9-.3-1.6-.487-2.069-2.51a.641.641,0,0,0-1.248,0c-.459,1.978-1.1,2.19-2.069,2.51A.641.641,0,0,0,220.7,36.6Z" transform="translate(-164.598 -32.38)"/>
        <g id="Grupo_1180392" data-name="Grupo 1180392" transform="translate(57.804 2.509)">
          <path id="Trazado_1042151" data-name="Trazado 1042151" d="M230.481,43.174a3.149,3.149,0,0,0-.948,1.07,3.318,3.318,0,0,0-1-1.059,3.166,3.166,0,0,0,.992-1.119A3.29,3.29,0,0,0,230.481,43.174Z" transform="translate(-228.531 -42.066)" fill="#f0c020"/>
        </g>
        <path id="Trazado_1042152" data-name="Trazado 1042152" d="M12,36.6c1.61.532,1.793,1.319,2.069,2.51a.641.641,0,0,0,1.248,0c.459-1.978,1.134-2.2,2.069-2.51a.641.641,0,0,0,0-1.216c-.9-.3-1.6-.487-2.069-2.51a.641.641,0,0,0-1.248,0c-.459,1.978-1.1,2.19-2.069,2.51A.641.641,0,0,0,12,36.6Z" transform="translate(-9.946 -32.38)"/>
        <g id="Grupo_1180393" data-name="Grupo 1180393" transform="translate(3.754 2.509)">
          <path id="Trazado_1042153" data-name="Trazado 1042153" d="M21.779,43.174a3.149,3.149,0,0,0-.948,1.07,3.318,3.318,0,0,0-1-1.059,3.166,3.166,0,0,0,.992-1.119A3.29,3.29,0,0,0,21.779,43.174Z" transform="translate(-19.829 -42.066)" fill="#f0c020"/>
        </g>
      </g>
      <g id="Layer_2" transform="translate(2.83 33.856)">
        <g id="Grupo_1180394" data-name="Grupo 1180394" transform="translate(5.18 48.463)">
          <path id="Trazado_1042154" data-name="Trazado 1042154" d="M76.658,226.5h-.777a.647.647,0,1,1,0-1.295h.777a.647.647,0,1,1,0,1.295Zm-3.367,0H23.48a.647.647,0,1,1,0-1.295H73.291a.647.647,0,0,1,0,1.295Z" transform="translate(-22.833 -225.208)" fill="#efefef"/>
        </g>
        <g id="Grupo_1180395" data-name="Grupo 1180395" transform="translate(10.67 37.754)">
          <path id="Trazado_1042155" data-name="Trazado 1042155" d="M86.876,185.155H48.044a.647.647,0,1,1,0-1.295H86.876a.647.647,0,1,1,0,1.295Zm-41.421,0h-.777a.647.647,0,1,1,0-1.295h.777a.647.647,0,0,1,0,1.295Z" transform="translate(-44.03 -183.86)" fill="#f8e5b0"/>
        </g>
        <g id="Grupo_1180396" data-name="Grupo 1180396" transform="translate(15.408 8.267)">
          <path id="Trazado_1042156" data-name="Trazado 1042156" d="M95.693,92.581H66.337a.647.647,0,1,1,0-1.295H95.045V70.647a.647.647,0,0,1,1.295,0V91.933A.647.647,0,0,1,95.693,92.581Zm-31.945,0H62.97a.647.647,0,0,1,0-1.295h.777a.647.647,0,1,1,0,1.295Z" transform="translate(-62.323 -70)" fill="#fff"/>
        </g>
        <circle id="Elipse_12482" data-name="Elipse 12482" cx="0.647" cy="0.647" r="0.647" transform="translate(30.13 51.053)"/>
        <path id="Trazado_1042157" data-name="Trazado 1042157" d="M66.5,81.962H63.123V49.934A3.241,3.241,0,0,0,59.886,46.7H54.844V40.022A1.944,1.944,0,0,0,52.9,38.08H17.589a1.944,1.944,0,0,0-1.942,1.942V46.7h-5.04A3.242,3.242,0,0,0,7.37,49.934V61.891a.647.647,0,0,0,1.295,0V49.934a1.95,1.95,0,0,1,1.942-1.942h5.04v2.245H12.076A1.167,1.167,0,0,0,10.91,51.4V78.554a1.167,1.167,0,0,0,1.165,1.165H58.418a1.167,1.167,0,0,0,1.165-1.165V51.4a1.167,1.167,0,0,0-1.165-1.165H54.844V47.991h5.042a1.944,1.944,0,0,1,1.942,1.942V81.962H8.665V67.07a.647.647,0,1,0-1.295,0V81.962H4A1.167,1.167,0,0,0,2.83,83.127V84.6a5.836,5.836,0,0,0,5.827,5.827h22.36a.647.647,0,1,0,0-1.295H8.657A4.551,4.551,0,0,1,4.125,84.6V83.257H27.293v.615a1.944,1.944,0,0,0,1.942,1.942H41.259A1.944,1.944,0,0,0,43.2,83.872v-.615H66.369V84.6a4.551,4.551,0,0,1-4.532,4.532H36.2a.647.647,0,1,0,0,1.295H61.837A5.836,5.836,0,0,0,67.664,84.6V83.127A1.168,1.168,0,0,0,66.5,81.962ZM17.589,39.375H52.9a.648.648,0,0,1,.647.647v4.123H16.942V40.022A.648.648,0,0,1,17.589,39.375Zm-.647,11.518s0-.006,0-.009,0-.006,0-.009V45.44H53.549V69.575a.648.648,0,0,1-.647.647H17.589a.648.648,0,0,1-.647-.647Zm41.346.639V78.424H12.205V51.531h3.442V69.575a1.944,1.944,0,0,0,1.942,1.942H52.9a1.944,1.944,0,0,0,1.942-1.942V51.531ZM41.906,83.872a.648.648,0,0,1-.647.647H29.235a.648.648,0,0,1-.647-.647v-.615H41.906Z" transform="translate(-2.83 -38.08)"/>
        <circle id="Elipse_12483" data-name="Elipse 12483" cx="0.647" cy="0.647" r="0.647" transform="translate(4.54 25.753)"/>
        <path id="Trazado_1042158" data-name="Trazado 1042158" d="M187.6,51.083h.447a.647.647,0,1,0,0-1.295H187.6a.647.647,0,0,0,0,1.295Z" transform="translate(-139.266 -46.756)"/>
        <path id="Trazado_1042159" data-name="Trazado 1042159" d="M174.326,51.083h.446a.647.647,0,0,0,0-1.295h-.446a.647.647,0,0,0,0,1.295Z" transform="translate(-129.432 -46.756)"/>
        <path id="Trazado_1042160" data-name="Trazado 1042160" d="M161.055,51.083h.446a.647.647,0,0,0,0-1.295h-.446a.647.647,0,0,0,0,1.295Z" transform="translate(-119.598 -46.756)"/>
        <path id="Trazado_1042161" data-name="Trazado 1042161" d="M62.974,51.085H75.166a.647.647,0,0,0,0-1.295H62.974a.647.647,0,1,0,0,1.295Z" transform="translate(-46.918 -46.757)"/>
        <path id="Trazado_1042162" data-name="Trazado 1042162" d="M74.753,101.781a.647.647,0,0,0,.916-.915l-3.98-3.98,3.98-3.98a.647.647,0,0,0-.916-.915l-4.438,4.438a.647.647,0,0,0,0,.915Z" transform="translate(-52.697 -77.888)"/>
        <path id="Trazado_1042163" data-name="Trazado 1042163" d="M163.929,101.782a.647.647,0,0,0,.916,0l4.438-4.438a.647.647,0,0,0,0-.915l-4.438-4.438a.647.647,0,0,0-.916.915l3.98,3.98-3.98,3.98A.647.647,0,0,0,163.929,101.782Z" transform="translate(-122.067 -77.888)"/>
        <path id="Trazado_1042164" data-name="Trazado 1042164" d="M104.568,89.9a2.99,2.99,0,0,0,2.986-2.986V85.268a2.986,2.986,0,0,0-5.973,0v1.647A2.99,2.99,0,0,0,104.568,89.9Zm-1.691-4.633a1.691,1.691,0,0,1,3.383,0v1.647a1.691,1.691,0,0,1-3.383,0Z" transform="translate(-76.007 -70.835)"/>
        <path id="Trazado_1042165" data-name="Trazado 1042165" d="M131.993,88.6a.647.647,0,0,0,0,1.295h4.678a.647.647,0,0,0,0-1.295H134.98V82.927a.648.648,0,0,0-1.056-.5l-2.339,1.9a.647.647,0,0,0,.817,1.005l1.283-1.042V88.6h-1.692Z" transform="translate(-98.063 -70.832)"/>
        <path id="Trazado_1042166" data-name="Trazado 1042166" d="M102.23,124.607h4.678a.647.647,0,0,0,0-1.295h-1.691v-5.677a.647.647,0,0,0-1.056-.5l-2.339,1.9a.647.647,0,1,0,.817,1.005l1.283-1.042v4.317h-1.691a.647.647,0,0,0,0,1.295Z" transform="translate(-76.008 -96.552)"/>
        <path id="Trazado_1042167" data-name="Trazado 1042167" d="M134.332,124.607a2.99,2.99,0,0,0,2.986-2.986v-1.647a2.986,2.986,0,1,0-5.973,0v1.647A2.99,2.99,0,0,0,134.332,124.607Zm-1.691-4.633a1.691,1.691,0,0,1,3.383,0v1.647a1.691,1.691,0,0,1-3.383,0Z" transform="translate(-98.063 -96.552)"/>
      </g>
    </g>
  </g>
</svg>
