<svg xmlns="http://www.w3.org/2000/svg" xmlns:xlink="http://www.w3.org/1999/xlink" width="108" height="108" viewBox="0 0 108 108">
  <defs>
    <filter id="Trazado_904820" x="0" y="0" width="108" height="108" filterUnits="userSpaceOnUse">
      <feOffset dy="3" input="SourceAlpha"/>
      <feGaussianBlur stdDeviation="3" result="blur"/>
      <feFlood flood-opacity="0.161"/>
      <feComposite operator="in" in2="blur"/>
      <feComposite in="SourceGraphic"/>
    </filter>
  </defs>
  <g id="Grupo_1178464" data-name="Grupo 1178464" transform="translate(9 6)">
    <g id="Grupo_1173585" data-name="Grupo 1173585" transform="translate(0 0)">
      <g id="Grupo_1173428" data-name="Grupo 1173428">
        <g id="Grupo_1171958" data-name="Grupo 1171958">
          <g id="Grupo_1167341" data-name="Grupo 1167341">
            <g id="Grupo_1166792" data-name="Grupo 1166792">
              <g transform="matrix(1, 0, 0, 1, -9, -6)" filter="url(#Trazado_904820)">
                <g id="Trazado_904820-2" data-name="Trazado 904820" transform="translate(9 6)" fill="#e5fdfa">
                  <path d="M 44.99999618530273 88.49999237060547 C 39.12687301635742 88.49999237060547 33.43022155761719 87.35006713867188 28.06829643249512 85.08216857910156 C 22.88852119445801 82.89130401611328 18.23629570007324 79.75457763671875 14.24084663391113 75.75914001464844 C 10.24540901184082 71.76369476318359 7.108683586120605 67.11146545410156 4.917821407318115 61.93169403076172 C 2.649921178817749 56.56976699829102 1.499996185302734 50.87311553955078 1.499996185302734 44.99999237060547 C 1.499996185302734 39.12686920166016 2.649921178817749 33.43021774291992 4.917821407318115 28.06829261779785 C 7.108683586120605 22.88851737976074 10.24540901184082 18.23630523681641 14.24084663391113 14.24085521697998 C 18.23629570007324 10.24540519714355 22.88852119445801 7.108692169189453 28.06829643249512 4.917829990386963 C 33.43022155761719 2.649929761886597 39.12687301635742 1.500004887580872 44.99999618530273 1.500004887580872 C 50.87311935424805 1.500004887580872 56.56977081298828 2.649929761886597 61.93169784545898 4.917829990386963 C 67.11147308349609 7.108692169189453 71.76369476318359 10.24540519714355 75.75914764404297 14.24085521697998 C 79.75458526611328 18.23630523681641 82.89131164550781 22.88851737976074 85.08216857910156 28.06829261779785 C 87.35007476806641 33.43021774291992 88.5 39.12686920166016 88.5 44.99999237060547 C 88.5 50.87311553955078 87.35007476806641 56.56976699829102 85.08216857910156 61.93169403076172 C 82.89131164550781 67.11146545410156 79.75458526611328 71.76369476318359 75.75914764404297 75.75914001464844 C 71.76369476318359 79.75457763671875 67.11147308349609 82.89130401611328 61.93169784545898 85.08216857910156 C 56.56977081298828 87.35006713867188 50.87311935424805 88.49999237060547 44.99999618530273 88.49999237060547 Z" stroke="none"/>
                  <path d="M 44.99999618530273 2.999992370605469 C 39.32870864868164 2.999992370605469 33.82865142822266 4.11004638671875 28.65262603759766 6.299331665039062 C 23.65165710449219 8.414566040039062 19.15968322753906 11.44333648681641 15.301513671875 15.30150604248047 C 11.44333648681641 19.15967559814453 8.414566040039062 23.65164947509766 6.299339294433594 28.65262222290039 C 4.110054016113281 33.82864761352539 2.999992370605469 39.32870483398438 2.999992370605469 44.99999237060547 C 2.999992370605469 50.67127990722656 4.110054016113281 56.17132186889648 6.299339294433594 61.34736633300781 C 8.414566040039062 66.34833526611328 11.44333648681641 70.84029388427734 15.301513671875 74.69846343994141 C 19.15968322753906 78.55663299560547 23.65165710449219 81.58540344238281 28.65262603759766 83.70063781738281 C 33.82865142822266 85.88992309570312 39.32870864868164 86.99997711181641 44.99999618530273 86.99997711181641 C 50.67128372192383 86.99997711181641 56.17134094238281 85.88992309570312 61.34736633300781 83.70063781738281 C 66.34834289550781 81.58540344238281 70.84030914306641 78.55663299560547 74.69847869873047 74.69846343994141 C 78.55665588378906 70.84029388427734 81.58542633056641 66.34833526611328 83.70065307617188 61.34736633300781 C 85.88993835449219 56.17132186889648 87 50.67127990722656 87 44.99999237060547 C 87 39.32870483398438 85.88993835449219 33.82864761352539 83.70065307617188 28.65262222290039 C 81.58542633056641 23.65164947509766 78.55665588378906 19.15967559814453 74.69847869873047 15.30150604248047 C 70.84030914306641 11.44333648681641 66.34834289550781 8.414566040039062 61.34736633300781 6.299331665039062 C 56.17134094238281 4.11004638671875 50.67128372192383 2.999992370605469 44.99999618530273 2.999992370605469 M 44.99999618530273 -7.62939453125e-06 C 69.85281372070312 -7.62939453125e-06 90 20.14717864990234 90 44.99999237060547 C 90 69.85279083251953 69.85281372070312 89.99997711181641 44.99999618530273 89.99997711181641 C 20.14717864990234 89.99997711181641 -7.62939453125e-06 69.85279083251953 -7.62939453125e-06 44.99999237060547 C -7.62939453125e-06 20.14717864990234 20.14717864990234 -7.62939453125e-06 44.99999618530273 -7.62939453125e-06 Z" stroke="none" fill="#098576"/>
                </g>
              </g>
            </g>
          </g>
        </g>
      </g>
    </g>
    <g id="Layer_x0020_1" transform="translate(11.08 6.743)">
      <path id="Trazado_1042133" data-name="Trazado 1042133" d="M33.125,47.8l-9.01-5.3a.779.779,0,0,1-.265-.662V35.342H12.057a3.062,3.062,0,0,0-3.18,3.18v4.77a7.906,7.906,0,0,1,7.155,7.022H33.125ZM59.757,59.06a8.042,8.042,0,0,1-7.95-7.287H34.715v4.9h7.95a2.208,2.208,0,0,1,2.252,2.12v10.6a2.3,2.3,0,0,1-2.252,2.12H25.175a2.208,2.208,0,0,1-2.252-2.12v-10.6a2.208,2.208,0,0,1,2.252-2.12h7.95v-4.9H16.165a8.2,8.2,0,0,1-8.082,7.552,8.034,8.034,0,0,1-.795-16.032v-4.77a4.75,4.75,0,0,1,4.77-4.77H23.85V31.1a1.012,1.012,0,0,1,.265-.662l9.01-5.167v-5.3h-7.95a2.322,2.322,0,0,1-2.252-2.252V7.12A2.208,2.208,0,0,1,25.175,5h17.49a2.208,2.208,0,0,1,2.252,2.12v10.6a2.422,2.422,0,0,1-2.252,2.252h-7.95v5.3l8.877,5.167c.265.265.4.4.4.662v2.65H55.782a4.75,4.75,0,0,1,4.77,4.77v4.5a8.034,8.034,0,0,1-.795,16.032Zm-7.95-8.745a7.932,7.932,0,0,1,7.155-7.287v-4.5a3.062,3.062,0,0,0-3.18-3.18H43.99v6.492c0,.4-.132.662-.4.662l-8.877,5.3v2.517Zm7.95-5.83a6.492,6.492,0,1,0,0,12.985,6.476,6.476,0,0,0,6.492-6.36A6.618,6.618,0,0,0,59.757,44.485ZM62.8,54.422H56.842a.764.764,0,0,1-.795-.795.7.7,0,0,1,.795-.795H62.8a.764.764,0,0,1,.795.795A.855.855,0,0,1,62.8,54.422Zm-1.06-2.65H57.77c-.53,0-.795-.265-.795-.662a.7.7,0,0,1,.795-.795h3.975a.7.7,0,0,1,.795.795C62.54,51.507,62.275,51.772,61.745,51.772Zm1.06-2.385H56.842a.795.795,0,0,1,0-1.59H62.8a.795.795,0,0,1,0,1.59Zm-54.722-4.5a6.427,6.427,0,1,0,0,12.852,6.59,6.59,0,0,0,6.492-6.492A6.476,6.476,0,0,0,8.082,44.882ZM11,54.555H5.035a.764.764,0,0,1-.795-.795.742.742,0,0,1,.795-.662H11c.53,0,.795.265.795.662A.7.7,0,0,1,11,54.555ZM10.07,52.17H6.095a.764.764,0,0,1-.795-.795.7.7,0,0,1,.795-.795H10.07a.7.7,0,0,1,.795.795A.855.855,0,0,1,10.07,52.17ZM11,49.52H5.035a.742.742,0,0,1-.795-.662.764.764,0,0,1,.795-.795H11a.7.7,0,0,1,.795.795C11.792,49.255,11.527,49.52,11,49.52ZM34.847,68.6h-3.71a.764.764,0,0,1-.795-.795V64.227c-.132,0-.132-.132-.132-.265V60.517A.855.855,0,0,1,31,59.722H34.45A2.634,2.634,0,0,1,37.1,62.24a2.778,2.778,0,0,1-.53,1.457,2.766,2.766,0,0,1,1.06,2.12A2.717,2.717,0,0,1,34.847,68.6ZM31.8,63.167h3.047a1.115,1.115,0,0,0,.53-.927.906.906,0,0,0-.927-.927H31.8Zm0,3.842h3.047a1.188,1.188,0,0,0,1.192-1.192,1.168,1.168,0,0,0-1.192-1.06H31.8Zm-6.625-8.745a.606.606,0,0,0-.662.53v10.6a.71.71,0,0,0,.662.662h17.49a.71.71,0,0,0,.662-.662v-10.6a.606.606,0,0,0-.662-.53ZM33.92,18.382h8.745a.626.626,0,0,0,.662-.662V7.12a.606.606,0,0,0-.662-.53H25.175a.626.626,0,0,0-.662.662V17.72a.626.626,0,0,0,.662.662Zm1.457-4.24H32.595l-1.06,2.517a.8.8,0,0,1-.795.4h-.265a.835.835,0,0,1-.4-1.06l3.18-7.685a.88.88,0,0,1,.662-.53.9.9,0,0,1,.795.53L37.762,16a.733.733,0,0,1-.4,1.06.835.835,0,0,1-1.06-.4Zm-2.12-1.59h1.457L33.92,10.7Zm5.83,24.777h-4.77a.795.795,0,1,1,0-1.59h4.77a.795.795,0,1,1,0,1.59ZM31,37.33H28.752a.795.795,0,1,1,0-1.59H31a.795.795,0,0,1,0,1.59Zm8.082,3.577H36.7a.742.742,0,0,1-.662-.795c0-.53.265-.795.662-.795h2.385a.764.764,0,0,1,.795.795A.855.855,0,0,1,39.087,40.907Zm-5.7,0H28.752a.764.764,0,0,1-.795-.795.7.7,0,0,1,.795-.795H33.39a.7.7,0,0,1,.795.795A.764.764,0,0,1,33.39,40.907Zm5.7-7.155H36.04a.7.7,0,0,1-.795-.795c0-.4.265-.662.795-.662h3.047a.742.742,0,0,1,.795.662A.764.764,0,0,1,39.087,33.752Zm-6.36,0H28.752a.7.7,0,0,1-.795-.795c0-.4.265-.662.795-.662h3.975a.626.626,0,0,1,.662.662C33.39,33.487,33.125,33.752,32.727,33.752ZM17.49,27.127h-4.9a.795.795,0,0,1,0-1.59h4.9a.795.795,0,0,1,0,1.59ZM15.9,23.682H12.587a.7.7,0,0,1-.795-.795.764.764,0,0,1,.795-.795H15.9a.855.855,0,0,1,.795.795A.764.764,0,0,1,15.9,23.682Zm1.59-3.445h-4.9a.7.7,0,0,1-.795-.795c0-.4.265-.662.795-.662h4.9a.742.742,0,0,1,.795.662A.764.764,0,0,1,17.49,20.237Zm35.775,3.445H49.952a.7.7,0,0,1-.795-.795.764.764,0,0,1,.795-.795h3.312a.855.855,0,0,1,.795.795A.764.764,0,0,1,53.265,23.682Zm1.59-3.445h-4.9a.7.7,0,0,1-.795-.795c0-.4.265-.662.795-.662h4.9a.742.742,0,0,1,.795.662A.764.764,0,0,1,54.855,20.237Zm0,6.89h-4.9a.795.795,0,1,1,0-1.59h4.9a.795.795,0,0,1,0,1.59ZM25.44,41.437l8.48,4.9,8.612-4.9v-9.8l-8.612-4.9-8.48,4.9Z" transform="translate(0 0)" fill-rule="evenodd"/>
      <path id="Trazado_1042134" data-name="Trazado 1042134" d="M203.262,181.587h2.385a.764.764,0,0,1,.795.795.855.855,0,0,1-.795.795h-2.385a.742.742,0,0,1-.663-.795C202.6,181.852,202.865,181.587,203.262,181.587ZM192,183.707l8.48,4.9,8.612-4.9v-9.8L200.48,169,192,173.9Zm13.647-4.107h-4.77a.795.795,0,0,1,0-1.59h4.77a.795.795,0,0,1,0,1.59Zm-8.082,0h-2.252a.795.795,0,0,1,0-1.59h2.252a.795.795,0,0,1,0,1.59Zm2.385,1.987a.7.7,0,0,1,.795.795.764.764,0,0,1-.795.795h-4.637a.764.764,0,0,1-.795-.795.7.7,0,0,1,.795-.795Zm5.7-5.565H202.6a.7.7,0,0,1-.795-.795c0-.4.265-.662.795-.662h3.047a.742.742,0,0,1,.795.662A.764.764,0,0,1,205.647,176.022Zm-6.36,0h-3.975a.7.7,0,0,1-.795-.795c0-.4.265-.662.795-.662h3.975a.626.626,0,0,1,.663.662C199.95,175.757,199.685,176.022,199.287,176.022Z" transform="translate(-166.56 -142.27)" fill="#74abca" fill-rule="evenodd"/>
      <path id="Trazado_1042135" data-name="Trazado 1042135" d="M194.407,28.792h8.745a.626.626,0,0,0,.662-.662V17.53a.606.606,0,0,0-.662-.53h-17.49a.626.626,0,0,0-.662.662V28.13a.626.626,0,0,0,.662.662Zm.795-10.07,3.047,7.685a.733.733,0,0,1-.4,1.06.835.835,0,0,1-1.06-.4l-.927-2.517h-2.782l-1.06,2.517a.8.8,0,0,1-.795.4h-.265a.835.835,0,0,1-.4-1.06l3.18-7.685a.88.88,0,0,1,.662-.53A.9.9,0,0,1,195.2,18.722Z" transform="translate(-160.488 -10.41)" fill="#df8ece" fill-rule="evenodd"/>
      <path id="Trazado_1042136" data-name="Trazado 1042136" d="M251,49.855h1.457l-.8-1.855Z" transform="translate(-217.743 -37.303)" fill="#df8ece" fill-rule="evenodd"/>
      <path id="Trazado_1042137" data-name="Trazado 1042137" d="M24.985,312.36a6.492,6.492,0,1,0-6.492,6.492A6.59,6.59,0,0,0,24.985,312.36Zm-9.54,1.855h5.962c.53,0,.795.265.795.663a.7.7,0,0,1-.795.795H15.445a.764.764,0,0,1-.795-.795A.742.742,0,0,1,15.445,314.215Zm5.83-1.722a.855.855,0,0,1-.795.795H16.5a.764.764,0,0,1-.795-.795.7.7,0,0,1,.795-.795H20.48A.7.7,0,0,1,21.275,312.492Zm.132-1.855H15.445a.742.742,0,0,1-.795-.662.764.764,0,0,1,.795-.795h5.962a.7.7,0,0,1,.795.795C22.2,310.372,21.937,310.637,21.407,310.637Z" transform="translate(-10.41 -261.118)" fill="#ab7edb" fill-rule="evenodd"/>
      <g id="Grupo_1180390" data-name="Grupo 1180390" transform="translate(24.512 58.265)">
        <path id="Trazado_1042138" data-name="Trazado 1042138" d="M185,407.53v10.6a.71.71,0,0,0,.662.663h17.49a.71.71,0,0,0,.662-.663v-10.6a.606.606,0,0,0-.662-.53h-17.49A.606.606,0,0,0,185,407.53Zm5.83,9.01v-3.577c-.132,0-.132-.132-.132-.265v-3.445a.855.855,0,0,1,.795-.8h3.445a2.634,2.634,0,0,1,2.65,2.517,2.491,2.491,0,0,0,.53,3.577,2.717,2.717,0,0,1-2.782,2.782h-3.71A.764.764,0,0,1,190.83,416.54Z" transform="translate(-185 -407)" fill="#74abca" fill-rule="evenodd"/>
        <path id="Trazado_1042139" data-name="Trazado 1042139" d="M240,456v2.253h3.047a1.188,1.188,0,0,0,1.193-1.192,1.168,1.168,0,0,0-1.193-1.06H240Z" transform="translate(-232.713 -449.508)" fill="#74abca" fill-rule="evenodd"/>
        <path id="Trazado_1042140" data-name="Trazado 1042140" d="M240,431.855h3.047a1.115,1.115,0,0,0,.53-.927.906.906,0,0,0-.928-.927H240Z" transform="translate(-232.713 -426.953)" fill="#74abca" fill-rule="evenodd"/>
      </g>
      <path id="Trazado_1042141" data-name="Trazado 1042141" d="M402,309.492a6.59,6.59,0,0,0,6.492,6.492,6.476,6.476,0,0,0,6.492-6.36A6.493,6.493,0,1,0,402,309.492Zm9.54,3.445h-5.962a.764.764,0,0,1-.8-.8.7.7,0,0,1,.8-.795h5.962a.764.764,0,0,1,.795.795A.855.855,0,0,1,411.54,312.937Zm-1.06-2.65h-3.975c-.53,0-.8-.265-.8-.662a.7.7,0,0,1,.8-.8h3.975a.7.7,0,0,1,.8.8C411.275,310.022,411.01,310.287,410.48,310.287Zm1.06-2.385h-5.962a.795.795,0,1,1,0-1.59h5.962a.795.795,0,0,1,0,1.59Z" transform="translate(-348.735 -258.515)" fill="#ab7edb" fill-rule="evenodd"/>
    </g>
  </g>
</svg>
