<svg xmlns="http://www.w3.org/2000/svg" xmlns:xlink="http://www.w3.org/1999/xlink" width="118" height="118" viewBox="0 0 118 118">
  <defs>
    <filter id="Trazado_982547" x="0" y="0" width="118" height="118" filterUnits="userSpaceOnUse">
      <feOffset dy="3" input="SourceAlpha"/>
      <feGaussianBlur stdDeviation="3" result="blur"/>
      <feFlood flood-opacity="0.161"/>
      <feComposite operator="in" in2="blur"/>
      <feComposite in="SourceGraphic"/>
    </filter>
  </defs>
  <g id="Grupo_1180548" data-name="Grupo 1180548" transform="translate(-321 -2494)">
    <g id="Grupo_1179800" data-name="Grupo 1179800" transform="translate(-2.5 1809)">
      <g id="Grupo_1177984" data-name="Grupo 1177984" transform="translate(332.5 691)">
        <g id="Grupo_1177679" data-name="Grupo 1177679">
          <g id="Grupo_1172010" data-name="Grupo 1172010">
            <g id="Grupo_1171046" data-name="Grupo 1171046">
              <g id="Grupo_1148525" data-name="Grupo 1148525">
                <g transform="matrix(1, 0, 0, 1, -9, -6)" filter="url(#Trazado_982547)">
                  <g id="Trazado_982547-2" data-name="Trazado 982547" transform="translate(9 6)" fill="#fdf4ce">
                    <path d="M 50 98.5 C 43.45188522338867 98.5 37.10042953491211 97.21787261962891 31.12207221984863 94.68923950195312 C 25.34691429138184 92.24655914306641 20.15997123718262 88.74931335449219 15.70532894134521 84.29468536376953 C 11.2506856918335 79.84004211425781 7.753442764282227 74.65309906005859 5.310757160186768 68.8779296875 C 2.782128572463989 62.89957046508789 1.5 56.54811477661133 1.5 50 C 1.5 43.45188522338867 2.782128572463989 37.10042953491211 5.310757160186768 31.12207221984863 C 7.753442764282227 25.34691429138184 11.2506856918335 20.15997123718262 15.70532894134521 15.70532894134521 C 20.15997123718262 11.2506856918335 25.34691429138184 7.753442764282227 31.12207221984863 5.310757160186768 C 37.10042953491211 2.782128572463989 43.45188522338867 1.5 50 1.5 C 56.54811477661133 1.5 62.89957046508789 2.782128572463989 68.8779296875 5.310757160186768 C 74.65309906005859 7.753442764282227 79.84004211425781 11.2506856918335 84.29468536376953 15.70532894134521 C 88.74931335449219 20.15997123718262 92.24655914306641 25.34691429138184 94.68923950195312 31.12207221984863 C 97.21787261962891 37.10042953491211 98.5 43.45188522338867 98.5 50 C 98.5 56.54811477661133 97.21787261962891 62.89957046508789 94.68923950195312 68.8779296875 C 92.24655914306641 74.65309906005859 88.74931335449219 79.84004211425781 84.29468536376953 84.29468536376953 C 79.84004211425781 88.74931335449219 74.65309906005859 92.24655914306641 68.8779296875 94.68923950195312 C 62.89957046508789 97.21787261962891 56.54811477661133 98.5 50 98.5 Z" stroke="none"/>
                    <path d="M 50 3 C 43.65372467041016 3 37.49886322021484 4.242263793945312 31.70639801025391 6.6922607421875 C 26.11003112792969 9.059326171875 21.08335113525391 12.44861602783203 16.76598358154297 16.76598358154297 C 12.44861602783203 21.08335113525391 9.059326171875 26.11003112792969 6.6922607421875 31.70639801025391 C 4.242263793945312 37.49886322021484 3 43.65372467041016 3 50 C 3 56.34627532958984 4.242263793945312 62.50113677978516 6.6922607421875 68.29360198974609 C 9.059326171875 73.88996887207031 12.44861602783203 78.91666412353516 16.76598358154297 83.23401641845703 C 21.08335113525391 87.55138397216797 26.11003112792969 90.940673828125 31.70639801025391 93.3077392578125 C 37.49886322021484 95.75773620605469 43.65372467041016 97 50 97 C 56.34627532958984 97 62.50113677978516 95.75773620605469 68.29360198974609 93.3077392578125 C 73.88996887207031 90.940673828125 78.91666412353516 87.55138397216797 83.23401641845703 83.23401641845703 C 87.55138397216797 78.91666412353516 90.940673828125 73.88996887207031 93.3077392578125 68.29360198974609 C 95.75773620605469 62.50113677978516 97 56.34627532958984 97 50 C 97 43.65372467041016 95.75773620605469 37.49886322021484 93.3077392578125 31.70639801025391 C 90.940673828125 26.11003112792969 87.55138397216797 21.08335113525391 83.23401641845703 16.76598358154297 C 78.91666412353516 12.44861602783203 73.88996887207031 9.059326171875 68.29360198974609 6.6922607421875 C 62.50113677978516 4.242263793945312 56.34627532958984 3 50 3 M 50 0 C 77.61424255371094 0 100 22.38577270507812 100 50 C 100 77.61424255371094 77.61424255371094 100 50 100 C 22.38577270507812 100 0 77.61424255371094 0 50 C 0 22.38577270507812 22.38577270507812 0 50 0 Z" stroke="none" fill="#866d08"/>
                  </g>
                </g>
              </g>
            </g>
          </g>
        </g>
      </g>
    </g>
    <g id="tools-utensils_359275" transform="translate(277.033 2513.801)">
      <path id="Trazado_1042428" data-name="Trazado 1042428" d="M128.823,46.12l4.385-2.953-4.438-8.492-.024-5.251A21.748,21.748,0,1,0,94.128,47.057V67.148l24.119,10.264V55.3l10.576,3.834Z" transform="translate(-6.677 -6.676)" fill="#ffc25d"/>
      <path id="Trazado_1042429" data-name="Trazado 1042429" d="M133.21,43.167l-4.385,2.951V59.133L118.249,55.3,92.955,46.127a21.748,21.748,0,1,1,35.792-16.7l.025,5.252Z" transform="translate(-6.679 -6.676)" fill="#ffde90"/>
      <circle id="Elipse_12489" data-name="Elipse 12489" cx="13.196" cy="13.196" r="13.196" transform="translate(86.423 8.06)" fill="#fff"/>
      <path id="Trazado_1042430" data-name="Trazado 1042430" d="M171.4,127.78l-4.443-4.443,4.443-4.443,1.555,1.555-2.888,2.888,2.888,2.888Z" transform="translate(-76.83 -102.082)"/>
      <path id="Trazado_1042431" data-name="Trazado 1042431" d="M260.367,127.78l-1.555-1.555,2.888-2.888-2.888-2.888,1.555-1.555,4.443,4.443Z" transform="translate(-155.698 -102.082)"/>
      <rect id="Rectángulo_417598" data-name="Rectángulo 417598" width="2.199" height="8.089" transform="matrix(-0.906, -0.423, 0.423, -0.906, 98.906, 25.386)"/>
      <path id="Trazado_1042432" data-name="Trazado 1042432" d="M147.29,49.217a14.3,14.3,0,1,0,14.3,14.3A14.312,14.312,0,0,0,147.29,49.217Zm0,26.392a12.1,12.1,0,1,1,12.1-12.1A12.11,12.11,0,0,1,147.29,75.609Z" transform="translate(-47.671 -42.257)"/>
      <path id="Trazado_1042433" data-name="Trazado 1042433" d="M112.669,72.4,86.351,61.2V40.928a23.061,23.061,0,0,1-6.311-7.548,22.85,22.85,0,1,1,43.128-10.637l.023,4.984,4.77,9.127-4.716,3.175v14L91.474,42.506l.75-2.068,28.822,10.45V38.858l4.054-2.73-4.106-7.857-.025-5.518A20.649,20.649,0,0,0,100.323,2.2h-.1A20.656,20.656,0,0,0,81.991,32.365a20.845,20.845,0,0,0,6.111,7.13l.448.33v19.92l21.92,9.328V53.021h2.2V72.4Z"/>
    </g>
  </g>
</svg>
