<svg xmlns="http://www.w3.org/2000/svg" xmlns:xlink="http://www.w3.org/1999/xlink" width="222.924" height="64.7" viewBox="0 0 222.924 64.7">
  <defs>
    <linearGradient id="linear-gradient" x1="-24.752" y1="3.243" x2="-23.427" y2="2.114" gradientUnits="objectBoundingBox">
      <stop offset="0" stop-color="#5a9fd4"/>
      <stop offset="1" stop-color="#306998"/>
    </linearGradient>
    <linearGradient id="linear-gradient-2" x1="-23.216" y1="1.078" x2="-23.689" y2="1.736" gradientUnits="objectBoundingBox">
      <stop offset="0" stop-color="#ffd43b"/>
      <stop offset="1" stop-color="#ffe873"/>
    </linearGradient>
    <radialGradient id="radial-gradient" cx="0.5" cy="0.489" r="0.5" gradientTransform="matrix(0, -1, -0.853, 0, -32.299, -29.657)" gradientUnits="objectBoundingBox">
      <stop offset="0" stop-color="#b8b8b8" stop-opacity="0.498"/>
      <stop offset="1" stop-color="#7f7f7f" stop-opacity="0"/>
    </radialGradient>
  </defs>
  <g id="python-3" transform="translate(-5.591 -3.262)">
    <path id="Trazado_1042278" data-name="Trazado 1042278" d="M165.456,30.807q0-10.256-5.849-10.539a10.981,10.981,0,0,0-4.54.746,6.657,6.657,0,0,0-2.384,1.259V38.592q3.741,2.348,6.64,2.179Q165.453,40.364,165.456,30.807Zm4.81.284a14.5,14.5,0,0,1-2.453,8.649,9.045,9.045,0,0,1-7.592,4,13.469,13.469,0,0,1-7.538-2.288V56.288L148.5,54.8V21.874a9.36,9.36,0,0,1,2.641-2.179,18.123,18.123,0,0,1,9.075-2.233l.059.059a8.326,8.326,0,0,1,7.523,4,17.017,17.017,0,0,1,2.467,9.564Zm25.564,9.734q0,6.988-1.4,9.679A9.873,9.873,0,0,1,189.07,54.8a20.529,20.529,0,0,1-6.929,1.378l-.692-2.636a33.237,33.237,0,0,0,5.327-1.03,7.038,7.038,0,0,0,4.183-3.149q.92-1.723.915-6.585V41.686a21.484,21.484,0,0,1-8.992,1.945,8.266,8.266,0,0,1-5.442-1.945,6.617,6.617,0,0,1-2.636-5.382V18.895l4.183-1.432V34.985A5.325,5.325,0,0,0,180.8,39.31a6.847,6.847,0,0,0,4.691,1.46,11.73,11.73,0,0,0,6.155-2.233V18.093h4.183V40.825Zm16.328,2.691q-.687.058-1.378.059a8.23,8.23,0,0,1-5.528-1.693,5.849,5.849,0,0,1-1.972-4.682V20.725h-2.865V18.094h2.865V11.106l4.178-1.487v8.476h4.7v2.631h-4.7V37.086a3.963,3.963,0,0,0,1.263,3.332,6.39,6.39,0,0,0,3.437.92v2.178Zm25.326-.343H233.3V27.027a7.63,7.63,0,0,0-1.148-4.237,4.179,4.179,0,0,0-3.684-2q-2.876,0-7.194,3.034V43.172h-4.182V4.58l4.182-1.318V20.84a14.573,14.573,0,0,1,8.764-2.92,6.985,6.985,0,0,1,5.382,2.233,7.864,7.864,0,0,1,2.064,5.556V43.172h0Zm22.232-13.024a12.848,12.848,0,0,0-1.492-6.512,6.245,6.245,0,0,0-5.5-3.309q-6.879.4-6.874,9.848a16.2,16.2,0,0,0,1.437,7.235q1.84,3.7,5.52,3.643,6.905-.056,6.906-10.906Zm4.581.027a14.876,14.876,0,0,1-2.865,9.336,10.3,10.3,0,0,1-8.7,4.178,10.1,10.1,0,0,1-8.594-4.178,15.075,15.075,0,0,1-2.806-9.336,13.326,13.326,0,0,1,3.034-8.878,10.454,10.454,0,0,1,8.421-3.835,10.63,10.63,0,0,1,8.48,3.835A13.326,13.326,0,0,1,264.3,30.175Zm23.98,13h-4.183V26.112a5.706,5.706,0,0,0-1.688-4.384,6.136,6.136,0,0,0-4.5-1.515,10.052,10.052,0,0,0-5.67,1.945V43.172h-4.183V21.641a20.611,20.611,0,0,1,6.645-3.432,20.279,20.279,0,0,1,5.043-.746,13.079,13.079,0,0,1,2.805.288,8.069,8.069,0,0,1,4.009,2.119,5.605,5.605,0,0,1,1.721,4.123v19.18Z" transform="translate(-75.811)" fill="#646464"/>
    <path id="Trazado_1042279" data-name="Trazado 1042279" d="M31.376,6.4a35.9,35.9,0,0,0-6.015.514c-5.327.941-6.294,2.911-6.294,6.544v4.8H31.655v1.6H14.342a7.86,7.86,0,0,0-7.864,6.383,23.53,23.53,0,0,0,0,12.794c.895,3.727,3.032,6.383,6.691,6.383H17.5V39.66a8,8,0,0,1,7.864-7.82H37.935a6.342,6.342,0,0,0,6.294-6.4V13.455c0-3.411-2.878-5.975-6.294-6.544A39.269,39.269,0,0,0,31.376,6.4Zm-6.808,3.858a2.4,2.4,0,1,1-2.362,2.406,2.388,2.388,0,0,1,2.362-2.406Z" transform="translate(0 -1.663)" fill="url(#linear-gradient)"/>
    <path id="Trazado_1042280" data-name="Trazado 1042280" d="M61.025,35.054v5.59a8.074,8.074,0,0,1-7.864,7.982H40.586a6.422,6.422,0,0,0-6.294,6.4V67.01c0,3.412,2.966,5.419,6.294,6.4a21.059,21.059,0,0,0,12.574,0c3.169-.917,6.294-2.764,6.294-6.4v-4.8H46.881v-1.6H65.749c3.659,0,5.022-2.552,6.294-6.383,1.315-3.943,1.259-7.736,0-12.794-.9-3.642-2.631-6.383-6.294-6.383ZM53.952,65.411A2.4,2.4,0,1,1,51.59,67.8,2.376,2.376,0,0,1,53.952,65.411Z" transform="translate(-15.225 -16.865)" fill="url(#linear-gradient-2)"/>
    <path id="Trazado_1042281" data-name="Trazado 1042281" d="M461.591,21.093h.733v-4.6h1.737v-.548h-4.208v.548h1.737v4.6m3.121,0h.626v-4.2l1.36,4.2h.7l1.417-4.186v4.187h.684V15.945h-.9l-1.549,4.41-1.32-4.41h-1.011v5.147" transform="translate(-240.98 -6.728)" fill="#646464"/>
    <path id="Trazado_1042282" data-name="Trazado 1042282" d="M59.217,130.4c0,1.807-7.553,3.271-16.871,3.271s-16.87-1.464-16.87-3.271,7.553-3.272,16.87-3.272S59.217,128.595,59.217,130.4Z" transform="translate(-10.549 -65.71)" opacity="0.444" fill="url(#radial-gradient)"/>
  </g>
</svg>
