<svg xmlns="http://www.w3.org/2000/svg" xmlns:xlink="http://www.w3.org/1999/xlink" width="114.814" height="102.513" viewBox="0 0 114.814 102.513">
  <defs>
    <linearGradient id="linear-gradient" x1="0.204" y1="0.179" x2="0.965" y2="0.894" gradientUnits="objectBoundingBox">
      <stop offset="0" stop-color="#f97432"/>
      <stop offset="0.39" stop-color="#fa612d"/>
      <stop offset="0.583" stop-color="#fb4627"/>
      <stop offset="0.775" stop-color="#fb3e26"/>
      <stop offset="1" stop-color="#fc3223"/>
    </linearGradient>
  </defs>
  <path id="swift-svgrepo-com" d="M87.667,97.425c-13.534,7.785-32.144,8.585-50.866.595A79.455,79.455,0,0,1,1,67.513,60.369,60.369,0,0,0,14.224,75.54c19.335,9.024,38.666,8.406,52.27.023C47.141,60.791,30.672,41.5,18.417,25.764c-2.581-2.569-4.517-5.781-6.452-8.671C26.8,30.581,50.347,47.6,58.731,52.42c-17.736-18.628-33.541-41.749-32.9-41.108C53.894,39.573,80.02,55.631,80.02,55.631c.864.486,1.532.889,2.068,1.251a42.209,42.209,0,0,0,1.479-4.461C88.082,36.042,82.923,17.414,71.633,2c26.124,15.736,41.607,45.28,35.154,70.009q-.252,1-.548,1.972c12.9,16.058,9.579,33.354,7.966,30.143C107.207,90.49,94.253,94.659,87.667,97.425Z" transform="translate(-1 -2)" fill="url(#linear-gradient)"/>
</svg>
