<svg xmlns="http://www.w3.org/2000/svg" xmlns:xlink="http://www.w3.org/1999/xlink" width="118" height="118" viewBox="0 0 118 118">
  <defs>
    <filter id="Trazado_982547" x="0" y="0" width="118" height="118" filterUnits="userSpaceOnUse">
      <feOffset dy="3" input="SourceAlpha"/>
      <feGaussianBlur stdDeviation="3" result="blur"/>
      <feFlood flood-opacity="0.161"/>
      <feComposite operator="in" in2="blur"/>
      <feComposite in="SourceGraphic"/>
    </filter>
  </defs>
  <g id="Grupo_1180793" data-name="Grupo 1180793" transform="translate(-741 -2494)">
    <g id="Grupo_1179802" data-name="Grupo 1179802" transform="translate(-2.25 1809)">
      <g id="Grupo_1177987" data-name="Grupo 1177987" transform="translate(752.25 691)">
        <g id="Grupo_1177681" data-name="Grupo 1177681">
          <g id="Grupo_1172010" data-name="Grupo 1172010">
            <g id="Grupo_1171046" data-name="Grupo 1171046">
              <g id="Grupo_1148525" data-name="Grupo 1148525">
                <g transform="matrix(1, 0, 0, 1, -9, -6)" filter="url(#Trazado_982547)">
                  <g id="Trazado_982547-2" data-name="Trazado 982547" transform="translate(9 6)" fill="#fef9e5">
                    <path d="M 50 98.5 C 43.45188522338867 98.5 37.10042953491211 97.21787261962891 31.12207221984863 94.68923950195312 C 25.34690093994141 92.24655914306641 20.15995788574219 88.74931335449219 15.70531463623047 84.29468536376953 C 11.2506856918335 79.84004211425781 7.753442764282227 74.65309906005859 5.310757160186768 68.8779296875 C 2.782128572463989 62.89957046508789 1.5 56.54811477661133 1.5 50 C 1.5 43.45188522338867 2.782128572463989 37.10042953491211 5.310757160186768 31.12207221984863 C 7.753442764282227 25.34691429138184 11.2506856918335 20.15997123718262 15.70531463623047 15.70532894134521 C 20.15995788574219 11.2506856918335 25.34690093994141 7.753442764282227 31.12207221984863 5.310757160186768 C 37.10042953491211 2.782128572463989 43.45188522338867 1.5 50 1.5 C 56.54811477661133 1.5 62.89957046508789 2.782128572463989 68.8779296875 5.310757160186768 C 74.65309906005859 7.753442764282227 79.84004211425781 11.2506856918335 84.29468536376953 15.70532894134521 C 88.74931335449219 20.15997123718262 92.24655914306641 25.34691429138184 94.68923950195312 31.12207221984863 C 97.21787261962891 37.10042953491211 98.5 43.45188522338867 98.5 50 C 98.5 56.54811477661133 97.21787261962891 62.89957046508789 94.68923950195312 68.8779296875 C 92.24655914306641 74.65309906005859 88.74931335449219 79.84004211425781 84.29468536376953 84.29468536376953 C 79.84004211425781 88.74931335449219 74.65309906005859 92.24655914306641 68.8779296875 94.68923950195312 C 62.89957046508789 97.21787261962891 56.54811477661133 98.5 50 98.5 Z" stroke="none"/>
                    <path d="M 50 3 C 43.65372467041016 3 37.49886322021484 4.242263793945312 31.70639801025391 6.6922607421875 C 26.11003112792969 9.059326171875 21.08333587646484 12.44861602783203 16.76598358154297 16.76598358154297 C 12.44861602783203 21.08335113525391 9.059326171875 26.11003112792969 6.6922607421875 31.70639801025391 C 4.242263793945312 37.49886322021484 3 43.65372467041016 3 50 C 3 56.34627532958984 4.242263793945312 62.50113677978516 6.6922607421875 68.29360198974609 C 9.059326171875 73.88996887207031 12.44861602783203 78.91666412353516 16.76598358154297 83.23401641845703 C 21.08333587646484 87.55138397216797 26.11003112792969 90.940673828125 31.70639801025391 93.3077392578125 C 37.49886322021484 95.75773620605469 43.65372467041016 97 50 97 C 56.34627532958984 97 62.50113677978516 95.75773620605469 68.29360198974609 93.3077392578125 C 73.88996887207031 90.940673828125 78.91664886474609 87.55138397216797 83.23401641845703 83.23401641845703 C 87.55138397216797 78.91666412353516 90.940673828125 73.88996887207031 93.3077392578125 68.29360198974609 C 95.75773620605469 62.50113677978516 97 56.34627532958984 97 50 C 97 43.65372467041016 95.75773620605469 37.49886322021484 93.3077392578125 31.70639801025391 C 90.940673828125 26.11003112792969 87.55138397216797 21.08335113525391 83.23401641845703 16.76598358154297 C 78.91664886474609 12.44861602783203 73.88996887207031 9.059326171875 68.29360198974609 6.6922607421875 C 62.50113677978516 4.242263793945312 56.34627532958984 3 50 3 M 50 0 C 77.61422729492188 0 100 22.38577270507812 100 50 C 100 77.61424255371094 77.61422729492188 100 50 100 C 22.38575744628906 100 0 77.61424255371094 0 50 C 0 22.38577270507812 22.38575744628906 0 50 0 Z" stroke="none" fill="#866d08"/>
                  </g>
                </g>
              </g>
            </g>
          </g>
        </g>
      </g>
    </g>
    <g id="_x35_0_Stealing_data" transform="translate(767.739 2499.062)">
      <g id="Grupo_1180792" data-name="Grupo 1180792" transform="translate(0 21.37)">
        <g id="Grupo_1180703" data-name="Grupo 1180703" transform="translate(0 0)">
          <g id="Grupo_1180688" data-name="Grupo 1180688">
            <g id="Grupo_1180604" data-name="Grupo 1180604">
              <g id="Grupo_1180573" data-name="Grupo 1180573">
                <g id="Grupo_1180551" data-name="Grupo 1180551" transform="translate(8.472 0.153)">
                  <g id="Grupo_1180550" data-name="Grupo 1180550">
                    <g id="Grupo_1180549" data-name="Grupo 1180549">
                      <path id="Trazado_1042434" data-name="Trazado 1042434" d="M69.686,31.967a.945.945,0,0,1-.945-.945V24.474h-.567a.945.945,0,0,1,0-1.89h1.512a.945.945,0,0,1,.945.945v7.493A.945.945,0,0,1,69.686,31.967Z" transform="translate(-67.229 -22.584)" fill="#ffcd69"/>
                    </g>
                  </g>
                </g>
                <g id="Grupo_1180554" data-name="Grupo 1180554">
                  <g id="Grupo_1180553" data-name="Grupo 1180553">
                    <g id="Grupo_1180552" data-name="Grupo 1180552">
                      <path id="Trazado_1042435" data-name="Trazado 1042435" d="M2.991,31.059A3.056,3.056,0,0,1,0,27.947V24.482A3.057,3.057,0,0,1,2.991,21.37a3.056,3.056,0,0,1,2.991,3.112v3.465A3.057,3.057,0,0,1,2.991,31.059Zm0-7.8a1.167,1.167,0,0,0-1.1,1.222v3.465a1.167,1.167,0,0,0,1.1,1.222,1.167,1.167,0,0,0,1.1-1.222V24.482a1.167,1.167,0,0,0-1.1-1.222Z" transform="translate(0 -21.37)" fill="#ffcd69"/>
                    </g>
                  </g>
                </g>
                <g id="Grupo_1180557" data-name="Grupo 1180557" transform="translate(23.163 0.153)">
                  <g id="Grupo_1180556" data-name="Grupo 1180556">
                    <g id="Grupo_1180555" data-name="Grupo 1180555">
                      <path id="Trazado_1042436" data-name="Trazado 1042436" d="M186.258,31.967a.945.945,0,0,1-.945-.945V24.474h-.567a.945.945,0,0,1,0-1.89h1.512a.945.945,0,0,1,.945.945v7.493A.945.945,0,0,1,186.258,31.967Z" transform="translate(-183.801 -22.584)" fill="#ffcd69"/>
                    </g>
                  </g>
                </g>
                <g id="Grupo_1180560" data-name="Grupo 1180560" transform="translate(14.69 0)">
                  <g id="Grupo_1180559" data-name="Grupo 1180559">
                    <g id="Grupo_1180558" data-name="Grupo 1180558">
                      <path id="Trazado_1042437" data-name="Trazado 1042437" d="M119.562,31.06a3.056,3.056,0,0,1-2.991-3.112V24.483a2.993,2.993,0,1,1,5.981,0v3.465A3.056,3.056,0,0,1,119.562,31.06Zm0-7.8a1.167,1.167,0,0,0-1.1,1.222v3.465a1.106,1.106,0,1,0,2.2,0V24.483A1.167,1.167,0,0,0,119.562,23.261Z" transform="translate(-116.571 -21.371)" fill="#ffcd69"/>
                    </g>
                  </g>
                </g>
                <g id="Grupo_1180563" data-name="Grupo 1180563" transform="translate(8.472 12.59)">
                  <g id="Grupo_1180562" data-name="Grupo 1180562">
                    <g id="Grupo_1180561" data-name="Grupo 1180561">
                      <path id="Trazado_1042438" data-name="Trazado 1042438" d="M69.686,130.654a.945.945,0,0,1-.945-.945v-6.548h-.567a.945.945,0,1,1,0-1.89h1.512a.945.945,0,0,1,.945.945v7.493A.945.945,0,0,1,69.686,130.654Z" transform="translate(-67.229 -121.271)" fill="#ffcd69"/>
                    </g>
                  </g>
                </g>
                <g id="Grupo_1180566" data-name="Grupo 1180566" transform="translate(0 12.437)">
                  <g id="Grupo_1180565" data-name="Grupo 1180565">
                    <g id="Grupo_1180564" data-name="Grupo 1180564">
                      <path id="Trazado_1042439" data-name="Trazado 1042439" d="M2.991,129.746A3.056,3.056,0,0,1,0,126.634v-3.465a3.056,3.056,0,0,1,2.991-3.112,3.056,3.056,0,0,1,2.991,3.112v3.465A3.057,3.057,0,0,1,2.991,129.746Zm0-7.8a1.167,1.167,0,0,0-1.1,1.222v3.465a1.167,1.167,0,0,0,1.1,1.222,1.167,1.167,0,0,0,1.1-1.222v-3.465a1.167,1.167,0,0,0-1.1-1.222Z" transform="translate(0 -120.057)" fill="#ffcd69"/>
                    </g>
                  </g>
                </g>
                <g id="Grupo_1180569" data-name="Grupo 1180569" transform="translate(23.163 12.59)">
                  <g id="Grupo_1180568" data-name="Grupo 1180568">
                    <g id="Grupo_1180567" data-name="Grupo 1180567">
                      <path id="Trazado_1042440" data-name="Trazado 1042440" d="M186.258,130.654a.945.945,0,0,1-.945-.945v-6.548h-.567a.945.945,0,0,1,0-1.89h1.512a.945.945,0,0,1,.945.945v7.493A.945.945,0,0,1,186.258,130.654Z" transform="translate(-183.801 -121.271)" fill="#ffcd69"/>
                    </g>
                  </g>
                </g>
                <g id="Grupo_1180572" data-name="Grupo 1180572" transform="translate(14.69 12.437)">
                  <g id="Grupo_1180571" data-name="Grupo 1180571">
                    <g id="Grupo_1180570" data-name="Grupo 1180570">
                      <path id="Trazado_1042441" data-name="Trazado 1042441" d="M119.562,129.746a3.056,3.056,0,0,1-2.991-3.112v-3.465a2.993,2.993,0,1,1,5.981,0v3.465A3.056,3.056,0,0,1,119.562,129.746Zm0-7.8a1.167,1.167,0,0,0-1.1,1.222v3.465a1.106,1.106,0,1,0,2.2,0v-3.465A1.167,1.167,0,0,0,119.562,121.947Z" transform="translate(-116.571 -120.057)" fill="#ffcd69"/>
                    </g>
                  </g>
                </g>
              </g>
              <g id="Grupo_1180576" data-name="Grupo 1180576" transform="translate(37.743 0.153)">
                <g id="Grupo_1180575" data-name="Grupo 1180575">
                  <g id="Grupo_1180574" data-name="Grupo 1180574">
                    <path id="Trazado_1042442" data-name="Trazado 1042442" d="M301.955,31.967a.945.945,0,0,1-.945-.945V24.474h-.567a.945.945,0,1,1,0-1.89h1.512a.945.945,0,0,1,.945.945v7.493A.945.945,0,0,1,301.955,31.967Z" transform="translate(-299.498 -22.584)" fill="#ffcd69"/>
                  </g>
                </g>
              </g>
              <g id="Grupo_1180579" data-name="Grupo 1180579" transform="translate(29.271 0)">
                <g id="Grupo_1180578" data-name="Grupo 1180578">
                  <g id="Grupo_1180577" data-name="Grupo 1180577">
                    <path id="Trazado_1042443" data-name="Trazado 1042443" d="M235.26,31.06a3.056,3.056,0,0,1-2.991-3.112V24.483a2.993,2.993,0,1,1,5.981,0v3.465A3.056,3.056,0,0,1,235.26,31.06Zm0-7.8a1.167,1.167,0,0,0-1.1,1.222v3.465a1.106,1.106,0,1,0,2.2,0V24.483A1.167,1.167,0,0,0,235.26,23.261Z" transform="translate(-232.269 -21.371)" fill="#ffcd69"/>
                  </g>
                </g>
              </g>
              <g id="Grupo_1180582" data-name="Grupo 1180582" transform="translate(52.433 0.153)">
                <g id="Grupo_1180581" data-name="Grupo 1180581">
                  <g id="Grupo_1180580" data-name="Grupo 1180580">
                    <path id="Trazado_1042444" data-name="Trazado 1042444" d="M418.528,31.967a.945.945,0,0,1-.945-.945V24.474h-.567a.945.945,0,1,1,0-1.89h1.512a.945.945,0,0,1,.945.945v7.493A.945.945,0,0,1,418.528,31.967Z" transform="translate(-416.071 -22.584)" fill="#ffcd69"/>
                  </g>
                </g>
              </g>
              <g id="Grupo_1180585" data-name="Grupo 1180585" transform="translate(43.961 0)">
                <g id="Grupo_1180584" data-name="Grupo 1180584">
                  <g id="Grupo_1180583" data-name="Grupo 1180583">
                    <path id="Trazado_1042445" data-name="Trazado 1042445" d="M351.832,31.06a3.056,3.056,0,0,1-2.991-3.112V24.483a2.993,2.993,0,1,1,5.981,0v3.465A3.056,3.056,0,0,1,351.832,31.06Zm0-7.8a1.167,1.167,0,0,0-1.1,1.222v3.465a1.106,1.106,0,1,0,2.2,0V24.483A1.167,1.167,0,0,0,351.832,23.261Z" transform="translate(-348.841 -21.371)" fill="#ffcd69"/>
                  </g>
                </g>
              </g>
              <g id="Grupo_1180588" data-name="Grupo 1180588" transform="translate(37.743 12.59)">
                <g id="Grupo_1180587" data-name="Grupo 1180587">
                  <g id="Grupo_1180586" data-name="Grupo 1180586">
                    <path id="Trazado_1042446" data-name="Trazado 1042446" d="M301.955,130.654a.945.945,0,0,1-.945-.945v-6.548h-.567a.945.945,0,1,1,0-1.89h1.512a.945.945,0,0,1,.945.945v7.493A.945.945,0,0,1,301.955,130.654Z" transform="translate(-299.498 -121.271)" fill="#ffcd69"/>
                  </g>
                </g>
              </g>
              <g id="Grupo_1180591" data-name="Grupo 1180591" transform="translate(29.271 12.437)">
                <g id="Grupo_1180590" data-name="Grupo 1180590">
                  <g id="Grupo_1180589" data-name="Grupo 1180589">
                    <path id="Trazado_1042447" data-name="Trazado 1042447" d="M235.26,129.746a3.056,3.056,0,0,1-2.991-3.112v-3.465a2.993,2.993,0,1,1,5.981,0v3.465A3.056,3.056,0,0,1,235.26,129.746Zm0-7.8a1.167,1.167,0,0,0-1.1,1.222v3.465a1.106,1.106,0,1,0,2.2,0v-3.465A1.167,1.167,0,0,0,235.26,121.947Z" transform="translate(-232.269 -120.057)" fill="#ffcd69"/>
                  </g>
                </g>
              </g>
              <g id="Grupo_1180594" data-name="Grupo 1180594" transform="translate(52.433 12.59)">
                <g id="Grupo_1180593" data-name="Grupo 1180593">
                  <g id="Grupo_1180592" data-name="Grupo 1180592">
                    <path id="Trazado_1042448" data-name="Trazado 1042448" d="M418.528,130.654a.945.945,0,0,1-.945-.945v-6.548h-.567a.945.945,0,1,1,0-1.89h1.512a.945.945,0,0,1,.945.945v7.493A.945.945,0,0,1,418.528,130.654Z" transform="translate(-416.071 -121.271)" fill="#ffcd69"/>
                  </g>
                </g>
              </g>
              <g id="Grupo_1180597" data-name="Grupo 1180597" transform="translate(43.961 12.437)">
                <g id="Grupo_1180596" data-name="Grupo 1180596">
                  <g id="Grupo_1180595" data-name="Grupo 1180595">
                    <path id="Trazado_1042449" data-name="Trazado 1042449" d="M351.832,129.746a3.056,3.056,0,0,1-2.991-3.112v-3.465a2.993,2.993,0,1,1,5.981,0v3.465A3.056,3.056,0,0,1,351.832,129.746Zm0-7.8a1.167,1.167,0,0,0-1.1,1.222v3.465a1.106,1.106,0,1,0,2.2,0v-3.465A1.167,1.167,0,0,0,351.832,121.947Z" transform="translate(-348.841 -120.057)" fill="#ffcd69"/>
                  </g>
                </g>
              </g>
              <g id="Grupo_1180600" data-name="Grupo 1180600" transform="translate(58.541 0)">
                <g id="Grupo_1180599" data-name="Grupo 1180599">
                  <g id="Grupo_1180598" data-name="Grupo 1180598">
                    <path id="Trazado_1042450" data-name="Trazado 1042450" d="M467.529,31.06a3.056,3.056,0,0,1-2.99-3.112V24.483a2.993,2.993,0,1,1,5.981,0v3.465A3.056,3.056,0,0,1,467.529,31.06Zm0-7.8a1.167,1.167,0,0,0-1.1,1.222v3.465a1.106,1.106,0,1,0,2.2,0V24.483A1.167,1.167,0,0,0,467.529,23.261Z" transform="translate(-464.539 -21.371)" fill="#ffcd69"/>
                  </g>
                </g>
              </g>
              <g id="Grupo_1180603" data-name="Grupo 1180603" transform="translate(58.541 12.437)">
                <g id="Grupo_1180602" data-name="Grupo 1180602">
                  <g id="Grupo_1180601" data-name="Grupo 1180601">
                    <path id="Trazado_1042451" data-name="Trazado 1042451" d="M467.529,129.746a3.056,3.056,0,0,1-2.99-3.112v-3.465a2.993,2.993,0,1,1,5.981,0v3.465A3.056,3.056,0,0,1,467.529,129.746Zm0-7.8a1.167,1.167,0,0,0-1.1,1.222v3.465a1.106,1.106,0,1,0,2.2,0v-3.465A1.167,1.167,0,0,0,467.529,121.947Z" transform="translate(-464.539 -120.057)" fill="#ffcd69"/>
                  </g>
                </g>
              </g>
            </g>
            <g id="Grupo_1180660" data-name="Grupo 1180660" transform="translate(0 24.873)">
              <g id="Grupo_1180629" data-name="Grupo 1180629">
                <g id="Grupo_1180607" data-name="Grupo 1180607" transform="translate(8.472 0.153)">
                  <g id="Grupo_1180606" data-name="Grupo 1180606">
                    <g id="Grupo_1180605" data-name="Grupo 1180605">
                      <path id="Trazado_1042452" data-name="Trazado 1042452" d="M69.686,229.34a.945.945,0,0,1-.945-.945v-6.548h-.567a.945.945,0,0,1,0-1.89h1.512a.945.945,0,0,1,.945.945v7.493A.945.945,0,0,1,69.686,229.34Z" transform="translate(-67.229 -219.957)" fill="#ffcd69"/>
                    </g>
                  </g>
                </g>
                <g id="Grupo_1180610" data-name="Grupo 1180610">
                  <g id="Grupo_1180609" data-name="Grupo 1180609">
                    <g id="Grupo_1180608" data-name="Grupo 1180608">
                      <path id="Trazado_1042453" data-name="Trazado 1042453" d="M2.991,228.434A3.056,3.056,0,0,1,0,225.322v-3.465a3.056,3.056,0,0,1,2.991-3.112,3.056,3.056,0,0,1,2.991,3.112v3.465A3.057,3.057,0,0,1,2.991,228.434Zm0-7.8a1.167,1.167,0,0,0-1.1,1.222v3.465a1.167,1.167,0,0,0,1.1,1.222,1.167,1.167,0,0,0,1.1-1.222v-3.465a1.167,1.167,0,0,0-1.1-1.222Z" transform="translate(0 -218.745)" fill="#ffcd69"/>
                    </g>
                  </g>
                </g>
                <g id="Grupo_1180613" data-name="Grupo 1180613" transform="translate(23.163 0.153)">
                  <g id="Grupo_1180612" data-name="Grupo 1180612">
                    <g id="Grupo_1180611" data-name="Grupo 1180611">
                      <path id="Trazado_1042454" data-name="Trazado 1042454" d="M186.258,229.34a.945.945,0,0,1-.945-.945v-6.548h-.567a.945.945,0,0,1,0-1.89h1.512a.945.945,0,0,1,.945.945v7.493A.945.945,0,0,1,186.258,229.34Z" transform="translate(-183.801 -219.957)" fill="#ffcd69"/>
                    </g>
                  </g>
                </g>
                <g id="Grupo_1180616" data-name="Grupo 1180616" transform="translate(14.69)">
                  <g id="Grupo_1180615" data-name="Grupo 1180615">
                    <g id="Grupo_1180614" data-name="Grupo 1180614">
                      <path id="Trazado_1042455" data-name="Trazado 1042455" d="M119.562,228.434a3.056,3.056,0,0,1-2.991-3.112v-3.465a2.993,2.993,0,1,1,5.981,0v3.465A3.056,3.056,0,0,1,119.562,228.434Zm0-7.8a1.167,1.167,0,0,0-1.1,1.222v3.465a1.106,1.106,0,1,0,2.2,0v-3.465A1.167,1.167,0,0,0,119.562,220.635Z" transform="translate(-116.571 -218.745)" fill="#ffcd69"/>
                    </g>
                  </g>
                </g>
                <g id="Grupo_1180619" data-name="Grupo 1180619" transform="translate(8.472 12.589)">
                  <g id="Grupo_1180618" data-name="Grupo 1180618">
                    <g id="Grupo_1180617" data-name="Grupo 1180617">
                      <path id="Trazado_1042456" data-name="Trazado 1042456" d="M69.686,328.028a.945.945,0,0,1-.945-.945v-6.548h-.567a.945.945,0,1,1,0-1.89h1.512a.945.945,0,0,1,.945.945v7.493A.945.945,0,0,1,69.686,328.028Z" transform="translate(-67.229 -318.645)" fill="#ffcd69"/>
                    </g>
                  </g>
                </g>
                <g id="Grupo_1180622" data-name="Grupo 1180622" transform="translate(0 12.436)">
                  <g id="Grupo_1180621" data-name="Grupo 1180621">
                    <g id="Grupo_1180620" data-name="Grupo 1180620">
                      <path id="Trazado_1042457" data-name="Trazado 1042457" d="M2.991,327.12A3.056,3.056,0,0,1,0,324.008v-3.465a3.056,3.056,0,0,1,2.991-3.112,3.056,3.056,0,0,1,2.991,3.112v3.465A3.057,3.057,0,0,1,2.991,327.12Zm0-7.8a1.167,1.167,0,0,0-1.1,1.222v3.465a1.167,1.167,0,0,0,1.1,1.221,1.167,1.167,0,0,0,1.1-1.221v-3.465a1.167,1.167,0,0,0-1.1-1.222Z" transform="translate(0 -317.431)" fill="#ffcd69"/>
                    </g>
                  </g>
                </g>
                <g id="Grupo_1180625" data-name="Grupo 1180625" transform="translate(23.163 12.589)">
                  <g id="Grupo_1180624" data-name="Grupo 1180624">
                    <g id="Grupo_1180623" data-name="Grupo 1180623">
                      <path id="Trazado_1042458" data-name="Trazado 1042458" d="M186.258,328.028a.945.945,0,0,1-.945-.945v-6.548h-.567a.945.945,0,1,1,0-1.89h1.512a.945.945,0,0,1,.945.945v7.493A.945.945,0,0,1,186.258,328.028Z" transform="translate(-183.801 -318.645)" fill="#ffcd69"/>
                    </g>
                  </g>
                </g>
                <g id="Grupo_1180628" data-name="Grupo 1180628" transform="translate(14.69 12.437)">
                  <g id="Grupo_1180627" data-name="Grupo 1180627">
                    <g id="Grupo_1180626" data-name="Grupo 1180626">
                      <path id="Trazado_1042459" data-name="Trazado 1042459" d="M119.562,327.121a3.056,3.056,0,0,1-2.991-3.112v-3.465a2.993,2.993,0,1,1,5.981,0v3.465A3.056,3.056,0,0,1,119.562,327.121Zm0-7.8a1.167,1.167,0,0,0-1.1,1.222v3.465a1.106,1.106,0,1,0,2.2,0v-3.465A1.167,1.167,0,0,0,119.562,319.322Z" transform="translate(-116.571 -317.432)" fill="#ffcd69"/>
                    </g>
                  </g>
                </g>
              </g>
              <g id="Grupo_1180632" data-name="Grupo 1180632" transform="translate(37.743 0.153)">
                <g id="Grupo_1180631" data-name="Grupo 1180631">
                  <g id="Grupo_1180630" data-name="Grupo 1180630">
                    <path id="Trazado_1042460" data-name="Trazado 1042460" d="M301.955,229.34a.945.945,0,0,1-.945-.945v-6.548h-.567a.945.945,0,0,1,0-1.89h1.512a.945.945,0,0,1,.945.945v7.493A.945.945,0,0,1,301.955,229.34Z" transform="translate(-299.498 -219.957)" fill="#ffcd69"/>
                  </g>
                </g>
              </g>
              <g id="Grupo_1180635" data-name="Grupo 1180635" transform="translate(29.271)">
                <g id="Grupo_1180634" data-name="Grupo 1180634">
                  <g id="Grupo_1180633" data-name="Grupo 1180633">
                    <path id="Trazado_1042461" data-name="Trazado 1042461" d="M235.26,228.434a3.056,3.056,0,0,1-2.991-3.112v-3.465a2.993,2.993,0,1,1,5.981,0v3.465A3.056,3.056,0,0,1,235.26,228.434Zm0-7.8a1.167,1.167,0,0,0-1.1,1.222v3.465a1.106,1.106,0,1,0,2.2,0v-3.465A1.167,1.167,0,0,0,235.26,220.635Z" transform="translate(-232.269 -218.745)" fill="#ffcd69"/>
                  </g>
                </g>
              </g>
              <g id="Grupo_1180638" data-name="Grupo 1180638" transform="translate(52.433 0.153)">
                <g id="Grupo_1180637" data-name="Grupo 1180637">
                  <g id="Grupo_1180636" data-name="Grupo 1180636">
                    <path id="Trazado_1042462" data-name="Trazado 1042462" d="M418.528,229.34a.945.945,0,0,1-.945-.945v-6.548h-.567a.945.945,0,0,1,0-1.89h1.512a.945.945,0,0,1,.945.945v7.493A.945.945,0,0,1,418.528,229.34Z" transform="translate(-416.071 -219.957)" fill="#ffcd69"/>
                  </g>
                </g>
              </g>
              <g id="Grupo_1180641" data-name="Grupo 1180641" transform="translate(43.961)">
                <g id="Grupo_1180640" data-name="Grupo 1180640">
                  <g id="Grupo_1180639" data-name="Grupo 1180639">
                    <path id="Trazado_1042463" data-name="Trazado 1042463" d="M351.832,228.434a3.056,3.056,0,0,1-2.991-3.112v-3.465a2.993,2.993,0,1,1,5.981,0v3.465A3.056,3.056,0,0,1,351.832,228.434Zm0-7.8a1.167,1.167,0,0,0-1.1,1.222v3.465a1.106,1.106,0,1,0,2.2,0v-3.465A1.167,1.167,0,0,0,351.832,220.635Z" transform="translate(-348.841 -218.745)" fill="#ffcd69"/>
                  </g>
                </g>
              </g>
              <g id="Grupo_1180644" data-name="Grupo 1180644" transform="translate(37.743 12.589)">
                <g id="Grupo_1180643" data-name="Grupo 1180643">
                  <g id="Grupo_1180642" data-name="Grupo 1180642">
                    <path id="Trazado_1042464" data-name="Trazado 1042464" d="M301.955,328.028a.945.945,0,0,1-.945-.945v-6.548h-.567a.945.945,0,1,1,0-1.89h1.512a.945.945,0,0,1,.945.945v7.493A.945.945,0,0,1,301.955,328.028Z" transform="translate(-299.498 -318.645)" fill="#ffcd69"/>
                  </g>
                </g>
              </g>
              <g id="Grupo_1180647" data-name="Grupo 1180647" transform="translate(29.271 12.437)">
                <g id="Grupo_1180646" data-name="Grupo 1180646">
                  <g id="Grupo_1180645" data-name="Grupo 1180645">
                    <path id="Trazado_1042465" data-name="Trazado 1042465" d="M235.26,327.121a3.056,3.056,0,0,1-2.991-3.112v-3.465a2.993,2.993,0,1,1,5.981,0v3.465A3.056,3.056,0,0,1,235.26,327.121Zm0-7.8a1.167,1.167,0,0,0-1.1,1.222v3.465a1.106,1.106,0,1,0,2.2,0v-3.465A1.167,1.167,0,0,0,235.26,319.322Z" transform="translate(-232.269 -317.432)" fill="#ffcd69"/>
                  </g>
                </g>
              </g>
              <g id="Grupo_1180650" data-name="Grupo 1180650" transform="translate(52.433 12.589)">
                <g id="Grupo_1180649" data-name="Grupo 1180649">
                  <g id="Grupo_1180648" data-name="Grupo 1180648">
                    <path id="Trazado_1042466" data-name="Trazado 1042466" d="M418.528,328.028a.945.945,0,0,1-.945-.945v-6.548h-.567a.945.945,0,1,1,0-1.89h1.512a.945.945,0,0,1,.945.945v7.493A.945.945,0,0,1,418.528,328.028Z" transform="translate(-416.071 -318.645)" fill="#ffcd69"/>
                  </g>
                </g>
              </g>
              <g id="Grupo_1180653" data-name="Grupo 1180653" transform="translate(43.961 12.437)">
                <g id="Grupo_1180652" data-name="Grupo 1180652">
                  <g id="Grupo_1180651" data-name="Grupo 1180651">
                    <path id="Trazado_1042467" data-name="Trazado 1042467" d="M351.832,327.121a3.056,3.056,0,0,1-2.991-3.112v-3.465a2.993,2.993,0,1,1,5.981,0v3.465A3.056,3.056,0,0,1,351.832,327.121Zm0-7.8a1.167,1.167,0,0,0-1.1,1.222v3.465a1.106,1.106,0,1,0,2.2,0v-3.465A1.167,1.167,0,0,0,351.832,319.322Z" transform="translate(-348.841 -317.432)" fill="#ffcd69"/>
                  </g>
                </g>
              </g>
              <g id="Grupo_1180656" data-name="Grupo 1180656" transform="translate(58.541)">
                <g id="Grupo_1180655" data-name="Grupo 1180655">
                  <g id="Grupo_1180654" data-name="Grupo 1180654">
                    <path id="Trazado_1042468" data-name="Trazado 1042468" d="M467.529,228.434a3.056,3.056,0,0,1-2.99-3.112v-3.465a2.993,2.993,0,1,1,5.981,0v3.465A3.056,3.056,0,0,1,467.529,228.434Zm0-7.8a1.167,1.167,0,0,0-1.1,1.222v3.465a1.106,1.106,0,1,0,2.2,0v-3.465A1.167,1.167,0,0,0,467.529,220.635Z" transform="translate(-464.539 -218.745)" fill="#ffcd69"/>
                  </g>
                </g>
              </g>
              <g id="Grupo_1180659" data-name="Grupo 1180659" transform="translate(58.541 12.437)">
                <g id="Grupo_1180658" data-name="Grupo 1180658">
                  <g id="Grupo_1180657" data-name="Grupo 1180657">
                    <path id="Trazado_1042469" data-name="Trazado 1042469" d="M467.529,327.121a3.056,3.056,0,0,1-2.99-3.112v-3.465a2.993,2.993,0,1,1,5.981,0v3.465A3.056,3.056,0,0,1,467.529,327.121Zm0-7.8a1.167,1.167,0,0,0-1.1,1.222v3.465a1.106,1.106,0,1,0,2.2,0v-3.465A1.167,1.167,0,0,0,467.529,319.322Z" transform="translate(-464.539 -317.432)" fill="#ffcd69"/>
                  </g>
                </g>
              </g>
            </g>
            <g id="Grupo_1180663" data-name="Grupo 1180663" transform="translate(8.472 49.6)">
              <g id="Grupo_1180662" data-name="Grupo 1180662">
                <g id="Grupo_1180661" data-name="Grupo 1180661">
                  <path id="Trazado_1042470" data-name="Trazado 1042470" d="M69.686,424.34a.945.945,0,0,1-.945-.945v-6.548h-.567a.945.945,0,1,1,0-1.89h1.512a.945.945,0,0,1,.945.945v7.493A.945.945,0,0,1,69.686,424.34Z" transform="translate(-67.229 -414.957)" fill="#ffcd69"/>
                </g>
              </g>
            </g>
            <g id="Grupo_1180666" data-name="Grupo 1180666" transform="translate(0 49.447)">
              <g id="Grupo_1180665" data-name="Grupo 1180665">
                <g id="Grupo_1180664" data-name="Grupo 1180664">
                  <path id="Trazado_1042471" data-name="Trazado 1042471" d="M2.991,423.434A3.056,3.056,0,0,1,0,420.322v-3.465a3.056,3.056,0,0,1,2.991-3.112,3.056,3.056,0,0,1,2.991,3.112v3.465A3.057,3.057,0,0,1,2.991,423.434Zm0-7.8a1.167,1.167,0,0,0-1.1,1.221v3.465a1.167,1.167,0,0,0,1.1,1.222,1.167,1.167,0,0,0,1.1-1.222v-3.465a1.167,1.167,0,0,0-1.1-1.221Z" transform="translate(0 -413.745)" fill="#ffcd69"/>
                </g>
              </g>
            </g>
            <g id="Grupo_1180669" data-name="Grupo 1180669" transform="translate(23.163 49.6)">
              <g id="Grupo_1180668" data-name="Grupo 1180668">
                <g id="Grupo_1180667" data-name="Grupo 1180667">
                  <path id="Trazado_1042472" data-name="Trazado 1042472" d="M186.258,424.34a.945.945,0,0,1-.945-.945v-6.548h-.567a.945.945,0,1,1,0-1.89h1.512a.945.945,0,0,1,.945.945v7.493A.945.945,0,0,1,186.258,424.34Z" transform="translate(-183.801 -414.957)" fill="#ffcd69"/>
                </g>
              </g>
            </g>
            <g id="Grupo_1180672" data-name="Grupo 1180672" transform="translate(14.69 49.447)">
              <g id="Grupo_1180671" data-name="Grupo 1180671">
                <g id="Grupo_1180670" data-name="Grupo 1180670">
                  <path id="Trazado_1042473" data-name="Trazado 1042473" d="M119.562,423.434a3.056,3.056,0,0,1-2.991-3.112v-3.465a2.993,2.993,0,1,1,5.981,0v3.465A3.056,3.056,0,0,1,119.562,423.434Zm0-7.8a1.167,1.167,0,0,0-1.1,1.221v3.465a1.106,1.106,0,1,0,2.2,0v-3.465A1.167,1.167,0,0,0,119.562,415.635Z" transform="translate(-116.571 -413.745)" fill="#ffcd69"/>
                </g>
              </g>
            </g>
            <g id="Grupo_1180675" data-name="Grupo 1180675" transform="translate(37.743 49.6)">
              <g id="Grupo_1180674" data-name="Grupo 1180674">
                <g id="Grupo_1180673" data-name="Grupo 1180673">
                  <path id="Trazado_1042474" data-name="Trazado 1042474" d="M301.955,424.34a.945.945,0,0,1-.945-.945v-6.548h-.567a.945.945,0,1,1,0-1.89h1.512a.945.945,0,0,1,.945.945v7.493A.945.945,0,0,1,301.955,424.34Z" transform="translate(-299.498 -414.957)" fill="#ffcd69"/>
                </g>
              </g>
            </g>
            <g id="Grupo_1180678" data-name="Grupo 1180678" transform="translate(29.271 49.447)">
              <g id="Grupo_1180677" data-name="Grupo 1180677">
                <g id="Grupo_1180676" data-name="Grupo 1180676">
                  <path id="Trazado_1042475" data-name="Trazado 1042475" d="M235.26,423.434a3.056,3.056,0,0,1-2.991-3.112v-3.465a2.993,2.993,0,1,1,5.981,0v3.465A3.056,3.056,0,0,1,235.26,423.434Zm0-7.8a1.167,1.167,0,0,0-1.1,1.221v3.465a1.106,1.106,0,1,0,2.2,0v-3.465A1.167,1.167,0,0,0,235.26,415.635Z" transform="translate(-232.269 -413.745)" fill="#ffcd69"/>
                </g>
              </g>
            </g>
            <g id="Grupo_1180681" data-name="Grupo 1180681" transform="translate(52.433 49.6)">
              <g id="Grupo_1180680" data-name="Grupo 1180680">
                <g id="Grupo_1180679" data-name="Grupo 1180679">
                  <path id="Trazado_1042476" data-name="Trazado 1042476" d="M418.528,424.34a.945.945,0,0,1-.945-.945v-6.548h-.567a.945.945,0,1,1,0-1.89h1.512a.945.945,0,0,1,.945.945v7.493A.945.945,0,0,1,418.528,424.34Z" transform="translate(-416.071 -414.957)" fill="#ffcd69"/>
                </g>
              </g>
            </g>
            <g id="Grupo_1180684" data-name="Grupo 1180684" transform="translate(43.961 49.447)">
              <g id="Grupo_1180683" data-name="Grupo 1180683">
                <g id="Grupo_1180682" data-name="Grupo 1180682">
                  <path id="Trazado_1042477" data-name="Trazado 1042477" d="M351.832,423.434a3.056,3.056,0,0,1-2.991-3.112v-3.465a2.993,2.993,0,1,1,5.981,0v3.465A3.056,3.056,0,0,1,351.832,423.434Zm0-7.8a1.167,1.167,0,0,0-1.1,1.221v3.465a1.106,1.106,0,1,0,2.2,0v-3.465A1.167,1.167,0,0,0,351.832,415.635Z" transform="translate(-348.841 -413.745)" fill="#ffcd69"/>
                </g>
              </g>
            </g>
            <g id="Grupo_1180687" data-name="Grupo 1180687" transform="translate(58.541 49.447)">
              <g id="Grupo_1180686" data-name="Grupo 1180686">
                <g id="Grupo_1180685" data-name="Grupo 1180685">
                  <path id="Trazado_1042478" data-name="Trazado 1042478" d="M467.529,423.434a3.056,3.056,0,0,1-2.99-3.112v-3.465a2.993,2.993,0,1,1,5.981,0v3.465A3.056,3.056,0,0,1,467.529,423.434Zm0-7.8a1.167,1.167,0,0,0-1.1,1.221v3.465a1.106,1.106,0,1,0,2.2,0v-3.465A1.167,1.167,0,0,0,467.529,415.635Z" transform="translate(-464.539 -413.745)" fill="#ffcd69"/>
                </g>
              </g>
            </g>
          </g>
          <g id="Grupo_1180689" data-name="Grupo 1180689" transform="translate(32.498 29.746)">
            <path id="Trazado_1042479" data-name="Trazado 1042479" d="M284.95,276.169l-8.312,8.312c-1.718-2.582-3.634-5.256-5.772-7.98a125.819,125.819,0,0,0-12.987-14.165l4.926-4.926A129.435,129.435,0,0,0,277.258,270.6C279.878,272.645,282.453,274.5,284.95,276.169Z" transform="translate(-257.879 -257.41)" fill="#ffae0d"/>
          </g>
          <g id="Grupo_1180690" data-name="Grupo 1180690" transform="translate(35.498 29.746)">
            <path id="Trazado_1042480" data-name="Trazado 1042480" d="M298.062,270.6a129.428,129.428,0,0,1-14.453-13.186l-1.926,1.926a129.255,129.255,0,0,0,12.6,11.26c2.62,2.049,5.2,3.9,7.692,5.573l-6.064,6.064q.79,1.134,1.532,2.248l8.312-8.312C303.258,274.5,300.682,272.645,298.062,270.6Z" transform="translate(-281.683 -257.41)" fill="#fa0"/>
          </g>
          <g id="Grupo_1180691" data-name="Grupo 1180691" transform="translate(14.059 11.307)">
            <circle id="Elipse_12490" data-name="Elipse 12490" cx="16.762" cy="16.762" r="16.762" fill="#feeb65"/>
          </g>
          <g id="Grupo_1180692" data-name="Grupo 1180692" transform="translate(28.931 11.308)">
            <path id="Trazado_1042481" data-name="Trazado 1042481" d="M243.316,116.012a16.73,16.73,0,0,0-13.743-4.8,16.761,16.761,0,0,1,0,33.309,16.762,16.762,0,0,0,13.743-28.507Z" transform="translate(-229.573 -111.103)" fill="#fede03"/>
          </g>
          <g id="Grupo_1180702" data-name="Grupo 1180702" transform="translate(18.448 21.029)">
            <g id="Grupo_1180695" data-name="Grupo 1180695" transform="translate(9.938 0.251)">
              <g id="Grupo_1180694" data-name="Grupo 1180694">
                <g id="Grupo_1180693" data-name="Grupo 1180693">
                  <path id="Trazado_1042482" data-name="Trazado 1042482" d="M228.694,204.4a.945.945,0,0,1-.945-.945v-11.34h-1.556a.945.945,0,0,1,0-1.89h2.5a.945.945,0,0,1,.945.945v12.285A.945.945,0,0,1,228.694,204.4Z" transform="translate(-225.247 -190.229)" fill="#ffcd69"/>
                </g>
              </g>
            </g>
            <g id="Grupo_1180698" data-name="Grupo 1180698">
              <g id="Grupo_1180697" data-name="Grupo 1180697">
                <g id="Grupo_1180696" data-name="Grupo 1180696">
                  <path id="Trazado_1042483" data-name="Trazado 1042483" d="M150.717,202.917a4.421,4.421,0,0,1-4.329-4.5v-5.681a4.332,4.332,0,1,1,8.659,0v5.681A4.421,4.421,0,0,1,150.717,202.917Zm0-12.786a2.53,2.53,0,0,0-2.439,2.607v5.681a2.444,2.444,0,1,0,4.878,0v-5.681A2.53,2.53,0,0,0,150.717,190.131Z" transform="translate(-146.388 -188.241)" fill="#ffcd69"/>
                </g>
              </g>
            </g>
            <g id="Grupo_1180701" data-name="Grupo 1180701" transform="translate(16.22)">
              <g id="Grupo_1180700" data-name="Grupo 1180700">
                <g id="Grupo_1180699" data-name="Grupo 1180699">
                  <path id="Trazado_1042484" data-name="Trazado 1042484" d="M279.425,202.917a4.421,4.421,0,0,1-4.329-4.5v-5.681a4.332,4.332,0,1,1,8.659,0v5.681A4.421,4.421,0,0,1,279.425,202.917Zm0-12.786a2.53,2.53,0,0,0-2.439,2.607v5.681a2.444,2.444,0,1,0,4.878,0v-5.681A2.53,2.53,0,0,0,279.425,190.131Z" transform="translate(-275.096 -188.241)" fill="#ffcd69"/>
                </g>
              </g>
            </g>
          </g>
        </g>
        <g id="Grupo_1180791" data-name="Grupo 1180791" transform="translate(0 0)">
          <g id="Grupo_1180705" data-name="Grupo 1180705" transform="translate(8.472 0.153)">
            <g id="Grupo_1180704" data-name="Grupo 1180704">
              <path id="Trazado_1042485" data-name="Trazado 1042485" d="M69.686,31.967a.945.945,0,0,1-.945-.945V24.474h-.567a.945.945,0,0,1,0-1.89h1.512a.945.945,0,0,1,.945.945v7.493A.945.945,0,0,1,69.686,31.967Z" transform="translate(-67.229 -22.584)"/>
            </g>
          </g>
          <g id="Grupo_1180707" data-name="Grupo 1180707">
            <g id="Grupo_1180706" data-name="Grupo 1180706">
              <path id="Trazado_1042486" data-name="Trazado 1042486" d="M2.99,31.06A3.057,3.057,0,0,1,0,27.948V24.483a3.056,3.056,0,0,1,2.99-3.112,3.056,3.056,0,0,1,2.991,3.112v3.465A3.057,3.057,0,0,1,2.99,31.06Zm0-7.8a1.167,1.167,0,0,0-1.1,1.222v3.465a1.167,1.167,0,0,0,1.1,1.222,1.167,1.167,0,0,0,1.1-1.222V24.483A1.167,1.167,0,0,0,2.99,23.261Z" transform="translate(0 -21.371)"/>
            </g>
          </g>
          <g id="Grupo_1180709" data-name="Grupo 1180709" transform="translate(23.163 0.153)">
            <g id="Grupo_1180708" data-name="Grupo 1180708">
              <path id="Trazado_1042487" data-name="Trazado 1042487" d="M186.258,31.967a.945.945,0,0,1-.945-.945V24.474h-.567a.945.945,0,0,1,0-1.89h1.512a.945.945,0,0,1,.945.945v7.493A.945.945,0,0,1,186.258,31.967Z" transform="translate(-183.801 -22.584)"/>
            </g>
          </g>
          <g id="Grupo_1180711" data-name="Grupo 1180711" transform="translate(14.69)">
            <g id="Grupo_1180710" data-name="Grupo 1180710">
              <path id="Trazado_1042488" data-name="Trazado 1042488" d="M119.562,31.06a3.056,3.056,0,0,1-2.99-3.112V24.483a2.993,2.993,0,1,1,5.981,0v3.465A3.057,3.057,0,0,1,119.562,31.06Zm0-7.8a1.167,1.167,0,0,0-1.1,1.222v3.465a1.106,1.106,0,1,0,2.2,0V24.483A1.167,1.167,0,0,0,119.562,23.261Z" transform="translate(-116.572 -21.371)"/>
            </g>
          </g>
          <g id="Grupo_1180713" data-name="Grupo 1180713" transform="translate(8.472 12.589)">
            <g id="Grupo_1180712" data-name="Grupo 1180712">
              <path id="Trazado_1042489" data-name="Trazado 1042489" d="M69.686,130.654a.945.945,0,0,1-.945-.945v-6.548h-.567a.945.945,0,1,1,0-1.89h1.512a.945.945,0,0,1,.945.945v7.493A.945.945,0,0,1,69.686,130.654Z" transform="translate(-67.229 -121.271)"/>
            </g>
          </g>
          <g id="Grupo_1180715" data-name="Grupo 1180715" transform="translate(0 12.437)">
            <g id="Grupo_1180714" data-name="Grupo 1180714">
              <path id="Trazado_1042490" data-name="Trazado 1042490" d="M2.99,129.747A3.056,3.056,0,0,1,0,126.635V123.17a3.056,3.056,0,0,1,2.99-3.112,3.056,3.056,0,0,1,2.991,3.112v3.465a3.056,3.056,0,0,1-2.991,3.112Zm0-7.8a1.167,1.167,0,0,0-1.1,1.222v3.465a1.167,1.167,0,0,0,1.1,1.222,1.167,1.167,0,0,0,1.1-1.222V123.17A1.167,1.167,0,0,0,2.99,121.948Z" transform="translate(0 -120.058)"/>
            </g>
          </g>
          <g id="Grupo_1180717" data-name="Grupo 1180717" transform="translate(14.69 12.437)">
            <g id="Grupo_1180716" data-name="Grupo 1180716">
              <path id="Trazado_1042491" data-name="Trazado 1042491" d="M117.875,128.808a.944.944,0,0,1-.793-.43,3.186,3.186,0,0,1-.512-1.741v-3.466a2.991,2.991,0,1,1,5.98-.059.945.945,0,0,1-.929.961H121.6a.945.945,0,0,1-.945-.929,1.1,1.1,0,1,0-2.2.027v3.466a1.3,1.3,0,0,0,.206.711.945.945,0,0,1-.791,1.46Z" transform="translate(-116.57 -120.06)"/>
            </g>
          </g>
          <g id="Grupo_1180719" data-name="Grupo 1180719" transform="translate(37.743 0.153)">
            <g id="Grupo_1180718" data-name="Grupo 1180718">
              <path id="Trazado_1042492" data-name="Trazado 1042492" d="M301.956,31.967a.945.945,0,0,1-.945-.945V24.474h-.567a.945.945,0,1,1,0-1.89h1.512a.945.945,0,0,1,.945.945v7.493A.945.945,0,0,1,301.956,31.967Z" transform="translate(-299.499 -22.584)"/>
            </g>
          </g>
          <g id="Grupo_1180721" data-name="Grupo 1180721" transform="translate(29.271)">
            <g id="Grupo_1180720" data-name="Grupo 1180720">
              <path id="Trazado_1042493" data-name="Trazado 1042493" d="M235.26,31.06a3.056,3.056,0,0,1-2.991-3.112V24.483a2.993,2.993,0,1,1,5.981,0v3.465A3.056,3.056,0,0,1,235.26,31.06Zm0-7.8a1.167,1.167,0,0,0-1.1,1.222v3.465a1.106,1.106,0,1,0,2.2,0V24.483A1.167,1.167,0,0,0,235.26,23.261Z" transform="translate(-232.269 -21.371)"/>
            </g>
          </g>
          <g id="Grupo_1180723" data-name="Grupo 1180723" transform="translate(52.433 0.153)">
            <g id="Grupo_1180722" data-name="Grupo 1180722">
              <path id="Trazado_1042494" data-name="Trazado 1042494" d="M418.527,31.967a.945.945,0,0,1-.945-.945V24.474h-.567a.945.945,0,1,1,0-1.89h1.512a.945.945,0,0,1,.945.945v7.493A.945.945,0,0,1,418.527,31.967Z" transform="translate(-416.07 -22.584)"/>
            </g>
          </g>
          <g id="Grupo_1180725" data-name="Grupo 1180725" transform="translate(43.961)">
            <g id="Grupo_1180724" data-name="Grupo 1180724">
              <path id="Trazado_1042495" data-name="Trazado 1042495" d="M351.832,31.06a3.056,3.056,0,0,1-2.991-3.112V24.483a2.993,2.993,0,1,1,5.981,0v3.465A3.056,3.056,0,0,1,351.832,31.06Zm0-7.8a1.167,1.167,0,0,0-1.1,1.222v3.465a1.106,1.106,0,1,0,2.2,0V24.483A1.167,1.167,0,0,0,351.832,23.261Z" transform="translate(-348.841 -21.371)"/>
            </g>
          </g>
          <g id="Grupo_1180727" data-name="Grupo 1180727" transform="translate(38.232 12.589)">
            <g id="Grupo_1180726" data-name="Grupo 1180726">
              <path id="Trazado_1042496" data-name="Trazado 1042496" d="M305.348,123.8a.946.946,0,0,1-.895-.639h-.129a.945.945,0,0,1,0-1.89h1.023a.945.945,0,0,1,.945.945v.639A.945.945,0,0,1,305.348,123.8Z" transform="translate(-303.38 -121.269)"/>
            </g>
          </g>
          <g id="Grupo_1180729" data-name="Grupo 1180729" transform="translate(52.433 12.589)">
            <g id="Grupo_1180728" data-name="Grupo 1180728">
              <path id="Trazado_1042497" data-name="Trazado 1042497" d="M418.527,130.654a.945.945,0,0,1-.945-.945v-6.548h-.567a.945.945,0,1,1,0-1.89h1.512a.945.945,0,0,1,.945.945v7.493A.945.945,0,0,1,418.527,130.654Z" transform="translate(-416.07 -121.271)"/>
            </g>
          </g>
          <g id="Grupo_1180731" data-name="Grupo 1180731" transform="translate(43.961 12.437)">
            <g id="Grupo_1180730" data-name="Grupo 1180730">
              <path id="Trazado_1042498" data-name="Trazado 1042498" d="M351.831,129.748a2.9,2.9,0,0,1-1.428-.378.945.945,0,1,1,.934-1.643.989.989,0,0,0,.495.131,1.167,1.167,0,0,0,1.1-1.221v-3.466a1.106,1.106,0,1,0-2.2,0V126.6a.945.945,0,0,1-1.89,0v-3.428a2.993,2.993,0,1,1,5.981,0v3.466A3.056,3.056,0,0,1,351.831,129.748Z" transform="translate(-348.84 -120.06)"/>
            </g>
          </g>
          <g id="Grupo_1180733" data-name="Grupo 1180733" transform="translate(58.541)">
            <g id="Grupo_1180732" data-name="Grupo 1180732">
              <path id="Trazado_1042499" data-name="Trazado 1042499" d="M467.529,31.06a3.056,3.056,0,0,1-2.99-3.112V24.483a2.993,2.993,0,1,1,5.981,0v3.465A3.057,3.057,0,0,1,467.529,31.06Zm0-7.8a1.167,1.167,0,0,0-1.1,1.222v3.465a1.106,1.106,0,1,0,2.2,0V24.483A1.167,1.167,0,0,0,467.529,23.261Z" transform="translate(-464.539 -21.371)"/>
            </g>
          </g>
          <g id="Grupo_1180735" data-name="Grupo 1180735" transform="translate(58.541 12.437)">
            <g id="Grupo_1180734" data-name="Grupo 1180734">
              <path id="Trazado_1042500" data-name="Trazado 1042500" d="M467.529,129.747a3.056,3.056,0,0,1-2.99-3.112V123.17a2.993,2.993,0,1,1,5.981,0v3.465A3.056,3.056,0,0,1,467.529,129.747Zm0-7.8a1.167,1.167,0,0,0-1.1,1.222v3.465a1.106,1.106,0,1,0,2.2,0V123.17A1.167,1.167,0,0,0,467.529,121.948Z" transform="translate(-464.539 -120.058)"/>
            </g>
          </g>
          <g id="Grupo_1180737" data-name="Grupo 1180737" transform="translate(8.472 25.026)">
            <g id="Grupo_1180736" data-name="Grupo 1180736">
              <path id="Trazado_1042501" data-name="Trazado 1042501" d="M69.686,229.341a.945.945,0,0,1-.945-.945v-6.548h-.567a.945.945,0,1,1,0-1.89h1.512a.945.945,0,0,1,.945.945V228.4A.945.945,0,0,1,69.686,229.341Z" transform="translate(-67.229 -219.958)"/>
            </g>
          </g>
          <g id="Grupo_1180739" data-name="Grupo 1180739" transform="translate(0 24.873)">
            <g id="Grupo_1180738" data-name="Grupo 1180738">
              <path id="Trazado_1042502" data-name="Trazado 1042502" d="M2.99,228.434A3.057,3.057,0,0,1,0,225.322v-3.465a3.056,3.056,0,0,1,2.99-3.112,3.056,3.056,0,0,1,2.991,3.112v3.465a3.057,3.057,0,0,1-2.991,3.112Zm0-7.8a1.167,1.167,0,0,0-1.1,1.222v3.465a1.167,1.167,0,0,0,1.1,1.222,1.167,1.167,0,0,0,1.1-1.222v-3.465A1.167,1.167,0,0,0,2.99,220.635Z" transform="translate(0 -218.745)"/>
            </g>
          </g>
          <g id="Grupo_1180741" data-name="Grupo 1180741" transform="translate(8.472 37.462)">
            <g id="Grupo_1180740" data-name="Grupo 1180740">
              <path id="Trazado_1042503" data-name="Trazado 1042503" d="M69.686,328.027a.945.945,0,0,1-.945-.945v-6.548h-.567a.945.945,0,0,1,0-1.89h1.512a.945.945,0,0,1,.945.945v7.493A.945.945,0,0,1,69.686,328.027Z" transform="translate(-67.229 -318.644)"/>
            </g>
          </g>
          <g id="Grupo_1180743" data-name="Grupo 1180743" transform="translate(0 37.31)">
            <g id="Grupo_1180742" data-name="Grupo 1180742">
              <path id="Trazado_1042504" data-name="Trazado 1042504" d="M2.99,327.121A3.056,3.056,0,0,1,0,324.009v-3.465a3.056,3.056,0,0,1,2.99-3.112,3.056,3.056,0,0,1,2.991,3.112v3.465a3.056,3.056,0,0,1-2.991,3.112Zm0-7.8a1.167,1.167,0,0,0-1.1,1.222v3.465a1.167,1.167,0,0,0,1.1,1.221,1.167,1.167,0,0,0,1.1-1.221v-3.465A1.167,1.167,0,0,0,2.99,319.322Z" transform="translate(0 -317.432)"/>
            </g>
          </g>
          <g id="Grupo_1180745" data-name="Grupo 1180745" transform="translate(24.675 43.062)">
            <g id="Grupo_1180744" data-name="Grupo 1180744">
              <path id="Trazado_1042505" data-name="Trazado 1042505" d="M196.745,366.862a.945.945,0,0,1-.945-.945v-1.893a.945.945,0,1,1,1.89,0v1.893A.945.945,0,0,1,196.745,366.862Z" transform="translate(-195.8 -363.079)"/>
            </g>
          </g>
          <g id="Grupo_1180747" data-name="Grupo 1180747" transform="translate(14.69 37.317)">
            <g id="Grupo_1180746" data-name="Grupo 1180746">
              <path id="Trazado_1042506" data-name="Trazado 1042506" d="M119.56,327.17a3.056,3.056,0,0,1-2.99-3.111v-3.464a3.081,3.081,0,0,1,2.744-3.1.945.945,0,1,1,.16,1.883,1.182,1.182,0,0,0-1.014,1.218v3.464a1.106,1.106,0,1,0,2.2,0V320.8a.945.945,0,0,1,1.89,0v3.254A3.056,3.056,0,0,1,119.56,327.17Z" transform="translate(-116.57 -317.489)"/>
            </g>
          </g>
          <g id="Grupo_1180749" data-name="Grupo 1180749" transform="translate(52.433 25.026)">
            <g id="Grupo_1180748" data-name="Grupo 1180748">
              <path id="Trazado_1042507" data-name="Trazado 1042507" d="M418.527,229.341a.945.945,0,0,1-.945-.945v-6.548h-.567a.945.945,0,1,1,0-1.89h1.512a.945.945,0,0,1,.945.945V228.4A.945.945,0,0,1,418.527,229.341Z" transform="translate(-416.07 -219.958)"/>
            </g>
          </g>
          <g id="Grupo_1180751" data-name="Grupo 1180751" transform="translate(45.705 24.934)">
            <g id="Grupo_1180750" data-name="Grupo 1180750">
              <path id="Trazado_1042508" data-name="Trazado 1042508" d="M363.925,228.855a2.775,2.775,0,0,1-.458-.037.945.945,0,0,1,.313-1.864.88.88,0,0,0,.145.011,1.167,1.167,0,0,0,1.1-1.222v-3.464a1.2,1.2,0,0,0-.85-1.191.945.945,0,0,1,.474-1.83,3.086,3.086,0,0,1,2.266,3.021v3.464A3.057,3.057,0,0,1,363.925,228.855Z" transform="translate(-362.679 -219.227)"/>
            </g>
          </g>
          <g id="Grupo_1180753" data-name="Grupo 1180753" transform="translate(39.255 41.595)">
            <g id="Grupo_1180752" data-name="Grupo 1180752">
              <path id="Trazado_1042509" data-name="Trazado 1042509" d="M312.445,356.689a.945.945,0,0,1-.945-.945v-3.36a.945.945,0,1,1,1.89,0v3.36A.945.945,0,0,1,312.445,356.689Z" transform="translate(-311.5 -351.439)"/>
            </g>
          </g>
          <g id="Grupo_1180755" data-name="Grupo 1180755" transform="translate(29.472 43.537)">
            <g id="Grupo_1180754" data-name="Grupo 1180754">
              <path id="Trazado_1042510" data-name="Trazado 1042510" d="M236.657,370.308a3,3,0,0,1-2.7-1.78.945.945,0,1,1,1.721-.783,1.09,1.09,0,0,0,.983.672,1.126,1.126,0,0,0,1.053-.87.945.945,0,0,1,1.826.489A3.017,3.017,0,0,1,236.657,370.308Z" transform="translate(-233.868 -366.847)"/>
            </g>
          </g>
          <g id="Grupo_1180757" data-name="Grupo 1180757" transform="translate(52.433 37.463)">
            <g id="Grupo_1180756" data-name="Grupo 1180756">
              <path id="Trazado_1042511" data-name="Trazado 1042511" d="M418.527,327.349a.945.945,0,0,1-.945-.945v-5.865h-.567a.945.945,0,0,1,0-1.89h1.512a.945.945,0,0,1,.945.945v6.81A.945.945,0,0,1,418.527,327.349Z" transform="translate(-416.07 -318.649)"/>
            </g>
          </g>
          <g id="Grupo_1180759" data-name="Grupo 1180759" transform="translate(45.4 37.309)">
            <g id="Grupo_1180758" data-name="Grupo 1180758">
              <path id="Trazado_1042512" data-name="Trazado 1042512" d="M363.855,321.675a.945.945,0,0,1-.945-.945v-.188a1.167,1.167,0,0,0-1.1-1.222,1.032,1.032,0,0,0-.317.05.945.945,0,0,1-.579-1.8,2.922,2.922,0,0,1,.9-.141,3.057,3.057,0,0,1,2.99,3.113v.188A.945.945,0,0,1,363.855,321.675Z" transform="translate(-360.258 -317.429)"/>
            </g>
          </g>
          <g id="Grupo_1180761" data-name="Grupo 1180761" transform="translate(58.541 24.873)">
            <g id="Grupo_1180760" data-name="Grupo 1180760">
              <path id="Trazado_1042513" data-name="Trazado 1042513" d="M467.529,228.435a3.056,3.056,0,0,1-2.99-3.112v-3.465a2.993,2.993,0,1,1,5.981,0v3.465A3.057,3.057,0,0,1,467.529,228.435Zm0-7.8a1.167,1.167,0,0,0-1.1,1.222v3.465a1.106,1.106,0,1,0,2.2,0v-3.465A1.167,1.167,0,0,0,467.529,220.636Z" transform="translate(-464.539 -218.746)"/>
            </g>
          </g>
          <g id="Grupo_1180763" data-name="Grupo 1180763" transform="translate(58.541 37.31)">
            <g id="Grupo_1180762" data-name="Grupo 1180762">
              <path id="Trazado_1042514" data-name="Trazado 1042514" d="M467.529,327.121a3.056,3.056,0,0,1-2.99-3.112v-3.465a2.993,2.993,0,1,1,5.981,0v3.465A3.056,3.056,0,0,1,467.529,327.121Zm0-7.8a1.167,1.167,0,0,0-1.1,1.222v3.465a1.106,1.106,0,1,0,2.2,0v-3.465A1.167,1.167,0,0,0,467.529,319.322Z" transform="translate(-464.539 -317.432)"/>
            </g>
          </g>
          <g id="Grupo_1180765" data-name="Grupo 1180765" transform="translate(8.472 49.6)">
            <g id="Grupo_1180764" data-name="Grupo 1180764">
              <path id="Trazado_1042515" data-name="Trazado 1042515" d="M69.686,424.341a.945.945,0,0,1-.945-.945v-6.548h-.567a.945.945,0,0,1,0-1.89h1.512a.945.945,0,0,1,.945.945V423.4A.945.945,0,0,1,69.686,424.341Z" transform="translate(-67.229 -414.958)"/>
            </g>
          </g>
          <g id="Grupo_1180767" data-name="Grupo 1180767" transform="translate(0 49.447)">
            <g id="Grupo_1180766" data-name="Grupo 1180766">
              <path id="Trazado_1042516" data-name="Trazado 1042516" d="M2.99,423.434A3.057,3.057,0,0,1,0,420.322v-3.465a3.056,3.056,0,0,1,2.99-3.112,3.056,3.056,0,0,1,2.991,3.112v3.465a3.057,3.057,0,0,1-2.991,3.112Zm0-7.8a1.167,1.167,0,0,0-1.1,1.221v3.465a1.167,1.167,0,0,0,1.1,1.222,1.167,1.167,0,0,0,1.1-1.222v-3.465A1.167,1.167,0,0,0,2.99,415.635Z" transform="translate(0 -413.745)"/>
            </g>
          </g>
          <g id="Grupo_1180769" data-name="Grupo 1180769" transform="translate(23.163 49.6)">
            <g id="Grupo_1180768" data-name="Grupo 1180768">
              <path id="Trazado_1042517" data-name="Trazado 1042517" d="M186.258,424.341a.945.945,0,0,1-.945-.945v-6.548h-.567a.945.945,0,0,1,0-1.89h1.512a.945.945,0,0,1,.945.945V423.4A.945.945,0,0,1,186.258,424.341Z" transform="translate(-183.801 -414.958)"/>
            </g>
          </g>
          <g id="Grupo_1180771" data-name="Grupo 1180771" transform="translate(14.69 49.447)">
            <g id="Grupo_1180770" data-name="Grupo 1180770">
              <path id="Trazado_1042518" data-name="Trazado 1042518" d="M119.562,423.435a3.056,3.056,0,0,1-2.99-3.112v-3.465a2.993,2.993,0,1,1,5.981,0v3.465A3.056,3.056,0,0,1,119.562,423.435Zm0-7.8a1.167,1.167,0,0,0-1.1,1.221v3.465a1.106,1.106,0,1,0,2.2,0v-3.465A1.167,1.167,0,0,0,119.562,415.636Z" transform="translate(-116.572 -413.746)"/>
            </g>
          </g>
          <g id="Grupo_1180773" data-name="Grupo 1180773" transform="translate(37.743 49.6)">
            <g id="Grupo_1180772" data-name="Grupo 1180772">
              <path id="Trazado_1042519" data-name="Trazado 1042519" d="M301.956,424.341a.945.945,0,0,1-.945-.945v-6.548h-.567a.945.945,0,1,1,0-1.89h1.512a.945.945,0,0,1,.945.945V423.4A.945.945,0,0,1,301.956,424.341Z" transform="translate(-299.499 -414.958)"/>
            </g>
          </g>
          <g id="Grupo_1180775" data-name="Grupo 1180775" transform="translate(29.271 49.447)">
            <g id="Grupo_1180774" data-name="Grupo 1180774">
              <path id="Trazado_1042520" data-name="Trazado 1042520" d="M235.26,423.435a3.056,3.056,0,0,1-2.991-3.112v-3.465a2.993,2.993,0,1,1,5.981,0v3.465A3.056,3.056,0,0,1,235.26,423.435Zm0-7.8a1.167,1.167,0,0,0-1.1,1.221v3.465a1.106,1.106,0,1,0,2.2,0v-3.465A1.167,1.167,0,0,0,235.26,415.636Z" transform="translate(-232.269 -413.746)"/>
            </g>
          </g>
          <g id="Grupo_1180777" data-name="Grupo 1180777" transform="translate(53.946 52.239)">
            <g id="Grupo_1180776" data-name="Grupo 1180776">
              <path id="Trazado_1042521" data-name="Trazado 1042521" d="M429.015,442.642a.945.945,0,0,1-.945-.945v-4.853a.945.945,0,0,1,1.89,0V441.7A.945.945,0,0,1,429.015,442.642Z" transform="translate(-428.07 -435.899)"/>
            </g>
          </g>
          <g id="Grupo_1180779" data-name="Grupo 1180779" transform="translate(43.961 49.464)">
            <g id="Grupo_1180778" data-name="Grupo 1180778">
              <path id="Trazado_1042522" data-name="Trazado 1042522" d="M351.83,423.55a3.057,3.057,0,0,1-2.99-3.113v-3.464a3.074,3.074,0,0,1,2.615-3.087.945.945,0,1,1,.243,1.875,1.182,1.182,0,0,0-.969,1.213v3.464a1.106,1.106,0,1,0,2.2,0V417.95a.945.945,0,0,1,1.89,0v2.488a3.057,3.057,0,0,1-2.99,3.113Z" transform="translate(-348.84 -413.878)"/>
            </g>
          </g>
          <g id="Grupo_1180781" data-name="Grupo 1180781" transform="translate(58.541 49.447)">
            <g id="Grupo_1180780" data-name="Grupo 1180780">
              <path id="Trazado_1042523" data-name="Trazado 1042523" d="M467.529,423.435a3.056,3.056,0,0,1-2.99-3.112v-3.465a2.993,2.993,0,1,1,5.981,0v3.465A3.057,3.057,0,0,1,467.529,423.435Zm0-7.8a1.167,1.167,0,0,0-1.1,1.221v3.465a1.106,1.106,0,1,0,2.2,0v-3.465A1.167,1.167,0,0,0,467.529,415.636Z" transform="translate(-464.539 -413.746)"/>
            </g>
          </g>
          <g id="Grupo_1180782" data-name="Grupo 1180782" transform="translate(38.929 36.159)">
            <path id="Trazado_1042524" data-name="Trazado 1042524" d="M321.238,329.9a.933.933,0,0,1-.094,0,.945.945,0,0,1-.693-.417c-1.807-2.715-3.735-5.38-5.73-7.921-1.78-2.266-3.653-4.489-5.568-6.607a.945.945,0,1,1,1.4-1.268c1.944,2.15,3.846,4.407,5.653,6.708,1.79,2.281,3.527,4.659,5.173,7.084l6.69-6.69c-2.31-1.577-4.591-3.246-6.8-4.971-2.38-1.86-4.73-3.835-6.986-5.87a.945.945,0,0,1,1.266-1.4c2.223,2.005,4.539,3.951,6.884,5.784,2.471,1.934,5.041,3.8,7.636,5.533a.945.945,0,0,1,.143,1.454l-8.312,8.312A.944.944,0,0,1,321.238,329.9Z" transform="translate(-308.91 -308.3)"/>
          </g>
          <g id="Grupo_1180783" data-name="Grupo 1180783" transform="translate(13.114 10.37)">
            <path id="Trazado_1042525" data-name="Trazado 1042525" d="M121.772,139.058a17.7,17.7,0,0,1-16.768-12,.945.945,0,0,1,1.79-.607,15.66,15.66,0,0,0,3.794,6.09,15.816,15.816,0,1,0-4.6-10.182.945.945,0,0,1-1.887.119,17.714,17.714,0,1,1,17.672,16.577Z" transform="translate(-104.065 -103.66)"/>
          </g>
          <g id="Grupo_1180790" data-name="Grupo 1180790" transform="translate(18.448 21.029)">
            <g id="Grupo_1180785" data-name="Grupo 1180785" transform="translate(9.938 0.251)">
              <g id="Grupo_1180784" data-name="Grupo 1180784">
                <path id="Trazado_1042526" data-name="Trazado 1042526" d="M228.694,204.405a.945.945,0,0,1-.945-.945V192.12h-1.556a.945.945,0,0,1,0-1.89h2.5a.945.945,0,0,1,.945.945V203.46A.945.945,0,0,1,228.694,204.405Z" transform="translate(-225.247 -190.23)"/>
              </g>
            </g>
            <g id="Grupo_1180787" data-name="Grupo 1180787">
              <g id="Grupo_1180786" data-name="Grupo 1180786">
                <path id="Trazado_1042527" data-name="Trazado 1042527" d="M150.717,202.917a4.421,4.421,0,0,1-4.329-4.5v-5.681a4.332,4.332,0,1,1,8.659,0v5.681A4.421,4.421,0,0,1,150.717,202.917Zm0-12.786a2.53,2.53,0,0,0-2.439,2.607v5.681a2.444,2.444,0,1,0,4.878,0v-5.681A2.53,2.53,0,0,0,150.717,190.131Z" transform="translate(-146.388 -188.241)"/>
              </g>
            </g>
            <g id="Grupo_1180789" data-name="Grupo 1180789" transform="translate(16.22)">
              <g id="Grupo_1180788" data-name="Grupo 1180788">
                <path id="Trazado_1042528" data-name="Trazado 1042528" d="M279.425,202.917a4.421,4.421,0,0,1-4.329-4.5v-5.681a4.332,4.332,0,1,1,8.659,0v5.681A4.421,4.421,0,0,1,279.425,202.917Zm0-12.786a2.53,2.53,0,0,0-2.439,2.607v5.681a2.444,2.444,0,1,0,4.878,0v-5.681A2.53,2.53,0,0,0,279.425,190.131Z" transform="translate(-275.096 -188.241)"/>
              </g>
            </g>
          </g>
        </g>
      </g>
    </g>
  </g>
</svg>
