<svg xmlns="http://www.w3.org/2000/svg" xmlns:xlink="http://www.w3.org/1999/xlink" width="400" height="295" viewBox="0 0 400 295">
  <defs>
    <clipPath id="clip-path">
      <rect id="Rectángulo_417663" data-name="Rectángulo 417663" width="400" height="295" transform="translate(180 3240)" fill="#fff" stroke="#707070" stroke-width="1"/>
    </clipPath>
    <filter id="Rectángulo_417176" x="15" y="69" width="370" height="165" filterUnits="userSpaceOnUse">
      <feOffset dy="3" input="SourceAlpha"/>
      <feGaussianBlur stdDeviation="3" result="blur"/>
      <feFlood flood-opacity="0.161"/>
      <feComposite operator="in" in2="blur"/>
      <feComposite in="SourceGraphic"/>
    </filter>
    <clipPath id="clip-path-2">
      <rect id="Rectángulo_417662" data-name="Rectángulo 417662" width="310.567" height="273.71" fill="none"/>
    </clipPath>
    <clipPath id="clip-path-10">
      <rect id="Rectángulo_417645" data-name="Rectángulo 417645" width="66.992" height="8.082" fill="none"/>
    </clipPath>
    <clipPath id="clip-path-12">
      <rect id="Rectángulo_417649" data-name="Rectángulo 417649" width="55.458" height="6.69" fill="none"/>
    </clipPath>
    <clipPath id="clip-path-15">
      <rect id="Rectángulo_417652" data-name="Rectángulo 417652" width="101.074" height="83.694" fill="none"/>
    </clipPath>
    <clipPath id="clip-path-16">
      <rect id="Rectángulo_417653" data-name="Rectángulo 417653" width="101.198" height="98.498" fill="none"/>
    </clipPath>
    <clipPath id="clip-path-17">
      <rect id="Rectángulo_417654" data-name="Rectángulo 417654" width="112.152" height="125.08" fill="none"/>
    </clipPath>
    <clipPath id="clip-path-18">
      <rect id="Rectángulo_417655" data-name="Rectángulo 417655" width="34.219" height="9.16" fill="none"/>
    </clipPath>
    <clipPath id="clip-path-20">
      <rect id="Rectángulo_417659" data-name="Rectángulo 417659" width="8.761" height="3.388" fill="none"/>
    </clipPath>
    <filter id="Trazado_1042622" x="36" y="191.492" width="55.287" height="54.063" filterUnits="userSpaceOnUse">
      <feOffset dy="3" input="SourceAlpha"/>
      <feGaussianBlur stdDeviation="3" result="blur-2"/>
      <feFlood flood-opacity="0.161"/>
      <feComposite operator="in" in2="blur-2"/>
      <feComposite in="SourceGraphic"/>
    </filter>
  </defs>
  <g id="Enmascarar_grupo_1098804" data-name="Enmascarar grupo 1098804" transform="translate(-180 -3240)" clip-path="url(#clip-path)">
    <g id="Grupo_1179807" data-name="Grupo 1179807" transform="translate(204 3315)">
      <g id="Grupo_1179804" data-name="Grupo 1179804">
        <g id="Grupo_1179803" data-name="Grupo 1179803">
          <g transform="matrix(1, 0, 0, 1, -24, -75)" filter="url(#Rectángulo_417176)">
            <rect id="Rectángulo_417176-2" data-name="Rectángulo 417176" width="352" height="147" rx="8" transform="translate(24 75)" fill="#521985"/>
          </g>
        </g>
      </g>
    </g>
    <g id="Grupo_1180794" data-name="Grupo 1180794" transform="translate(225 3260.955)">
      <g id="Grupo_1180839" data-name="Grupo 1180839" clip-path="url(#clip-path-2)">
        <rect id="Rectángulo_417599" data-name="Rectángulo 417599" width="211.779" height="129.473" transform="translate(76.545 37.285)" fill="#fff"/>
        <rect id="Rectángulo_417600" data-name="Rectángulo 417600" width="211.779" height="129.473" transform="translate(76.545 37.285)" fill="none" stroke="#e0e0e0" stroke-miterlimit="10" stroke-width="1"/>
        <line id="Línea_1285" data-name="Línea 1285" x1="211.779" transform="translate(76.545 54.061)" fill="none" stroke="#e0e0e0" stroke-miterlimit="10" stroke-width="1"/>
        <g id="Grupo_1180795" data-name="Grupo 1180795">
          <g id="Grupo_1180794-2" data-name="Grupo 1180794" clip-path="url(#clip-path-2)">
            <path id="Trazado_1042529" data-name="Trazado 1042529" d="M41.631,64.2a4.012,4.012,0,1,0,4.013-4.013A4.013,4.013,0,0,0,41.631,64.2" transform="translate(231.728 -17.996)" fill="#e0e0e0"/>
            <path id="Trazado_1042530" data-name="Trazado 1042530" d="M65,64.2a4.012,4.012,0,1,0,4.013-4.013A4.012,4.012,0,0,0,65,64.2" transform="translate(191.974 -17.996)" fill="#f0f0f0"/>
            <path id="Trazado_1042531" data-name="Trazado 1042531" d="M88.374,64.2a4.012,4.012,0,1,0,4.013-4.013A4.013,4.013,0,0,0,88.374,64.2" transform="translate(152.218 -17.996)" fill="#f5f5f5"/>
            <rect id="Rectángulo_417601" data-name="Rectángulo 417601" width="11.288" height="3.113" transform="translate(264.842 86.475)" fill="#e6e6e6"/>
            <rect id="Rectángulo_417602" data-name="Rectángulo 417602" width="76.646" height="3.113" transform="translate(179.97 86.475)" fill="#e6e6e6"/>
            <rect id="Rectángulo_417603" data-name="Rectángulo 417603" width="21.44" height="3.113" transform="translate(151.595 86.475)" fill="#e6e6e6"/>
            <rect id="Rectángulo_417604" data-name="Rectángulo 417604" width="21.44" height="3.113" transform="translate(102.558 128.135)" fill="#e6e6e6"/>
            <rect id="Rectángulo_417605" data-name="Rectángulo 417605" width="37.062" height="3.113" transform="translate(109.872 86.475)" fill="#e6e6e6"/>
            <rect id="Rectángulo_417606" data-name="Rectángulo 417606" width="11.287" height="3.113" transform="translate(253.555 94.807)" fill="#e6e6e6"/>
            <rect id="Rectángulo_417607" data-name="Rectángulo 417607" width="49.75" height="3.113" transform="translate(195.861 94.807)" fill="#e6e6e6"/>
            <rect id="Rectángulo_417608" data-name="Rectángulo 417608" width="49.75" height="3.113" transform="translate(129.089 128.135)" fill="#e6e6e6"/>
            <rect id="Rectángulo_417609" data-name="Rectángulo 417609" width="45.939" height="3.113" transform="translate(210.676 119.803)" fill="#e6e6e6"/>
            <rect id="Rectángulo_417610" data-name="Rectángulo 417610" width="21.717" height="3.113" transform="translate(223.895 103.139)" fill="#e6e6e6"/>
            <rect id="Rectángulo_417611" data-name="Rectángulo 417611" width="21.717" height="3.113" transform="translate(136.981 111.471)" fill="#e6e6e6"/>
            <rect id="Rectángulo_417612" data-name="Rectángulo 417612" width="73.312" height="3.113" transform="translate(144.266 103.139)" fill="#e6e6e6"/>
            <rect id="Rectángulo_417613" data-name="Rectángulo 417613" width="73.312" height="3.113" transform="translate(183.304 128.135)" fill="#e6e6e6"/>
            <rect id="Rectángulo_417614" data-name="Rectángulo 417614" width="58.817" height="3.113" transform="translate(90.508 94.807)" fill="#e6e6e6"/>
            <rect id="Rectángulo_417615" data-name="Rectángulo 417615" width="36.542" height="3.113" transform="translate(153.986 94.807)" fill="#e6e6e6"/>
            <rect id="Rectángulo_417616" data-name="Rectángulo 417616" width="36.542" height="3.113" transform="translate(103.451 103.139)" fill="#e6e6e6"/>
            <rect id="Rectángulo_417617" data-name="Rectángulo 417617" width="11.287" height="3.113" transform="translate(253.555 103.139)" fill="#e6e6e6"/>
            <rect id="Rectángulo_417618" data-name="Rectángulo 417618" width="11.288" height="3.113" transform="translate(264.842 111.471)" fill="#e6e6e6"/>
            <rect id="Rectángulo_417619" data-name="Rectángulo 417619" width="31.489" height="3.113" transform="translate(225.127 111.471)" fill="#e6e6e6"/>
            <rect id="Rectángulo_417620" data-name="Rectángulo 417620" width="31.489" height="3.113" transform="translate(214.123 136.468)" fill="#e6e6e6"/>
            <rect id="Rectángulo_417621" data-name="Rectángulo 417621" width="50.715" height="3.113" transform="translate(123.34 144.8)" fill="#e6e6e6"/>
            <rect id="Rectángulo_417622" data-name="Rectángulo 417622" width="49.286" height="3.113" transform="translate(159.422 136.468)" fill="#e6e6e6"/>
            <rect id="Rectángulo_417623" data-name="Rectángulo 417623" width="40.62" height="3.113" transform="translate(179.887 144.8)" fill="#e6e6e6"/>
            <rect id="Rectángulo_417624" data-name="Rectángulo 417624" width="63.127" height="3.113" transform="translate(90.508 136.468)" fill="#e6e6e6"/>
            <rect id="Rectángulo_417625" data-name="Rectángulo 417625" width="19.315" height="3.113" transform="translate(226.297 144.8)" fill="#e6e6e6"/>
            <rect id="Rectángulo_417626" data-name="Rectángulo 417626" width="54.489" height="3.113" transform="translate(151.595 119.803)" fill="#e6e6e6"/>
            <rect id="Rectángulo_417627" data-name="Rectángulo 417627" width="45.874" height="3.113" transform="translate(101.06 119.803)" fill="#e6e6e6"/>
            <rect id="Rectángulo_417628" data-name="Rectángulo 417628" width="54.402" height="3.113" transform="translate(163.944 111.471)" fill="#e6e6e6"/>
            <rect id="Rectángulo_417629" data-name="Rectángulo 417629" width="11.288" height="3.113" transform="translate(264.842 119.803)" fill="#e6e6e6"/>
            <rect id="Rectángulo_417630" data-name="Rectángulo 417630" width="11.288" height="3.113" transform="translate(264.842 128.135)" fill="#e6e6e6"/>
            <rect id="Rectángulo_417631" data-name="Rectángulo 417631" width="11.287" height="3.113" transform="translate(253.555 136.468)" fill="#e6e6e6"/>
            <rect id="Rectángulo_417632" data-name="Rectángulo 417632" width="11.287" height="3.113" transform="translate(253.555 144.8)" fill="#e6e6e6"/>
          </g>
        </g>
        <text id="_" data-name="&lt;/&gt;" transform="matrix(-1, 0, 0, 1, 276.64, 72.647)" fill="#212429" font-size="15" font-family="Helvetica" letter-spacing="0em"><tspan x="0" y="0">&lt;/&gt;</tspan></text>
        <g id="Grupo_1180797" data-name="Grupo 1180797">
          <g id="Grupo_1180796" data-name="Grupo 1180796" clip-path="url(#clip-path-2)">
            <path id="Trazado_1042532" data-name="Trazado 1042532" d="M33.377,218.971H8.649a5.72,5.72,0,0,0-5.72,5.72v24.686l5.816-5.34H33.377a5.72,5.72,0,0,0,5.72-5.72V224.691a5.72,5.72,0,0,0-5.72-5.72" transform="translate(269.417 -65.47)" fill="#fff"/>
            <path id="Trazado_1042533" data-name="Trazado 1042533" d="M33.377,218.971H8.649a5.72,5.72,0,0,0-5.72,5.72v24.686l5.816-5.34H33.377a5.72,5.72,0,0,0,5.72-5.72V224.691A5.72,5.72,0,0,0,33.377,218.971Z" transform="translate(269.417 -65.47)" fill="none" stroke="#eaeaea" stroke-miterlimit="10" stroke-width="1"/>
            <path id="Trazado_1042534" data-name="Trazado 1042534" d="M41.771,236.436a2.487,2.487,0,1,1-2.487-2.487,2.487,2.487,0,0,1,2.487,2.487" transform="translate(243.001 -69.949)" fill="#eaeaea"/>
            <path id="Trazado_1042535" data-name="Trazado 1042535" d="M29.43,236.436a2.487,2.487,0,1,1-2.487-2.487,2.487,2.487,0,0,1,2.487,2.487" transform="translate(263.993 -69.949)" fill="#eaeaea"/>
            <path id="Trazado_1042536" data-name="Trazado 1042536" d="M17.088,236.436a2.487,2.487,0,1,1-2.487-2.487,2.487,2.487,0,0,1,2.487,2.487" transform="translate(284.987 -69.949)" fill="#eaeaea"/>
            <path id="Trazado_1042537" data-name="Trazado 1042537" d="M318.12,18.015a5.524,5.524,0,0,0,5.112,5.508v.015h31.28a6.492,6.492,0,0,0,.607-12.955,10.937,10.937,0,0,0-21.2-3.42,6.406,6.406,0,0,0-2.9-.687,6.49,6.49,0,0,0-6.479,6.09,5.4,5.4,0,0,0-.9-.074,5.523,5.523,0,0,0-5.523,5.523" transform="translate(-273.44)" fill="#e3a6c1"/>
            <path id="Trazado_1042538" data-name="Trazado 1042538" d="M366.289,224.285h26.892a4.925,4.925,0,0,0,4.925-4.925V203.921a4.925,4.925,0,0,0-4.925-4.926H366.289a4.926,4.926,0,0,0-4.925,4.926V219.36a4.925,4.925,0,0,0,4.925,4.925" transform="translate(-340.859 -59.498)" fill="#f0f0f0"/>
          </g>
        </g>
        <text id="_2" data-name="&lt;/&gt;" transform="translate(29.13 154.797)" fill="#212429" font-size="13" font-family="Helvetica" letter-spacing="0em"><tspan x="0" y="0">&lt;/&gt;</tspan></text>
        <text id="_3" data-name="{}" transform="matrix(-1, 0, 0, 1, 71.601, 120.801)" fill="#fff" font-size="15" font-family="Helvetica" letter-spacing="0em"><tspan x="0" y="0">{}</tspan></text>
        <g id="Grupo_1180799" data-name="Grupo 1180799">
          <g id="Grupo_1180798" data-name="Grupo 1180798" clip-path="url(#clip-path-2)">
            <text id="_4" data-name="{}" transform="matrix(-1, 0, 0, 1, 280.642, 6.138)" fill="#e6e6e6" font-size="11" font-family="Helvetica"><tspan x="0" y="0">{}</tspan></text>
          </g>
        </g>
        <g id="Grupo_1180801" data-name="Grupo 1180801">
          <g id="Grupo_1180800" data-name="Grupo 1180800" clip-path="url(#clip-path-2)">
            <path id="Trazado_1042539" data-name="Trazado 1042539" d="M104.9,79.57H179.8a5.824,5.824,0,0,0,5.825-5.825V19.316a5.825,5.825,0,0,0-5.825-5.825H104.9a5.825,5.825,0,0,0-5.825,5.825V73.745A5.825,5.825,0,0,0,104.9,79.57" transform="translate(55.49 -4.034)" fill="#4d5a64"/>
          </g>
        </g>
        <text id="_5" data-name="&lt;/&gt;" transform="matrix(-1, 0, 0, 1, 183.359, 22.25)" fill="#fafafa" font-size="8" font-family="Helvetica"><tspan x="0" y="0">&lt;/&gt;</tspan></text>
        <g id="Grupo_1180803" data-name="Grupo 1180803">
          <g id="Grupo_1180802" data-name="Grupo 1180802" clip-path="url(#clip-path-2)">
            <path id="Trazado_1042540" data-name="Trazado 1042540" d="M159.225,34.807H136.183a.526.526,0,0,1,0-1.052h23.041a.526.526,0,0,1,0,1.052" transform="translate(55.725 -10.092)" fill="#fafafa"/>
            <path id="Trazado_1042541" data-name="Trazado 1042541" d="M177.05,47.661H113.02c-.855,0-1.747.074-2.6,0-.039,0-.079,0-.118,0a.526.526,0,0,1,0-1.052h64.031c.855,0,1.747-.074,2.6,0,.039,0,.079,0,.118,0a.526.526,0,0,1,0,1.052" transform="translate(56.042 -13.926)" fill="#fafafa"/>
            <path id="Trazado_1042542" data-name="Trazado 1042542" d="M202.285,62.825H194.7a.526.526,0,0,1,0-1.052h7.581a.526.526,0,0,1,0,1.052" transform="translate(-28.359 -18.47)" fill="#fafafa"/>
            <path id="Trazado_1042543" data-name="Trazado 1042543" d="M169.293,62.825H137.341a.526.526,0,0,1,0-1.052h31.952a.526.526,0,0,1,0,1.052" transform="translate(44.844 -18.47)" fill="#fafafa"/>
            <path id="Trazado_1042544" data-name="Trazado 1042544" d="M177.05,75.353H113.02c-.855,0-1.747.074-2.6,0-.039,0-.079,0-.118,0a.526.526,0,0,1,0-1.052h64.031c.855,0,1.747-.074,2.6,0,.039,0,.079,0,.118,0a.526.526,0,0,1,0,1.052" transform="translate(56.042 -22.206)" fill="#fafafa"/>
            <path id="Trazado_1042545" data-name="Trazado 1042545" d="M197.2,89.214h-19.5a.526.526,0,0,1,0-1.052h19.5a.526.526,0,0,1,0,1.052" transform="translate(-11.363 -26.36)" fill="#fafafa"/>
            <path id="Trazado_1042546" data-name="Trazado 1042546" d="M159.57,89.214H137.342a.526.526,0,0,1,0-1.052H159.57a.526.526,0,0,1,0,1.052" transform="translate(54.567 -26.36)" fill="#fafafa"/>
            <rect id="Rectángulo_417637" data-name="Rectángulo 417637" width="50.501" height="28.417" transform="translate(153.646 113.603)" fill="#fafafa"/>
            <rect id="Rectángulo_417638" data-name="Rectángulo 417638" width="50.501" height="28.417" transform="translate(153.646 113.603)" fill="none" stroke="#d880a6" stroke-miterlimit="10" stroke-width="1"/>
            <path id="Trazado_1042547" data-name="Trazado 1042547" d="M154.989,165.21a1.288,1.288,0,1,0,1.288-1.288,1.288,1.288,0,0,0-1.288,1.288" transform="translate(44.354 -49.011)" fill="#d880a6"/>
            <path id="Trazado_1042548" data-name="Trazado 1042548" d="M162.49,165.21a1.288,1.288,0,1,0,1.288-1.288,1.288,1.288,0,0,0-1.288,1.288" transform="translate(31.595 -49.011)" fill="#d880a6"/>
            <path id="Trazado_1042549" data-name="Trazado 1042549" d="M169.992,165.21a1.288,1.288,0,1,0,1.288-1.288,1.288,1.288,0,0,0-1.288,1.288" transform="translate(18.834 -49.011)" fill="#d880a6"/>
          </g>
        </g>
        <text id="HTML" transform="translate(158.648 132.414)" fill="#d880a6" font-size="15" font-family="Helvetica" letter-spacing="0em"><tspan x="0" y="0">HTML</tspan></text>
        <g id="Grupo_1180805" data-name="Grupo 1180805">
          <g id="Grupo_1180804" data-name="Grupo 1180804" clip-path="url(#clip-path-2)">
            <line id="Línea_1286" data-name="Línea 1286" x1="50.501" transform="translate(153.646 118.72)" fill="none" stroke="#d880a6" stroke-miterlimit="10" stroke-width="1"/>
            <rect id="Rectángulo_417640" data-name="Rectángulo 417640" width="34.641" height="23.367" transform="translate(232.954 20.024)" fill="#fafafa"/>
            <rect id="Rectángulo_417641" data-name="Rectángulo 417641" width="34.641" height="23.367" transform="translate(232.954 20.024)" fill="none" stroke="#d880a6" stroke-miterlimit="10" stroke-width="1"/>
            <path id="Trazado_1042550" data-name="Trazado 1042550" d="M63.913,31.156A1.059,1.059,0,1,0,64.972,30.1a1.059,1.059,0,0,0-1.059,1.059" transform="translate(199.733 -8.999)" fill="#d880a6"/>
            <path id="Trazado_1042551" data-name="Trazado 1042551" d="M70.082,31.156A1.059,1.059,0,1,0,71.141,30.1a1.059,1.059,0,0,0-1.059,1.059" transform="translate(189.24 -8.999)" fill="#d880a6"/>
            <path id="Trazado_1042552" data-name="Trazado 1042552" d="M76.25,31.156A1.059,1.059,0,1,0,77.309,30.1a1.059,1.059,0,0,0-1.059,1.059" transform="translate(178.748 -8.999)" fill="#d880a6"/>
          </g>
        </g>
        <text id="PHP" transform="translate(237.789 37.294)" fill="#d880a6" font-size="13" font-family="Helvetica" letter-spacing="0em"><tspan x="0" y="0">PHP</tspan></text>
        <g id="Grupo_1180810" data-name="Grupo 1180810">
          <g id="Grupo_1180809" data-name="Grupo 1180809" clip-path="url(#clip-path-2)">
            <line id="Línea_1287" data-name="Línea 1287" x1="34.641" transform="translate(232.954 24.231)" fill="none" stroke="#d880a6" stroke-miterlimit="10" stroke-width="1"/>
            <path id="Trazado_1042553" data-name="Trazado 1042553" d="M343.688,77.576H410.68v42.311H343.688" transform="translate(-341.041 -23.194)" fill="#d880a6"/>
            <rect id="Rectángulo_417643" data-name="Rectángulo 417643" width="66.992" height="8.082" transform="translate(2.647 54.381)" fill="#d880a6"/>
            <g id="Grupo_1180808" data-name="Grupo 1180808" transform="translate(2.647 54.381)" opacity="0.2">
              <g id="Grupo_1180807" data-name="Grupo 1180807">
                <g id="Grupo_1180806" data-name="Grupo 1180806" clip-path="url(#clip-path-10)">
                  <rect id="Rectángulo_417644" data-name="Rectángulo 417644" width="66.992" height="8.082"/>
                </g>
              </g>
            </g>
            <path id="Trazado_1042554" data-name="Trazado 1042554" d="M348.707,82.556a2.034,2.034,0,1,0,2.034-2.034,2.034,2.034,0,0,0-2.034,2.034" transform="translate(-286.654 -24.075)" fill="#e0e0e0"/>
            <path id="Trazado_1042555" data-name="Trazado 1042555" d="M360.555,82.556a2.034,2.034,0,1,0,2.034-2.034,2.034,2.034,0,0,0-2.034,2.034" transform="translate(-306.808 -24.075)" fill="#f0f0f0"/>
            <path id="Trazado_1042556" data-name="Trazado 1042556" d="M372.4,82.556a2.034,2.034,0,1,0,2.034-2.034,2.034,2.034,0,0,0-2.034,2.034" transform="translate(-326.961 -24.075)" fill="#fafafa"/>
          </g>
        </g>
        <text id="C_" data-name="C++" transform="translate(10.418 83.778)" fill="#fff" font-size="24" font-family="Helvetica-Bold, Helvetica" font-weight="700"><tspan x="0" y="0">C++</tspan></text>
        <g id="Grupo_1180815" data-name="Grupo 1180815">
          <g id="Grupo_1180814" data-name="Grupo 1180814" clip-path="url(#clip-path-2)">
            <path id="Trazado_1042557" data-name="Trazado 1042557" d="M14.114,118.825H69.572v35.027H14.114" transform="translate(231.102 -35.528)" fill="#d880a6"/>
            <rect id="Rectángulo_417647" data-name="Rectángulo 417647" width="55.458" height="6.69" transform="translate(245.215 83.297)" fill="#d880a6"/>
            <g id="Grupo_1180813" data-name="Grupo 1180813" transform="translate(245.215 83.297)" opacity="0.2">
              <g id="Grupo_1180812" data-name="Grupo 1180812" transform="translate(0)">
                <g id="Grupo_1180811" data-name="Grupo 1180811" clip-path="url(#clip-path-12)">
                  <rect id="Rectángulo_417648" data-name="Rectángulo 417648" width="55.458" height="6.69" transform="translate(0)"/>
                </g>
              </g>
            </g>
            <path id="Trazado_1042558" data-name="Trazado 1042558" d="M18.269,122.948a1.684,1.684,0,1,0,1.684-1.684,1.683,1.683,0,0,0-1.684,1.684" transform="translate(276.124 -36.257)" fill="#e0e0e0"/>
            <path id="Trazado_1042559" data-name="Trazado 1042559" d="M28.077,122.948a1.684,1.684,0,1,0,1.684-1.684,1.683,1.683,0,0,0-1.684,1.684" transform="translate(259.44 -36.257)" fill="#f0f0f0"/>
            <path id="Trazado_1042560" data-name="Trazado 1042560" d="M37.885,122.948a1.684,1.684,0,1,0,1.684-1.684,1.683,1.683,0,0,0-1.684,1.684" transform="translate(242.757 -36.257)" fill="#fafafa"/>
          </g>
        </g>
        <text id="CSS" transform="translate(256.821 108.721)" fill="#fff" font-size="17" font-family="Helvetica" letter-spacing="0em"><tspan x="0" y="0">CSS</tspan></text>
        <g id="Grupo_1180817" data-name="Grupo 1180817">
          <g id="Grupo_1180816" data-name="Grupo 1180816" clip-path="url(#clip-path-2)">
            <line id="Línea_1288" data-name="Línea 1288" x1="310.079" transform="translate(0.488 249.806)" fill="none" stroke="#263238" stroke-miterlimit="10" stroke-width="1"/>
          </g>
        </g>
        <g id="Grupo_1180831" data-name="Grupo 1180831">
          <g id="Grupo_1180830" data-name="Grupo 1180830" clip-path="url(#clip-path-2)">
            <path id="Trazado_1042561" data-name="Trazado 1042561" d="M89.047,207.623c1.4-2.254,2.331-6.6,1.865-10.8s-.622-10.567,4.662-10.878,7.07,10.334,7.381,12.587,9.712,3.652,17.249,1.3,21.6-5.035,27.8-3.481,3.9,6.962,3.9,6.962l-.011.006c4.273,3.006-.419,6.811-.419,6.811,4.351,3.937-.484,8.1-3.557,8.5a3.112,3.112,0,0,1,.034,1.236c-.829,4.559-19.684,2.9-30.458,7.666S99.252,252.4,99.252,252.4L76.77,225.416s10.878-15.539,12.277-17.794" transform="translate(103.07 -55.594)" fill="#fff"/>
            <path id="Trazado_1042562" data-name="Trazado 1042562" d="M77.456,217.312s21.548-1.865,25.9,2.072-.484,8.095-3.557,8.5" transform="translate(151.18 -64.842)" fill="none" stroke="#263238" stroke-miterlimit="10" stroke-width="1"/>
            <path id="Trazado_1042563" data-name="Trazado 1042563" d="M76.743,209.729s16.265-4.351,24.345-1.036c7.5,3.076,1.554,7.874,1.554,7.874" transform="translate(151.893 -62.025)" fill="none" stroke="#263238" stroke-miterlimit="10" stroke-width="1"/>
            <path id="Trazado_1042564" data-name="Trazado 1042564" d="M153.847,203.318s2.3-5.408-3.9-6.961-20.258,1.134-27.8,3.481-16.938.948-17.249-1.305-2.1-12.9-7.382-12.587-5.128,6.682-4.662,10.878-.466,8.545-1.865,10.8-12.277,17.794-12.277,17.794L101.2,252.4s7.459-20.1,18.233-24.863,29.629-3.108,30.458-7.666-7.459-6.631-20.1-5.18" transform="translate(101.118 -55.594)" fill="none" stroke="#263238" stroke-miterlimit="10" stroke-width="1"/>
            <path id="Trazado_1042565" data-name="Trazado 1042565" d="M242.758,258.844,208.88,239.316s-29.348,53.01-67.2,66.674l45.082,17.019,36.178-2.322s14.387-30.347,19.813-61.843" transform="translate(-31.512 -71.553)" fill="#d880a6"/>
            <g id="Grupo_1180820" data-name="Grupo 1180820" transform="translate(110.171 167.762)" opacity="0.3">
              <g id="Grupo_1180819" data-name="Grupo 1180819">
                <g id="Grupo_1180818" data-name="Grupo 1180818" clip-path="url(#clip-path-15)">
                  <path id="Trazado_1042566" data-name="Trazado 1042566" d="M242.758,258.844,208.88,239.316s-29.348,53.01-67.2,66.674l45.082,17.019,36.178-2.322s14.387-30.347,19.813-61.843" transform="translate(-141.683 -239.315)" fill="#fff"/>
                </g>
              </g>
            </g>
            <path id="Trazado_1042567" data-name="Trazado 1042567" d="M284.408,334.141c.234-.086.468-.176.7-.265v.773l-.7-.265Z" transform="translate(-173.914 -99.826)" fill="#fafafa"/>
            <path id="Trazado_1042568" data-name="Trazado 1042568" d="M148.59,301.579v10.849l-.7-.264V301.579h-3.27c.4-.231.806-.462,1.206-.7h2.064v-1.271c.233-.149.468-.3.7-.448v1.719h13.3v-11.92q.352-.311.7-.626v12.546h13.3V286.93H164.126q.376-.349.751-.7h11.011V274.8c.234-.266.47-.533.7-.8v12.233h13.3V272.279H178.061q.3-.35.592-.7h11.233V257.63h-.442c.391-.548.77-1.087,1.143-1.619v.918h13.3V242.98h-4.81c.15-.25.287-.481.418-.7h4.392v-.4l1.906,1.1h-1.205v13.949h13.3v-6.978l.7.4v6.573h11.4l1.216.7h-12.62v13.948h13.3V258.021l.7.4V269.8q-.341,1.485-.7,2.955v-.48h-13.3v13.949h9.576q-.107.351-.215.7h-9.361v13.949h4.653q-.128.353-.257.7h-4.4v11.262q-.364.879-.7,1.678v-12.94h-13.3v13.949h12.871l-.3.7H204.586v5.883l-.7.045v-5.928h-13.3v6.782l-.7.045v-6.826h-13.3V323l-.7-.265v-6.5h-13.3v1.484l-.7-.264v-1.22h-3.23l-1.857-.7h5.087V301.579Zm56-.7h13.3V286.93h-13.3Zm0-14.65h13.3V272.28h-13.3Zm0-14.65h13.3V257.63h-13.3Zm-14,43.95h13.3V301.579h-13.3Zm0-14.65h13.3V286.93h-13.3Zm0-14.65h13.3V272.28h-13.3Zm0-14.65h13.3V257.63h-13.3Zm-14,43.95h13.3V301.579h-13.3Zm0-14.65h13.3V286.93h-13.3Zm-14,14.65h13.3V301.579h-13.3Z" transform="translate(-23.396 -72.32)" fill="#fafafa"/>
            <path id="Trazado_1042569" data-name="Trazado 1042569" d="M242.758,258.844,208.88,239.316s-29.348,53.01-67.2,66.674l45.082,17.019,36.178-2.322S237.331,290.34,242.758,258.844Z" transform="translate(-31.512 -71.553)" fill="none" stroke="#263238" stroke-miterlimit="10" stroke-width="1"/>
            <line id="Línea_1289" data-name="Línea 1289" x1="38.567" y1="20.35" transform="translate(169.687 180.523)" fill="none" stroke="#263238" stroke-miterlimit="10" stroke-width="1"/>
            <path id="Trazado_1042570" data-name="Trazado 1042570" d="M183.713,251.8a2.887,2.887,0,1,0,2.887-2.887,2.887,2.887,0,0,0-2.887,2.887" transform="translate(-7.704 -74.422)" fill="#263238"/>
            <path id="Trazado_1042571" data-name="Trazado 1042571" d="M204.549,258.33s-9.037,23.833,24.128,32.268,72.206,6.963,72.206,6.963,3.967.055,3.729-10.341.233-30.931-13.124-53.622-21.664-30.992-28.436-33.58c-2.356-.9-18.7-2.264-27.737,2.966-16.929,9.8-30,32.8-30.767,55.345" transform="translate(-136.657 -59.547)" fill="#d880a6"/>
            <g id="Grupo_1180823" data-name="Grupo 1180823" transform="translate(66.767 139.614)" opacity="0.3">
              <g id="Grupo_1180822" data-name="Grupo 1180822">
                <g id="Grupo_1180821" data-name="Grupo 1180821" clip-path="url(#clip-path-16)">
                  <path id="Trazado_1042572" data-name="Trazado 1042572" d="M204.549,258.33s-9.037,23.833,24.128,32.268,72.206,6.963,72.206,6.963,3.967.055,3.729-10.341.233-30.931-13.124-53.622-21.664-30.992-28.436-33.58c-2.356-.9-18.7-2.264-27.737,2.966-16.929,9.8-30,32.8-30.767,55.345" transform="translate(-203.424 -199.161)" fill="#fff"/>
                </g>
              </g>
            </g>
            <path id="Trazado_1042573" data-name="Trazado 1042573" d="M214.364,271.405H203.653q-.1-.352-.179-.7h10.89V256.755H204.087c.014-.234.025-.468.042-.7h10.235V242.1H206.61c.067-.233.13-.468.2-.7h7.555V227.456h-1.873c.124-.236.252-.468.379-.7h1.494v-2.637c.229-.383.465-.76.7-1.138v3.775h13.3V212.806h-5.593c.219-.237.442-.468.664-.7h4.929v-4.6c.233-.191.467-.379.7-.565v5.17h13.3V200.267c.233-.05.467-.1.7-.143V212.1h13.3V199.26c.238.011.472.023.7.036V212.1h13.3v-6.841q.347.322.7.662V212.1H276.6c.184.231.369.463.557.7h-6.1v13.949h13.3v-3.788c.233.356.465.71.7,1.077v2.711h1.717c.146.234.291.463.439.7H285.06V241.4h9.981c.109.233.224.468.33.7H285.06v13.949h13.3v-6.6q.366,1.026.7,2.039v4.558h1.378c.064.235.123.467.184.7h-1.563V270.7h4.163c.027.235.053.47.078.7h-4.24v13.949h4.972q.006.357.013.7h-4.984v11.572l-.7.015V286.055h-13.3v11.529l-.7-.018V286.055h-13.3v10.893l-.7-.048V286.055h-13.3v9.653l-.7-.079v-9.574h-13.3v7.7c-.233-.039-.467-.078-.7-.118v-7.577h-13.3v4.8l-.7-.175v-4.629H216.127q-.92-.509-1.762-1.038Zm70.7,13.949h13.3V271.406h-13.3Zm0-14.65h13.3V256.755h-13.3Zm-14,14.65h13.3V271.406h-13.3Zm0-14.65h13.3V256.755h-13.3Zm0-14.65h13.3V242.106h-13.3Zm0-14.65h13.3V227.455h-13.3Zm-14,43.95h13.3V271.406h-13.3Zm0-14.65h13.3V256.755h-13.3Zm0-14.65h13.3V242.106h-13.3Zm0-14.65h13.3V227.455h-13.3Zm0-14.649h13.3V212.806h-13.3Zm-14,58.6h13.3V271.406h-13.3Zm0-14.65h13.3V256.755h-13.3Zm0-14.65h13.3V242.106h-13.3Zm0-14.65h13.3V227.455h-13.3Zm0-14.649h13.3V212.806h-13.3Zm-14,58.6h13.3V271.406h-13.3Zm0-14.65h13.3V256.755h-13.3Zm0-14.65h13.3V242.106h-13.3Zm0-14.65h13.3V227.455h-13.3Zm0-14.649h13.3V212.806h-13.3Zm-14,58.6h13.3V271.406h-13.3Zm0-14.65h13.3V256.755h-13.3Zm0-14.65h13.3V242.106h-13.3Zm0-14.65h13.3V227.455h-13.3Z" transform="translate(-136.113 -59.577)" fill="#fafafa"/>
            <path id="Trazado_1042574" data-name="Trazado 1042574" d="M203.439,200.384s45.625,38.692,38.34,95.947" transform="translate(-74.612 -59.913)" fill="none" stroke="#263238" stroke-miterlimit="10" stroke-width="1"/>
            <path id="Trazado_1042575" data-name="Trazado 1042575" d="M188.811,318.981l-2.6,36.275,43.2-4.316a7.9,7.9,0,0,1,7.459,1.93c3.285,3.219,3.225,4.951,3.483,6.052s1.225,5.2,3.14,7.349,3.509,2.073,4.883.674l1.375-1.4s.541-.28,1.277.441,2.636,1.564,3.682.127,1.088-1.271,1.088-1.271.329-.608.926-.019,3.218,1.6,4.575-.024a15.742,15.742,0,0,0,1.9-2.7,1.941,1.941,0,0,1,1.211.182c.81.318,4.141,1.119,5.968-2.822s.723-9.917,0-13.838-4.077-12.422-7.12-15.86-8.794-7.419-14.807-8.416-22.744-1.67-29.8-1.841-29.84-.523-29.84-.523" transform="translate(-91.344 -95.372)" fill="#fff"/>
            <path id="Trazado_1042576" data-name="Trazado 1042576" d="M274.511,349.351s6.334,11.169,7.483,17.305-2.318,10.532-4.322,10.4-4.834-2.2-6.078-8.154-5.285-9-8.248-9.066-48.351,4.736-48.351,4.736" transform="translate(-122.368 -104.453)" fill="none" stroke="#263238" stroke-miterlimit="10" stroke-width="1"/>
            <path id="Trazado_1042577" data-name="Trazado 1042577" d="M207.851,347.245s5.223,11.967,5.731,18.226-2.347,9.71-3.719,9.91-3.429-1.805-3.429-1.805" transform="translate(-47.786 -103.823)" fill="none" stroke="#263238" stroke-miterlimit="10" stroke-width="1"/>
            <path id="Trazado_1042578" data-name="Trazado 1042578" d="M198.432,340.946s5.693,11.293,6.058,17.822-.917,11.154-3.415,12.835-5-.789-5-.789" transform="translate(-31.434 -101.94)" fill="none" stroke="#263238" stroke-miterlimit="10" stroke-width="1"/>
            <path id="Trazado_1042579" data-name="Trazado 1042579" d="M186.485,318.966s43.151.329,57.121,1.807,19.968,9.128,23.135,16.9,4.229,18.006,2.378,21.531c-3.177,6.048-6.786,2.419-6.786,2.419" transform="translate(-90.188 -95.368)" fill="none" stroke="#263238" stroke-miterlimit="10" stroke-width="1"/>
            <path id="Trazado_1042580" data-name="Trazado 1042580" d="M330.637,233.793s-24.278,21.323-20.887,35.119,58.818,12.464,58.818,12.464v39.229s-24.312-.545-45.148,2.2c-24.368,3.216-62.729-5.83-66.6-34.7s19.8-81.128,83.871-89.766Z" transform="translate(-237.751 -59.304)" fill="#d880a6"/>
            <g id="Grupo_1180826" data-name="Grupo 1180826" transform="translate(18.665 139.042)" opacity="0.3">
              <g id="Grupo_1180825" data-name="Grupo 1180825">
                <g id="Grupo_1180824" data-name="Grupo 1180824" clip-path="url(#clip-path-17)">
                  <path id="Trazado_1042581" data-name="Trazado 1042581" d="M330.637,233.793s-24.278,21.323-20.887,35.119,58.818,12.464,58.818,12.464v39.229s-24.312-.545-45.148,2.2c-24.368,3.216-62.729-5.83-66.6-34.7s19.8-81.128,83.871-89.766Z" transform="translate(-256.416 -198.346)" fill="#fff"/>
                </g>
              </g>
            </g>
            <path id="Trazado_1042582" data-name="Trazado 1042582" d="M259.9,285.836V271.887H257.29c.041-.233.085-.467.128-.7h2.48v-9.619q.334-1.019.7-2.043v11.662h13.3V257.237H261.453c.091-.233.186-.468.28-.7H273.9V242.587h-5.009q.222-.35.447-.7H273.9v-6.424c.232-.3.463-.6.7-.9v7.319h13.3V227.938h-7.445q.343-.352.691-.7H287.9V221.1c.233-.191.466-.382.7-.572v6.714h13.3V213.288h-2.942c.388-.234.777-.47,1.171-.7H301.9v-1.011c.231-.129.468-.254.7-.381v1.392h13.3v-7.431c.231-.086.468-.165.7-.25v7.681h13.3v-11.56c.233-.053.468-.1.7-.155v11.715h6.165l-.2.7h-5.966v13.949h2.01l-.2.7h-1.811v6.384l-.064.226s-.229.2-.637.575v-7.185H316.6v13.948h6.557c-.211.231-.423.463-.637.7H316.6v7.254q-.355.488-.7.983v-8.237H302.6v13.949h9.778q-.184.35-.359.7H302.6v13.949h7.669a6.9,6.9,0,0,0,.458.7H302.6v13.949h13.3v-10.1c.229.11.462.218.7.323v9.78h13.3V279.7l.7.118v6.018h13.3v-4.449l.7.055v4.394h13.3v-3.749l.7.015v3.734h9.868v.7h-9.868v13.949h9.868v.7h-9.868v13.949h9.868v.7h-9.868v5.509l-.7.009v-5.518h-13.3v5.921l-.7.034v-5.956h-13.3v6.908l-.7.068v-6.976H316.6v8.285q-.35.014-.7.025v-8.31H302.6v7.651c-.233-.029-.467-.058-.7-.089v-7.562H288.6v4.671c-.234-.072-.468-.148-.7-.223v-4.448H277.221q-.645-.342-1.276-.7H287.9V301.186H274.6v13.159c-.236-.143-.47-.286-.7-.432V301.186H261q-.585-.975-1.1-2V286.537h-3.429c-.018-.233-.037-.466-.052-.7Zm56.7-58.6h13.3V213.288H316.6Zm28,87.9h13.3V301.186h-13.3Zm0-14.65h13.3V286.537h-13.3Zm-14,14.65h13.3V301.186h-13.3Zm0-14.65h13.3V286.537h-13.3Zm-14,14.65h13.3V301.186H316.6Zm0-14.65h13.3V286.537H316.6Zm-14,14.65h13.3V301.186H302.6Zm0-14.65h13.3V286.537H302.6Zm0-58.6h13.3V227.937H302.6Zm0-14.649h13.3V213.288H302.6Zm-14,87.9h13.3V301.186H288.6Zm0-14.65h13.3V286.537H288.6Zm0-14.65h13.3V271.888H288.6Zm0-14.65h13.3V257.237H288.6Zm0-14.65h13.3V242.588H288.6Zm0-14.65h13.3V227.937H288.6Zm-14,58.6h13.3V286.537H274.6Zm0-14.65h13.3V271.888H274.6Zm0-14.65h13.3V257.237H274.6Zm0-14.65h13.3V242.588H274.6Zm-14,43.949h13.3V286.537H260.6Zm0-14.65h13.3V271.888H260.6Z" transform="translate(-237.644 -60.059)" fill="#fafafa"/>
            <path id="Trazado_1042583" data-name="Trazado 1042583" d="M330.637,233.793s-24.278,21.323-20.887,35.119,58.818,12.464,58.818,12.464v39.229s-24.312-.545-45.148,2.2c-24.368,3.216-62.729-5.83-66.6-34.7s19.8-81.128,83.871-89.766" transform="translate(-237.751 -59.304)" fill="none" stroke="#263238" stroke-miterlimit="10" stroke-width="1"/>
            <path id="Trazado_1042584" data-name="Trazado 1042584" d="M262.743,360.906a2.883,2.883,0,1,0,2.883-2.883,2.883,2.883,0,0,0-2.883,2.883" transform="translate(-142.127 -107.046)" fill="#263238"/>
            <line id="Línea_1290" data-name="Línea 1290" y2="39.377" transform="translate(116.66 221.92)" fill="none" stroke="#263238" stroke-miterlimit="10" stroke-width="1"/>
            <path id="Trazado_1042585" data-name="Trazado 1042585" d="M284.208,149.06a8.4,8.4,0,1,0,8.4-8.327A8.362,8.362,0,0,0,284.208,149.06Z" transform="translate(-189.664 -42.078)" fill="none" stroke="#000" stroke-miterlimit="10" stroke-width="2"/>
            <path id="Trazado_1042586" data-name="Trazado 1042586" d="M261.213,115.753H250.667c-7.011,0-12.747,6.531-12.747,14.513v16.346c0,.461.024.915.062,1.366a6.479,6.479,0,0,0-.181,1.5v20.456a6.585,6.585,0,0,0,6.566,6.565h4.183a6.584,6.584,0,0,0,6.565-6.565v-8.806h6.1c7.011,0,12.746-6.531,12.746-14.513V130.266c0-7.982-5.736-14.513-12.746-14.513" transform="translate(-130.092 -34.609)" fill="#fff"/>
            <path id="Trazado_1042587" data-name="Trazado 1042587" d="M261.213,115.753H250.667c-7.011,0-12.747,6.531-12.747,14.513v16.346c0,.461.024.915.062,1.366a6.479,6.479,0,0,0-.181,1.5v20.456a6.585,6.585,0,0,0,6.566,6.565h4.183a6.584,6.584,0,0,0,6.565-6.565v-8.806h6.1c7.011,0,12.746-6.531,12.746-14.513V130.266C273.959,122.284,268.223,115.753,261.213,115.753Z" transform="translate(-130.092 -34.609)" fill="none" stroke="#263238" stroke-miterlimit="10" stroke-width="1"/>
            <path id="Trazado_1042588" data-name="Trazado 1042588" d="M228.222,131.455l1.946-12.8s35.425,4.441,46.908-12.767-.584-24.02-6.423-23.046-12.667,9.342-12.667,9.342,5.435-7.4,0-8.564-11.439,4.477-14.568,10.316c0,0-23.351-2.177-31.244,11.952s-1.5,24.153,12.941,38.751l.965-8.165Z" transform="translate(-117.631 -24.741)" fill="#263238"/>
            <path id="Trazado_1042589" data-name="Trazado 1042589" d="M263.464,153.235a6.054,6.054,0,1,0,6.054-6.054,6.054,6.054,0,0,0-6.054,6.054" transform="translate(-149.695 -44.006)" fill="#d880a6"/>
            <path id="Trazado_1042590" data-name="Trazado 1042590" d="M242.954,148.91a4.594,4.594,0,0,1,1.069.13v6.279a13.066,13.066,0,0,1-.091,2.736,7.371,7.371,0,0,1-.978.071,4.608,4.608,0,1,1,0-9.215" transform="translate(-100.564 -44.523)" fill="#d880a6"/>
            <path id="Trazado_1042591" data-name="Trazado 1042591" d="M259,142.837a2.154,2.154,0,1,0,2.154-2.154A2.153,2.153,0,0,0,259,142.837" transform="translate(-134.306 -42.063)" fill="#263238"/>
            <path id="Trazado_1042592" data-name="Trazado 1042592" d="M239.792,142.521a1.838,1.838,0,1,0,1.838-1.838,1.838,1.838,0,0,0-1.838,1.838" transform="translate(-100.997 -42.063)" fill="#263238"/>
            <path id="Trazado_1042593" data-name="Trazado 1042593" d="M255.543,155.477s-1.082,3.153-3.37,3.37-4.081-2.319-4.2-4.3Z" transform="translate(-118.805 -46.209)" fill="#fff"/>
            <path id="Trazado_1042594" data-name="Trazado 1042594" d="M255.662,155.439a6.281,6.281,0,0,1-1.954,2.868,3.456,3.456,0,0,1-4.852-.873,5.432,5.432,0,0,1-1.23-2.983.236.236,0,0,1,.235-.236l6.633.812.941.115c.3.036.3.506,0,.47L248.8,154.8l-.941-.115c.078-.079.156-.157.235-.234a4.559,4.559,0,0,0,3.012,3.985c1.614.425,2.864-.766,3.6-2.065a6.3,6.3,0,0,0,.5-1.055c.1-.284.552-.163.453.124" transform="translate(-118.697 -46.108)" fill="#263238"/>
            <ellipse id="Elipse_12491" data-name="Elipse 12491" cx="7.517" cy="8.402" rx="7.517" ry="8.402" transform="translate(115.95 91.111)" fill="none" stroke="#4d5a64" stroke-miterlimit="10" stroke-width="1"/>
            <ellipse id="Elipse_12492" data-name="Elipse 12492" cx="6.189" cy="7.514" rx="6.189" ry="7.514" transform="translate(136.012 90.946)" fill="none" stroke="#4d5a64" stroke-miterlimit="10" stroke-width="1"/>
            <path id="Trazado_1042595" data-name="Trazado 1042595" d="M246.671,140.722v7.3l3.825-2.331Z" transform="translate(-112.847 -42.075)" fill="#d880a6"/>
            <path id="Trazado_1042596" data-name="Trazado 1042596" d="M254.124,143.491s-3.2-1.211-5.4.6" transform="translate(-117.917 -42.784)" fill="none" stroke="#4d5a64" stroke-miterlimit="10" stroke-width="1"/>
            <line id="Línea_1291" data-name="Línea 1291" x1="10.197" y2="2.131" transform="translate(105.763 99.821)" fill="none" stroke="#4d5a64" stroke-miterlimit="10" stroke-width="1"/>
            <path id="Trazado_1042597" data-name="Trazado 1042597" d="M284.208,149.06a8.4,8.4,0,1,0,8.4-8.327,8.362,8.362,0,0,0-8.4,8.327" transform="translate(-189.664 -42.078)" fill="#fff"/>
            <path id="Trazado_1042598" data-name="Trazado 1042598" d="M294.71,151.895a4.5,4.5,0,0,0-2.257-4.392,5.49,5.49,0,0,0-2.893-.346c-.37.039-.367-.54,0-.579a5.031,5.031,0,0,1,4.56,1.5,5.593,5.593,0,0,1,1.148,3.081,4.91,4.91,0,0,1,.02.739c-.024.37-.6.373-.579,0" transform="translate(-187.519 -43.812)" fill="#263238"/>
            <path id="Trazado_1042599" data-name="Trazado 1042599" d="M255.463,203.54h30.248a1.985,1.985,0,0,0,1.985-1.985v-5.19a1.985,1.985,0,0,0-1.985-1.986H255.463a1.985,1.985,0,0,0-1.985,1.986v5.19a1.985,1.985,0,0,0,1.985,1.985" transform="translate(-154.819 -58.118)" fill="#d880a6"/>
            <g id="Grupo_1180829" data-name="Grupo 1180829" transform="translate(98.659 136.262)" opacity="0.3">
              <g id="Grupo_1180828" data-name="Grupo 1180828">
                <g id="Grupo_1180827" data-name="Grupo 1180827" clip-path="url(#clip-path-18)">
                  <path id="Trazado_1042600" data-name="Trazado 1042600" d="M255.463,203.54h30.248a1.985,1.985,0,0,0,1.985-1.985v-5.19a1.985,1.985,0,0,0-1.985-1.986H255.463a1.985,1.985,0,0,0-1.985,1.986v5.19a1.985,1.985,0,0,0,1.985,1.985" transform="translate(-253.478 -194.38)" fill="#fff"/>
                </g>
              </g>
            </g>
            <path id="Trazado_1042601" data-name="Trazado 1042601" d="M259,199.954a1.608,1.608,0,1,0,1.608-1.608A1.608,1.608,0,0,0,259,199.954" transform="translate(-133.215 -59.304)" fill="#263238"/>
            <path id="Trazado_1042602" data-name="Trazado 1042602" d="M261.067,203.54V196.7h-7.59v-.332a1.993,1.993,0,0,1,.037-.369h7.553V194.38h.7V196h13.3V194.38h.7V196h11.892a1.994,1.994,0,0,1,.037.369v.332H275.767v6.843h-.7V196.7h-13.3v6.843Z" transform="translate(-154.818 -58.118)" fill="#fafafa"/>
            <path id="Rectángulo_417656" data-name="Rectángulo 417656" d="M2.832,0H31.386a2.832,2.832,0,0,1,2.832,2.832v3.5a2.832,2.832,0,0,1-2.832,2.832H2.833A2.833,2.833,0,0,1,0,6.328v-3.5A2.832,2.832,0,0,1,2.832,0Z" transform="translate(98.659 136.262)" fill="none" stroke="#263238" stroke-miterlimit="10" stroke-width="1"/>
          </g>
        </g>
        <g id="Grupo_1180836" data-name="Grupo 1180836">
          <g id="Grupo_1180835" data-name="Grupo 1180835" clip-path="url(#clip-path-2)">
            <path id="Trazado_1042603" data-name="Trazado 1042603" d="M395.332,341.964a12.861,12.861,0,1,1-12.861,12.861,12.861,12.861,0,0,1,12.861-12.861m0,20.989a8.128,8.128,0,1,0-8.128-8.128,8.128,8.128,0,0,0,8.128,8.128" transform="translate(-365.742 -102.244)" fill="#fff"/>
            <path id="Trazado_1042604" data-name="Trazado 1042604" d="M395.332,341.964a12.861,12.861,0,1,1-12.861,12.861A12.861,12.861,0,0,1,395.332,341.964Zm0,20.989a8.128,8.128,0,1,0-8.128-8.128A8.128,8.128,0,0,0,395.332,362.953Z" transform="translate(-365.742 -102.244)" fill="none" stroke="#263238" stroke-miterlimit="10" stroke-width="1"/>
            <path id="Trazado_1042605" data-name="Trazado 1042605" d="M355.142,372.341h27.214a4.117,4.117,0,0,0,4.117-4.117v-32.6a4.117,4.117,0,0,0-4.117-4.117H355.142a4.117,4.117,0,0,0-4.117,4.117v32.6a4.117,4.117,0,0,0,4.117,4.117" transform="translate(-321.977 -99.119)" fill="#fff"/>
            <rect id="Rectángulo_417658" data-name="Rectángulo 417658" width="35.448" height="40.83" rx="5.873" transform="translate(29.048 232.392)" fill="none" stroke="#263238" stroke-miterlimit="10" stroke-width="1"/>
            <path id="Trazado_1042606" data-name="Trazado 1042606" d="M369.454,372.215h6.239a5.64,5.64,0,0,0,5.64-5.64v-.625a5.64,5.64,0,0,0-5.64-5.64h-6.239a5.64,5.64,0,0,0-5.64,5.64v.625a5.64,5.64,0,0,0,5.64,5.64" transform="translate(-325.802 -107.73)" fill="#d880a6"/>
            <path id="Trazado_1042607" data-name="Trazado 1042607" d="M366.663,378.51h.62a1.746,1.746,0,0,0,1.746-1.745V372.9a1.746,1.746,0,0,0-1.746-1.745h-.62a1.746,1.746,0,0,0-1.746,1.745v3.863a1.746,1.746,0,0,0,1.746,1.745" transform="translate(-314.27 -110.972)" fill="#d880a6"/>
            <path id="Trazado_1042608" data-name="Trazado 1042608" d="M383.545,378.833h.62a1.746,1.746,0,0,0,1.746-1.745v-3.863a1.746,1.746,0,0,0-1.746-1.745h-.62a1.746,1.746,0,0,0-1.745,1.745v3.863a1.746,1.746,0,0,0,1.745,1.745" transform="translate(-342.989 -111.069)" fill="#d880a6"/>
            <path id="Trazado_1042609" data-name="Trazado 1042609" d="M370.141,357.159a55.891,55.891,0,0,0,1.245-7.751c.371-4.807-2.013-7.058-7.032-6.357-2.648.369-3.792-3.683-1.118-4.056,5-.7,10.953.5,12.235,6.2.921,4.095-.384,9.067-1.274,13.084-.585,2.641-4.641,1.524-4.056-1.118" transform="translate(-318.781 -101.303)" fill="#d880a6"/>
            <path id="Trazado_1042610" data-name="Trazado 1042610" d="M391.721,365.56c-.163-.2-1.008.091-1.256.171-1.675.543-8.169,2.026-7.708,7.634.306,3.734,2.361,5.193,4.151,5.788a.625.625,0,0,0,.625-1.054,6.846,6.846,0,0,1-1.636-2.2c-.948-2.189,1.016-3.921,6.287-6.432.359-.171.111-2.563-.137-2.873Z" transform="translate(-350.095 -109.278)" fill="#d880a6"/>
            <path id="Trazado_1042611" data-name="Trazado 1042611" d="M376.309,340.432a.457.457,0,1,0,.457-.457.457.457,0,0,0-.457.457" transform="translate(-330.451 -101.649)" fill="#263238"/>
            <path id="Trazado_1042612" data-name="Trazado 1042612" d="M378.974,342.964a1.209,1.209,0,0,1-.21.4,1.873,1.873,0,0,1-.882.627,3.035,3.035,0,0,1-.946.158.053.053,0,0,1,0-.105,2.041,2.041,0,0,0,1.888-.981.755.755,0,0,0,.048-.127.053.053,0,0,1,.1.028" transform="translate(-332.609 -102.524)" fill="#263238"/>
            <path id="Trazado_1042613" data-name="Trazado 1042613" d="M371.75,363.807c0,.41.538.742,1.2.742s1.2-.332,1.2-.742-.538-.742-1.2-.742-1.2.332-1.2.742" transform="translate(-324.187 -108.553)" fill="#d880a6"/>
            <path id="Trazado_1042614" data-name="Trazado 1042614" d="M376.308,365.915c0,.235.308.426.689.426s.689-.191.689-.426-.308-.426-.689-.426-.689.191-.689.426" transform="translate(-330.914 -109.278)" fill="#d880a6"/>
            <path id="Trazado_1042615" data-name="Trazado 1042615" d="M377.623,362.442c0,.315.6.571,1.332.571s1.333-.255,1.333-.571-.6-.571-1.333-.571-1.332.255-1.332.571" transform="translate(-334.437 -108.196)" fill="#d880a6"/>
            <path id="Trazado_1042616" data-name="Trazado 1042616" d="M382.471,364.8c0,.207.279.374.623.374s.622-.167.622-.374-.279-.374-.622-.374-.623.167-.623.374" transform="translate(-341.264 -108.959)" fill="#d880a6"/>
            <g id="Grupo_1180834" data-name="Grupo 1180834" transform="translate(41.207 253.675)" opacity="0.6">
              <g id="Grupo_1180833" data-name="Grupo 1180833" transform="translate(0)">
                <g id="Grupo_1180832" data-name="Grupo 1180832" clip-path="url(#clip-path-20)">
                  <path id="Trazado_1042617" data-name="Trazado 1042617" d="M371.75,363.807c0,.41.538.742,1.2.742s1.2-.332,1.2-.742-.538-.742-1.2-.742-1.2.332-1.2.742" transform="translate(-365.393 -362.228)" fill="#fff"/>
                  <path id="Trazado_1042618" data-name="Trazado 1042618" d="M376.308,365.915c0,.235.308.426.689.426s.689-.191.689-.426-.308-.426-.689-.426-.689.191-.689.426" transform="translate(-372.121 -362.953)" fill="#fff"/>
                  <path id="Trazado_1042619" data-name="Trazado 1042619" d="M377.623,362.442c0,.315.6.571,1.332.571s1.333-.255,1.333-.571-.6-.571-1.333-.571-1.332.255-1.332.571" transform="translate(-375.644 -361.871)" fill="#fff"/>
                  <path id="Trazado_1042620" data-name="Trazado 1042620" d="M382.471,364.8c0,.207.279.374.623.374s.622-.167.622-.374-.279-.374-.622-.374-.623.167-.623.374" transform="translate(-382.471 -362.634)" fill="#fff"/>
                </g>
              </g>
            </g>
            <path id="Trazado_1042621" data-name="Trazado 1042621" d="M377.893,309.55a6.329,6.329,0,1,0,5.176-6.227,6.4,6.4,0,0,0-5.176,6.227.789.789,0,0,1-1.577,0,7.908,7.908,0,1,1,6.428,7.765,8.017,8.017,0,0,1-6.428-7.765.789.789,0,0,1,1.577,0" transform="translate(-345.345 -90.19)" fill="#e0e0e0"/>
            <g transform="matrix(1, 0, 0, 1, -45, -20.96)" filter="url(#Trazado_1042622)">
              <path id="Trazado_1042622-2" data-name="Trazado 1042622" d="M391.415,269.867a16.687,16.687,0,0,0,11.333,15.512,17.655,17.655,0,0,0,18.936-5.028,16.158,16.158,0,0,0,1.495-18.926,17.468,17.468,0,0,0-18.127-7.692,16.817,16.817,0,0,0-13.636,16.134.789.789,0,0,1-1.577,0,18.3,18.3,0,0,1,12.268-16.955,19.19,19.19,0,0,1,20.842,5.53,17.763,17.763,0,0,1,1.472,20.856,19.105,19.105,0,0,1-19.55,8.271,18.4,18.4,0,0,1-15.031-17.7.789.789,0,0,1,1.577,0" transform="translate(-344.84 -54.34)" fill="#e0e0e0"/>
            </g>
          </g>
        </g>
        <g id="Grupo_1180838" data-name="Grupo 1180838">
          <g id="Grupo_1180837" data-name="Grupo 1180837" clip-path="url(#clip-path-2)">
            <path id="Trazado_1042623" data-name="Trazado 1042623" d="M98.2,356.719l-74.263.136c-7.709.014-11.695-5.968-8.9-13.362l19.466-51.542c2.792-7.394,11.305-13.4,19.015-13.412l74.263-.135c7.709-.015,11.694,5.968,8.9,13.361L117.22,343.307c-2.792,7.394-11.306,13.4-19.015,13.412" transform="translate(163.072 -83.24)" fill="#263238"/>
            <path id="Trazado_1042624" data-name="Trazado 1042624" d="M98.062,326.007a8.286,8.286,0,0,1-7.5,5.937c-3.272.006-5.218-2.642-4.347-5.915a8.287,8.287,0,0,1,7.5-5.938c3.272-.006,5.218,2.643,4.347,5.916" transform="translate(152.005 -95.704)" fill="#fff"/>
            <path id="Trazado_1042625" data-name="Trazado 1042625" d="M217.849,385.518l-74.818.137a1.778,1.778,0,0,1-1.781-1.774l-.014-7.553a1.777,1.777,0,0,1,1.774-1.781l74.821-.137a1.777,1.777,0,0,1,1.78,1.774l.013,7.553a1.778,1.778,0,0,1-1.774,1.781" transform="translate(-8.064 -111.945)" fill="#263238"/>
          </g>
        </g>
      </g>
    </g>
  </g>
</svg>
